<svg id="svg" version="1.1" xmlns="http://www.w3.org/2000/svg" style="display: block;" viewBox="0 0 455 525"><path d="M0 0 C150.15 0 300.3 0 455 0 C455 173.25 455 346.5 455 525 C304.85 525 154.7 525 0 525 C0 351.75 0 178.5 0 0 Z " transform="translate(0,0)" style="fill: none"/><path d="M0 0 C15.25261077 14.65162475 19.6271239 31.60018989 17.9375 52.44921875 C16.43523561 57.74181174 14.36016195 62.52230262 11.9375 67.44921875 C11.2775 69.09921875 10.6175 70.74921875 9.9375 72.44921875 C10.51757812 73.38121094 11.09765625 74.31320313 11.6953125 75.2734375 C25.87839408 98.42041388 37.42438017 126.20165473 27.9375 153.44921875 C21.53488134 167.85183741 21.53488134 167.85183741 17.9375 171.44921875 C19.67 172.17109375 21.4025 172.89296875 23.1875 173.63671875 C24.28449219 174.095625 25.38148438 174.55453125 26.51171875 175.02734375 C28.67573677 175.92552227 30.84448098 176.81247095 33.01953125 177.68359375 C65.5612625 190.81970545 87.55247985 222.98812952 96.75927734 256.43457031 C105.22818785 289.1862369 109.3451711 330.14590337 87.25 358.953125 C84.39680275 364.50047303 84.33866624 368.79078333 84.13183594 374.95361328 C83.7846957 382.98406606 82.60823559 390.92232177 81.5625 398.88671875 C81.35367187 400.53220703 81.14484375 402.17769531 80.9296875 403.87304688 C79.72460286 413.1793865 78.31502763 422.41469407 76.61132812 431.64306641 C75.72063956 436.67416596 75.03016461 441.72368476 74.3671875 446.7890625 C73.9375 449.44921875 73.9375 449.44921875 72.9375 451.44921875 C72.59161043 453.42282392 72.28534473 455.40345494 72 457.38671875 C69.39215686 474.99456189 69.39215686 474.99456189 67.9375 476.44921875 C67.669375 478.16109375 67.40125 479.87296875 67.125 481.63671875 C66.01803373 488.31833529 64.51239742 494.86328407 62.9375 501.44921875 C62.2775 501.77921875 61.6175 502.10921875 60.9375 502.44921875 C60.56342741 494.27306074 62.0070501 486.80078711 63.5625 478.82421875 C69.00810462 449.84617189 73.26922913 420.72721845 76.55200195 391.42724609 C76.8985085 388.75043364 77.40815383 386.09594962 77.9375 383.44921875 C77.97671297 380.11611607 77.98194049 376.78225583 77.9375 373.44921875 C76.95523438 374.59197266 76.95523438 374.59197266 75.953125 375.7578125 C61.72536366 391.85447469 43.81383529 404.81579226 21.625 404.63671875 C19.85511719 404.63027344 18.08523438 404.62382812 16.26171875 404.6171875 C11.9375 404.44921875 11.9375 404.44921875 9.9375 403.44921875 C9.90011719 404.3721875 9.86273438 405.29515625 9.82421875 406.24609375 C9.33943074 415.86580872 8.12474371 425.2161685 6.625 434.7265625 C5.90803328 439.65163499 5.53311252 444.50556911 5.2421875 449.46875 C4.58610768 458.03984404 3.41708921 466.56890506 2.35351562 475.09765625 C1.93178341 478.49527355 1.51966814 481.89395264 1.109375 485.29296875 C0.84399826 487.47008236 0.57838179 489.64716676 0.3125 491.82421875 C0.18955566 492.84628418 0.06661133 493.86834961 -0.06005859 494.92138672 C-0.94823425 502.10642149 -0.94823425 502.10642149 -2.0625 505.44921875 C-24.5025 505.44921875 -46.9425 505.44921875 -70.0625 505.44921875 C-70.7225 480.69921875 -71.3825 455.94921875 -72.0625 430.44921875 C-76.5175 434.40921875 -76.5175 434.40921875 -81.0625 438.44921875 C-95.42522906 447.57218007 -112.44765046 451.79656113 -129.0625 454.44921875 C-131.36347656 454.84947266 -131.36347656 454.84947266 -133.7109375 455.2578125 C-145.59054323 457.3097444 -157.16278936 458.60306829 -169.234375 458.65234375 C-170.38253693 458.65940338 -171.53069885 458.66646301 -172.71365356 458.67373657 C-277.98692635 459.1736805 -277.98692635 459.1736805 -309.0625 429.44921875 C-309.3925 428.78921875 -309.7225 428.12921875 -310.0625 427.44921875 C-310.3925 438.00921875 -310.7225 448.56921875 -311.0625 459.44921875 C-312.0525 459.44921875 -313.0425 459.44921875 -314.0625 459.44921875 C-314.1617603 453.04463881 -314.2341545 446.64047261 -314.28222656 440.23535156 C-314.30227764 438.05883987 -314.32952571 435.88238161 -314.36425781 433.70605469 C-314.41306212 430.56822482 -314.43553438 427.4311104 -314.453125 424.29296875 C-314.47407227 422.40771484 -314.49501953 420.52246094 -314.51660156 418.58007812 C-313.71947969 409.57345812 -309.7681915 404.27817019 -303.0625 398.44921875 C-280.41013948 384.44921875 -280.41013948 384.44921875 -269.0625 384.44921875 C-269.5575 382.96421875 -269.5575 382.96421875 -270.0625 381.44921875 C-270.60385653 375.71083957 -269.86565435 372.80893227 -266.0625 368.44921875 C-252.51068873 358.23323795 -237.68728336 354.51214807 -221.0625 352.44921875 C-221.3925 348.48921875 -221.7225 344.52921875 -222.0625 340.44921875 C-223.00351563 340.93132812 -223.94453125 341.4134375 -224.9140625 341.91015625 C-226.78191406 342.85761719 -226.78191406 342.85761719 -228.6875 343.82421875 C-229.91726562 344.45070313 -231.14703125 345.0771875 -232.4140625 345.72265625 C-245.40406077 351.86995736 -261.65564032 351.32444045 -275.0625 346.44921875 C-291.54225043 337.69790301 -303.52522965 325.64038871 -309.0625 307.44921875 C-309.716091 303.30598689 -310.1691187 299.22772324 -310.4453125 295.04296875 C-311.15259189 290.92463306 -312.62527005 288.79696103 -315.0625 285.44921875 C-318.04783581 277.98587922 -317.57839613 273.62750668 -314.0625 266.44921875 C-303.49107143 259.73493304 -303.49107143 259.73493304 -298.0625 259.44921875 C-297.7325 258.12921875 -297.4025 256.80921875 -297.0625 255.44921875 C-286.50723209 245.12851235 -275.22283352 244.2116551 -261.0625 245.44921875 C-252.48963856 247.68985299 -247.20275545 252.33509204 -241.0625 258.44921875 C-235.78013767 259.03350204 -235.78013767 259.03350204 -232.3125 254.76171875 C-223.94120745 247.27929561 -214.07097729 244.37237276 -203.0078125 244.23828125 C-201.42355469 244.20992188 -199.83929688 244.1815625 -198.20703125 244.15234375 C-194.8686004 244.10038374 -191.53004143 244.05607612 -188.19140625 244.01953125 C-186.60457031 243.98859375 -185.01773438 243.95765625 -183.3828125 243.92578125 C-181.93148926 243.90596191 -180.48016602 243.88614258 -178.98486328 243.86572266 C-164.45797194 242.32315595 -153.34838957 225.56972246 -144.5 215.32421875 C-132.11711218 201.36532703 -118.29431077 190.65633831 -102.0625 181.44921875 C-102.55621094 180.65257812 -103.04992187 179.8559375 -103.55859375 179.03515625 C-104.19925781 177.97554687 -104.83992187 176.9159375 -105.5 175.82421875 C-106.13808594 174.78007812 -106.77617187 173.7359375 -107.43359375 172.66015625 C-109.04503252 169.48365105 -109.68735047 166.96822704 -110.0625 163.44921875 C-112.021875 163.57296875 -113.98125 163.69671875 -116 163.82421875 C-126.72939349 163.80091931 -132.7435025 157.62674492 -139.0625 149.44921875 C-148.36748731 134.19937843 -147.82985267 115.14292527 -143.0625 98.44921875 C-134.37951152 77.07110228 -121.30887108 64.09154201 -101.0625 53.44921875 C-100.05960938 52.91941406 -99.05671875 52.38960938 -98.0234375 51.84375 C-91.42454482 48.44921875 -91.42454482 48.44921875 -89.0625 48.44921875 C-89.14951172 46.74378906 -89.14951172 46.74378906 -89.23828125 45.00390625 C-89.77247152 26.71933638 -84.58288382 11.15549652 -70.25 -0.98828125 C-48.88947983 -16.70138551 -20.78846158 -17.31487935 0 0 Z " transform="translate(341.0625,19.55078125)" style="fill: #090805;"/><path d="M0 0 C1.5402005 1.28971807 3.06048427 2.60350637 4.5625 3.9375 C5.73425781 4.95070312 5.73425781 4.95070312 6.9296875 5.984375 C27.74830927 25.27319389 41.98587827 56.18770202 46.5625 83.9375 C46.86800781 85.64873047 46.86800781 85.64873047 47.1796875 87.39453125 C53.17095569 125.27083629 42.7186442 160.13186923 16.5625 187.9375 C15.510625 189.113125 14.45875 190.28875 13.375 191.5 C-2.25508475 205.59269936 -17.50644 210.61693471 -38.4375 208.9375 C-40.0875 208.2775 -41.7375 207.6175 -43.4375 206.9375 C-43.4375 204.9375 -43.4375 204.9375 -39.4375 200.9375 C-34.08147164 190.22544328 -38.05111488 177.82667926 -43 167.6875 C-48.12008813 160.61246913 -54.62569896 156.11297708 -63.671875 155.83984375 C-65.41210938 155.85724609 -65.41210938 155.85724609 -67.1875 155.875 C-68.35796875 155.88402344 -69.5284375 155.89304687 -70.734375 155.90234375 C-71.62640625 155.91394531 -72.5184375 155.92554688 -73.4375 155.9375 C-72.12307084 140.07672143 -61.48449878 127.4066785 -52.4375 114.9375 C-44.29218996 103.1348146 -38.12197734 91.34175468 -42.34375 76.8203125 C-44.35913124 71.59838674 -44.35913124 71.59838674 -48.4375 67.9375 C-47.798125 69.175 -47.15875 70.4125 -46.5 71.6875 C-44.08410932 76.66569898 -43.28407253 80.48589539 -43.25 85.9375 C-43.23582031 86.96875 -43.22164063 88 -43.20703125 89.0625 C-43.4375 91.9375 -43.4375 91.9375 -45.4375 95.9375 C-48.86784721 92.50715279 -49.59577568 90.14263913 -51.0625 85.5625 C-51.70058594 83.60183594 -51.70058594 83.60183594 -52.3515625 81.6015625 C-59.37505042 57.90360686 -54.22540605 26.69071041 -40.2890625 6.27734375 C-29.36317543 -7.52984266 -14.63757643 -10.10198936 0 0 Z " transform="translate(391.4375,210.0625)" style="fill: #FDFDFD;"/><path d="M0 0 C-2.90866929 1.93911286 -5.80640948 3.45187119 -8.9375 5 C-9.97777344 5.515625 -11.01804687 6.03125 -12.08984375 6.5625 C-13.05019531 7.036875 -14.01054687 7.51125 -15 8 C-19.33333333 9.66666667 -19.33333333 9.66666667 -21 14 C-22.28384686 16.0258103 -23.57645479 18.04607979 -24.875 20.0625 C-38.31836735 41.94139805 -41.31133181 73.77120848 -33 98 C-31.17285748 102.4297065 -29.18926636 106.73822815 -27 111 C-29.15378364 116.38445911 -32.15120656 120.43801941 -35.625 125 C-46.0940527 138.9841116 -55.18556728 152.73467297 -59 170 C-62.66210938 172.49023438 -62.66210938 172.49023438 -66.32421875 174.98046875 C-69.14869746 177.11222859 -71.55393222 179.44815632 -74 182 C-75.34578125 182.03867187 -75.34578125 182.03867187 -76.71875 182.078125 C-89.23380958 182.64699134 -102.91239167 183.89035409 -113 192 C-114.485 194.475 -114.485 194.475 -116 197 C-124.25 197 -132.5 197 -141 197 C-142.98 194.36 -144.96 191.72 -147 189 C-152.80065711 185.05852786 -158.43710324 182.37574076 -165 180 C-165.85043347 119.79912306 -165.85043347 119.79912306 -161 90 C-160.77022461 88.5879126 -160.54044922 87.1758252 -160.30371094 85.72094727 C-155.50955071 57.43194608 -146.96042068 28.49583765 -127 7 C-126.34 7 -125.68 7 -125 7 C-125 7.66 -125 8.32 -125 9 C-123.68 9.66 -122.36 10.32 -121 11 C-119.68 12.32 -118.36 13.64 -117 15 C-117.598125 16.711875 -118.19625 18.42375 -118.8125 20.1875 C-122.74108722 32.95191329 -124.59768654 46.65166719 -124 60 C-116.95403862 67.04596138 -110.22851465 65.07590151 -100.5 65.125 C-98.77394531 65.14175781 -97.04789062 65.15851563 -95.26953125 65.17578125 C-76.32599918 65.27974673 -76.32599918 65.27974673 -58 61 C-56.21711815 55.82964262 -54.62025331 50.65040967 -53.1875 45.375 C-45.17638179 17.33608627 -32.67011332 -11.63450776 0 0 Z " transform="translate(371,199)" style="fill: #F5CB15;"/><path d="M0 0 C1.65 1.65 3.3 3.3 5 5 C39.72748603 29.96849145 85.64032648 31.21930645 126.75 31.3125 C127.96246399 31.31644775 129.17492798 31.32039551 130.4241333 31.32446289 C144.41141632 31.34624588 158.12898261 31.02225403 172 29 C173.05058594 28.84877686 174.10117188 28.69755371 175.18359375 28.54174805 C187.12857698 26.69651248 198.6101115 24.03083716 210 20 C211.72476563 19.41412109 211.72476563 19.41412109 213.484375 18.81640625 C223.65113722 15.1768963 231.76172209 9.91395297 240 3 C240.14705032 9.00168673 240.28910939 15.00347247 240.42724609 21.00537109 C240.49726078 24.00754424 240.57082379 27.009634 240.64453125 30.01171875 C241.01718012 46.35503366 241 62.63911112 241 79 C161.47 79 81.94 79 0 79 C0 52.93 0 26.86 0 0 Z " transform="translate(30,446)" style="fill: #FEFEFD;"/><path d="M0 0 C7.76956667 5.82717501 10.79996214 11.69918593 11.25 21.375 C10.94211073 28.30250862 9.82068214 31.17931786 5 36 C3.02 36.33 1.04 36.66 -1 37 C-1 37.99 -1 38.98 -1 40 C1.64 39.34 4.28 38.68 7 38 C7.48830268 40.24803496 7.96506292 42.49857736 8.4375 44.75 C8.70433594 46.00296875 8.97117187 47.2559375 9.24609375 48.546875 C13.1214036 71.43730622 -4.09245714 88.88714825 -19.1875 105.15625 C-24.5586667 110.58709633 -29.83564372 115.13425749 -37 118 C-37.96087136 116.10545176 -38.91858969 114.20930419 -39.875 112.3125 C-40.40867187 111.25675781 -40.94234375 110.20101562 -41.4921875 109.11328125 C-43.76136529 104.4279582 -45 101.26785234 -45 96 C-45.99 96.495 -45.99 96.495 -47 97 C-46.40093719 105.58656689 -43.1356309 114.15249213 -38 121 C-14.4599073 116.29198146 3.60235111 84.50397294 13 65 C17.59265405 64.92215841 21.46762683 65.09352537 26 66 C25.319375 66.66 24.63875 67.32 23.9375 68 C22.968125 68.99 21.99875 69.98 21 71 C19.9275 72.093125 18.855 73.18625 17.75 74.3125 C5.28907665 88.728078 -2.12918894 108.76237121 -6.125 127.1875 C-7 131 -7 131 -9 133 C-21.65358417 135.21440844 -34.12139987 135.23385939 -46.9375 135.125 C-48.98892789 135.11494319 -51.04036059 135.10582215 -53.09179688 135.09765625 C-58.06132335 135.07427024 -63.0305973 135.04149415 -68 135 C-73.98375281 123.03249438 -67.16137114 100.73809732 -63 89 C-58 90 -58 90 -54.734375 91.0390625 C-41.16625768 94.53043997 -27.2075933 92.48142196 -16 84 C-15.505 82.515 -15.505 82.515 -15 81 C-15.78503906 81.40992188 -16.57007813 81.81984375 -17.37890625 82.2421875 C-18.42949219 82.78101563 -19.48007812 83.31984375 -20.5625 83.875 C-21.59503906 84.40867187 -22.62757813 84.94234375 -23.69140625 85.4921875 C-34.31780579 90.33491503 -46.16416489 90.5607466 -57.375 87.5625 C-73.83295109 78.44390548 -84.77324 66.06794778 -88.57421875 47.140625 C-89.02060302 43.84802913 -89.13277918 40.69670973 -89.125 37.375 C-89.12757813 36.26898438 -89.13015625 35.16296875 -89.1328125 34.0234375 C-89 31 -89 31 -88 27 C-84.5625 28.375 -81.125 29.75 -77.6875 31.125 C-56.83081958 37.41285018 -36.86907056 32.324181 -19 21 C-18.01 20.505 -18.01 20.505 -17 20 C-16.34 20.33 -15.68 20.66 -15 21 C-15.0825 19.164375 -15.165 17.32875 -15.25 15.4375 C-15.25654906 9.89044841 -14.43711883 6.51735618 -11 2 C-7.14369801 -0.57086799 -4.54634533 -0.1490605 0 0 Z " transform="translate(319,126)" style="fill: #FCFCFB;"/><path d="M0 0 C0.99 0.495 0.99 0.495 2 1 C1.39414063 1.65742188 0.78828125 2.31484375 0.1640625 2.9921875 C-17.87960231 23.47868693 -26.54796127 49.54609758 -32.10546875 75.84375 C-32.6655663 78.44612463 -33.28325919 81.03749298 -33.984375 83.60546875 C-39.43441 107.18735097 -39.74638841 131.91783058 -40 156 C-47.63999616 157.57234338 -54.71000781 158.25656204 -62.546875 158.265625 C-63.60231506 158.26753845 -64.65775513 158.2694519 -65.74517822 158.27142334 C-67.95691163 158.27277418 -70.16865327 158.26915545 -72.38037109 158.26074219 C-75.75506376 158.24998386 -79.12922939 158.26069732 -82.50390625 158.2734375 C-84.66406367 158.27211655 -86.82422076 158.26955549 -88.984375 158.265625 C-90.93053711 158.26336914 -92.87669922 158.26111328 -94.88183594 158.25878906 C-99.32764373 158.03399626 -102.82469883 157.46041274 -107 156 C-107.15855469 154.865625 -107.31710938 153.73125 -107.48046875 152.5625 C-109.23753365 141.0294932 -109.23753365 141.0294932 -115 131 C-113.89235292 127.67705876 -112.76981479 124.46880337 -111.375 121.25 C-107.64816786 107.02027728 -109.18978311 92.45915552 -117 80 C-120.9 75.3 -120.9 75.3 -128 75 C-117.56419702 62.47703643 -99.44546895 63.6628459 -84.6875 63.609375 C-67.53170625 63.3213113 -59.16112821 54.94990167 -48.875 41.875 C-35.37056896 24.96382501 -18.9692626 10.40996118 0 0 Z " transform="translate(240,204)" style="fill: #FDFDFB;"/><path d="M0 0 C7.92075283 11.63865723 6.51438078 25.1888478 6.58984375 38.71289062 C6.61175781 40.26814453 6.63367188 41.82339844 6.65625 43.42578125 C6.66333984 44.83255127 6.67042969 46.23932129 6.67773438 47.6887207 C7.07667849 51.64044444 8.05676609 54.10585988 10.0625 57.5 C10.0625 56.51 10.0625 55.52 10.0625 54.5 C13.0625 54.5 13.0625 54.5 15.375 57.375 C17.88275207 60.57456275 17.88275207 60.57456275 21.0625 62.5 C26.96292053 61.90995795 31.7742768 60.7882232 36.0625 56.5 C36.0625 54.52 36.0625 52.54 36.0625 50.5 C38.31223447 50.445862 40.56234383 50.40714509 42.8125 50.375 C44.06546875 50.35179687 45.3184375 50.32859375 46.609375 50.3046875 C50.0625 50.5 50.0625 50.5 54.0625 52.5 C53.4025 53.82 52.7425 55.14 52.0625 56.5 C52.0625 62.57698718 52.84566176 62.55817295 57.0625 66.5 C61.69571447 69.35879191 63.30648428 69.5 69.0625 69.5 C73.3833657 67.11266977 73.3833657 67.11266977 77.0625 64.5 C82.53689432 65.59487886 86.26752838 67.70889712 91.0625 70.5 C91.0625 71.16 91.0625 71.82 91.0625 72.5 C72.87165447 78.71690882 56.45120579 83.72285869 37.0625 83.5 C35.86625 82.406875 34.67 81.31375 33.4375 80.1875 C27.43714878 75.13006111 24.96451667 73.5 17.0625 73.5 C18.795 74.056875 18.795 74.056875 20.5625 74.625 C25.56394824 76.70893676 31.52779792 79.43059584 34.0625 84.5 C24.39583333 84.5 14.72916667 84.5 5.0625 84.5 C4.7325 85.16 4.4025 85.82 4.0625 86.5 C53.34480207 87.82844224 53.34480207 87.82844224 99.0625 71.5 C98.27073281 80.20943906 96.77285399 88.46068141 90.0625 94.5 C85.86532904 96.87205554 81.54180377 98.72736073 77.0625 100.5 C76.11890625 100.88285156 75.1753125 101.26570313 74.203125 101.66015625 C47.48680902 111.15527936 12.41741019 110.3830679 -14.9375 104.5 C-16.00097656 104.27183594 -17.06445312 104.04367187 -18.16015625 103.80859375 C-28.18401773 101.34139859 -41.82529837 97.69986944 -46.24609375 87.47265625 C-48.12758281 81.789127 -49.49920189 76.53829533 -48.9375 70.5 C-47.2875 71.16 -45.6375 71.82 -43.9375 72.5 C-45.113125 71.324375 -45.113125 71.324375 -46.3125 70.125 C-50.9375 65.5 -50.9375 65.5 -50.9375 57.5 C-40.20644 43.02554698 -21.12285133 39.45474174 -3.9375 38.5 C-3.9375 42.79 -3.9375 47.08 -3.9375 51.5 C-3.2775 51.5 -2.6175 51.5 -1.9375 51.5 C-2.05269055 48.20797546 -2.18011448 44.91637791 -2.3125 41.625 C-2.38210937 39.79195313 -2.45171875 37.95890625 -2.5234375 36.0703125 C-2.92047237 30.72906983 -3.77184553 25.72175297 -4.9375 20.5 C-9.54282389 19.04685336 -9.54282389 19.04685336 -11.9375 20.5 C-29.92870452 21.39956023 -44.60205074 12.98900244 -57.9375 1.5 C-55.47544633 -3.42410735 -42.32449423 -4.39948202 -37.125 -5.75 C-24.52197358 -7.5721243 -10.04157479 -8.92584426 0 0 Z " transform="translate(124.9375,337.5)" style="fill: #F9F9F7;"/><path d="M0 0 C0.37511719 1.53011719 0.75023437 3.06023437 1.13671875 4.63671875 C1.65273641 6.65387869 2.16971402 8.67079324 2.6875 10.6875 C3.05391602 12.19860352 3.05391602 12.19860352 3.42773438 13.74023438 C6.42992479 25.25496469 13.09067004 29.39989482 23.6875 34.0625 C32.51671909 37.09984974 41.82611959 38.41612149 51 40 C52.16144531 40.22945313 53.32289062 40.45890625 54.51953125 40.6953125 C82.30962966 45.6590785 125.92216021 44.62474648 148 25 C151.15720543 21.59354152 152.21797209 19.45506978 154 15 C164.24390134 8.46133957 174.22546734 8.73994897 186 9 C185.938125 10.69125 185.87625 12.3825 185.8125 14.125 C186.05659665 21.77336164 186.92495389 24.44371542 193 29 C194.32 29.33 195.64 29.66 197 30 C195.69414439 37.83513368 192.32318297 40.97925216 185.7109375 45 C163.89371394 56.37517155 140.15562569 61.57423766 116 65 C113.58107422 65.34611328 113.58107422 65.34611328 111.11328125 65.69921875 C67.09116931 70.88478081 3.16812276 71.22135331 -34 43 C-42.87836798 33.6543495 -42.87836798 33.6543495 -42 26 C-35.5607075 12.70597677 -14.88412111 0 0 0 Z " transform="translate(72,407)" style="fill: #FBFBF9;"/><path d="M0 0 C0.18484941 8.20868305 -0.48746539 15.9485976 -1.6875 24.0625 C-1.86611572 25.3105542 -2.04473145 26.5586084 -2.22875977 27.84448242 C-2.81133848 31.89749779 -3.40540608 35.94873146 -4 40 C-4.40142616 42.77598609 -4.80246461 45.55202828 -5.203125 48.328125 C-6.23779914 55.46605642 -7.29503385 62.6004192 -8.36328125 69.73339844 C-8.78378899 72.55118727 -9.20052969 75.36954116 -9.61328125 78.18847656 C-10.21181184 82.27296519 -10.82331213 86.35533972 -11.4375 90.4375 C-11.60628662 91.60579346 -11.77507324 92.77408691 -11.94897461 93.9777832 C-13.96775094 107.1903635 -17.07747399 119.84863296 -20 133 C-40.13 133 -60.26 133 -81 133 C-78 106 -78 106 -76.4375 93.1875 C-75.50363623 85.52404057 -74.70372413 77.88218962 -74.0625 70.1875 C-72.93121428 57.04718128 -70.9603348 44.03717802 -69 31 C-67.57429688 31.05800781 -66.14859375 31.11601562 -64.6796875 31.17578125 C-37.73925752 31.81031358 -16.76264762 0 0 0 Z " transform="translate(420,392)" style="fill: #FDFDFC;"/><path d="M0 0 C0.34843899 9.99172358 -0.82760385 19.74504988 -1.96566772 29.6635437 C-2.55483065 34.80032898 -3.12495245 39.9392232 -3.6953125 45.078125 C-3.80898666 46.09909775 -3.92266083 47.1200705 -4.03977966 48.17198181 C-5.16122793 58.3155076 -6.12214988 68.47117469 -7.01098633 78.63745117 C-7.76974856 87.15179244 -8.86707649 95.50307364 -10 104 C-31.12 104 -52.24 104 -74 104 C-73.67 75.29 -73.34 46.58 -73 17 C-68.05 16.67 -63.1 16.34 -58 16 C-51.66054757 14.5736232 -46.33966248 12.19235441 -40.5625 9.3125 C-35.54320234 6.88315993 -33.25948485 5.99701742 -27.5625 6.0625 C-16.80431076 5.94162147 -10.196193 -3.398731 0 0 Z " transform="translate(347,421)" style="fill: #FCCB1A;"/><path d="M0 0 C0.87140625 0.45890625 1.7428125 0.9178125 2.640625 1.390625 C41.32332983 21.318079 101.26405539 23.38528781 141 5 C143.35927346 3.71312357 145.70441036 2.39731543 148 1 C147.20823281 9.70943906 145.71035399 17.96068141 139 24 C134.80282904 26.37205554 130.47930377 28.22736073 126 30 C125.05640625 30.38285156 124.1128125 30.76570313 123.140625 31.16015625 C96.42430902 40.65527936 61.35491019 39.8830679 34 34 C32.93652344 33.77183594 31.87304688 33.54367187 30.77734375 33.30859375 C20.75348227 30.84139859 7.11220163 27.19986944 2.69140625 16.97265625 C0.76168956 11.14344287 -0.19482312 6.16420346 0 0 Z " transform="translate(76,408)" style="fill: #FCFCFA;"/><path d="M0 0 C19.79308017 10.47366013 34.48855753 25.53180257 44.4921875 45.5390625 C44.4921875 46.5290625 44.4921875 47.5190625 44.4921875 48.5390625 C43.3578125 48.22195313 42.2234375 47.90484375 41.0546875 47.578125 C36.45851839 46.53139471 32.19516269 46.13451446 27.4921875 45.9140625 C25.9865625 45.83929688 24.4809375 45.76453125 22.9296875 45.6875 C21.7953125 45.63851562 20.6609375 45.58953125 19.4921875 45.5390625 C18.1721875 44.2190625 16.8521875 42.8990625 15.4921875 41.5390625 C2.37754774 39.73316214 2.37754774 39.73316214 -0.7578125 44.2890625 C-6.76707176 51.39091435 -6.76707176 51.39091435 -12.5078125 52.5390625 C-24.45630336 41.45955279 -35.73961609 26.719421 -35.5703125 9.7890625 C-35.56128906 8.61859375 -35.55226562 7.448125 -35.54296875 6.2421875 C-35.5078125 3.5390625 -35.5078125 3.5390625 -32.5078125 0.5390625 C-31.5178125 1.1990625 -30.5278125 1.8590625 -29.5078125 2.5390625 C-17.83599181 3.79602781 -11.39425809 -4.74549279 0 0 Z " transform="translate(76.5078125,283.4609375)" style="fill: #FCFCFB;"/><path d="M0 0 C2.03800781 -0.03673828 2.03800781 -0.03673828 4.1171875 -0.07421875 C16.194205 -0.10932636 24.48973527 1.71437313 32.625 11.375 C34.5949888 16.299972 34.80095603 19.18429719 34.625 24.375 C26.74542545 36.19436183 16.5609643 40.73242615 3.625 45.375 C2.19414062 45.94347656 2.19414062 45.94347656 0.734375 46.5234375 C-3.36313093 47.64561877 -7.13103094 47.67689008 -11.375 47.6875 C-12.921875 47.70425781 -14.46875 47.72101563 -16.0625 47.73828125 C-21.29241557 47.29771771 -24.65786923 46.09213077 -28.375 42.375 C-28.375 30.96877013 -27.30703217 25.45038777 -18.859375 18.22265625 C-14.8170303 15.36033732 -10.98058044 13.21723218 -6.375 11.375 C-6.375 10.715 -6.375 10.055 -6.375 9.375 C-7.695 9.705 -9.015 10.035 -10.375 10.375 C-14.13190081 10.4455124 -17.86912647 10.46848119 -21.625 10.4375 C-23.171875 10.43073242 -23.171875 10.43073242 -24.75 10.42382812 C-27.29169154 10.41206103 -29.83335318 10.3941261 -32.375 10.375 C-26.56031982 -1.25436035 -11.21851905 0.01058351 0 0 Z " transform="translate(290.375,385.625)" style="fill: #FCFCFA;"/><path d="M0 0 C10.04533943 7.07739824 11.50501146 18.50444419 13 30 C13.04632953 32.66626418 13.05944268 35.33399593 13 38 C14.98 38.495 14.98 38.495 17 39 C17 39.99 17 40.98 17 42 C0.75085448 42.60142244 -15.48843924 43.10116917 -31.75 43.125 C-33.00176025 43.12951172 -34.25352051 43.13402344 -35.54321289 43.13867188 C-43.08678472 43.12649091 -50.49065157 42.7233776 -58 42 C-57.88877419 47.70868721 -57.75847327 53.41679305 -57.625 59.125 C-57.5940625 60.72472656 -57.563125 62.32445312 -57.53125 63.97265625 C-57.29837667 73.48165055 -56.5497014 82.61359722 -55 92 C-55.99 92 -56.98 92 -58 92 C-58.48753366 90.04373287 -58.96451433 88.08483537 -59.4375 86.125 C-59.70433594 85.03445313 -59.97117188 83.94390625 -60.24609375 82.8203125 C-62.17751079 73.03313183 -62.12425949 63.30402592 -62.0625 53.375 C-62.05798828 51.98925781 -62.05347656 50.60351562 -62.04882812 49.17578125 C-62.03713167 45.78380831 -62.02074086 42.39192767 -62 39 C-59.525 38.505 -59.525 38.505 -57 38 C-56.34 36.35 -55.68 34.7 -55 33 C-50 30 -50 30 -47 30 C-46.90203125 29.10539062 -46.8040625 28.21078125 -46.703125 27.2890625 C-45.53736569 17.86249149 -43.82070994 9.76094658 -38 2 C-35 3 -35 3 -29 11 C-29 11.66 -29 12.32 -29 13 C-10.83683629 14.39529164 -10.83683629 14.39529164 -5.5625 6.5625 C-1.125 1.125 -1.125 1.125 0 0 Z " transform="translate(290,297)" style="fill: #18160B;"/><path d="M0 0 C0.22244443 2.89478358 0.42745308 5.79091085 0.625 8.6875 C0.74101563 10.30011719 0.85703125 11.91273438 0.9765625 13.57421875 C1 18 1 18 -1 23 C-1.66 23 -2.32 23 -3 23 C-2.67 21.35 -2.34 19.7 -2 18 C-4.64 18.66 -7.28 19.32 -10 20 C-9.01 21.32 -8.02 22.64 -7 24 C-7 30 -7 30 -16 38 C-24.70644747 38 -26.20453914 36.79546086 -32 31 C-33.98 32.485 -33.98 32.485 -36 34 C-22.52771444 41.85883325 -6.17183449 43.05941652 9 45 C8.67 45.99 8.34 46.98 8 48 C-7.86487863 47.18641648 -28.6104914 44.80933097 -41 34 C-41 33.34 -41 32.68 -41 32 C-42.98 30.35 -44.96 28.7 -47 27 C-47 18.47492071 -45.87349802 16.38728129 -40 11 C-28.56970375 3.9438674 -13.34282747 0 0 0 Z M22.9375 35.0625 C28.50729558 37.19415016 35.19147101 40.38294203 38 46 C33.54162694 46.02685767 29.08341404 46.04676971 24.625 46.0625 C23.35398438 46.07087891 22.08296875 46.07925781 20.7734375 46.08789062 C18.95585937 46.09272461 18.95585937 46.09272461 17.1015625 46.09765625 C15.42054443 46.10551147 15.42054443 46.10551147 13.70556641 46.11352539 C11 46 11 46 9 45 C11.48688922 38.78277695 15.84864055 33.14963317 22.9375 35.0625 Z " transform="translate(121,376)" style="fill: #1F1D13;"/><path d="M0 0 C2.67002384 2.67002384 3.01311983 5.12418463 4.0625 8.75 C12.26088313 33.82318921 32.92696188 50.62468965 56.125 61.375 C61.77285098 63.25761699 67.10824756 64.17789501 73 65 C65.67297963 72.32702037 51.41281668 70.56492814 42 70 C24.63366281 66.80430178 10.86836905 56.07884936 2.6953125 40.67578125 C-3.42018582 27.41614088 -5.71908046 13.82111111 0 0 Z " transform="translate(36,296)" style="fill: #FAF9F6;"/><path d="M0 0 C8.54289391 8.17146374 10.50535184 18.62958356 10 30 C7.98028965 35.90670009 4.55501489 38.0243362 -0.6875 41.1875 C-2.05261719 42.02667969 -3.41773438 42.86585938 -4.82421875 43.73046875 C-15.30120837 49.42469791 -15.30120837 49.42469791 -21 48 C-20.236875 47.2575 -19.47375 46.515 -18.6875 45.75 C-13.47958356 40.42096922 -11.85931838 37.08339082 -11.9375 29.8125 C-11.9684375 26.9353125 -11.9684375 26.9353125 -12 24 C-17.74726803 15.92645681 -22.30510245 11.12562644 -31.875 8.1875 C-33.88207031 7.55908203 -33.88207031 7.55908203 -35.9296875 6.91796875 C-36.94289063 6.61503906 -37.95609375 6.31210937 -39 6 C-39 5.34 -39 4.68 -39 4 C-25.76625411 -4.38758543 -14.44857005 -8.86178963 0 0 Z " transform="translate(341,375)" style="fill: #E3EACA;"/><path d="M0 0 C5.87501291 5.87501291 7.31607261 11.43107271 8.6875 19.5 C8.93886719 20.9334375 9.19023437 22.366875 9.44921875 23.84375 C9.95068488 27.62786319 10.10527719 31.18996837 10 35 C8.35 35 6.7 35 5 35 C4.01 33.35 3.02 31.7 2 30 C-2.65673957 26.85940819 -6.45383479 26.47179379 -12 27 C-17.40869659 29.55945692 -17.40869659 29.55945692 -19 35 C-23.62 35 -28.24 35 -33 35 C-33.99 33.02 -34.98 31.04 -36 29 C-38.31 28.34 -40.62 27.68 -43 27 C-42.28712192 18.56427609 -41.15312123 10.88280306 -38 3 C-34 5 -34 5 -30 11 C-8.84755387 13.70885055 -8.84755387 13.70885055 0 0 Z " transform="translate(290,300)" style="fill: #EBEBEA;"/><path d="M0 0 C69.24748218 -1.42073102 69.24748218 -1.42073102 91 19 C92 21 92 21 92 27 C88.375 31.875 88.375 31.875 85 33 C80.71 30.69 76.42 28.38 72 26 C71.505 22.04 71.505 22.04 71 18 C63.48191165 12.32597106 57.08017918 11.7299552 48 14 C46.78183594 13.69191406 45.56367188 13.38382812 44.30859375 13.06640625 C39.69814761 11.92528948 35.80105748 11.83546388 31.0625 11.9375 C24.94427713 12.01315816 19.06898704 11.89910919 13 11 C11.96875 11.66 10.9375 12.32 9.875 13 C6 15 6 15 0 15 C0 10.05 0 5.1 0 0 Z " transform="translate(134,374)" style="fill: #FAFAF8;"/><path d="M0 0 C0.33 0 0.66 0 1 0 C1.33 6.27 1.66 12.54 2 19 C2.33 19 2.66 19 3 19 C3 23.62 3 28.24 3 33 C8.11822008 31.87225659 11.4270891 30.74374654 16 28 C17.85625 28.165 19.7125 28.33 21.625 28.5 C26.48340961 28.88550424 31.2529718 29.01834118 36.125 28.9375 C42.34149806 28.87477749 47.92990714 29.68754749 54 31 C54.495 30.505 54.495 30.505 55 30 C58.63 30 62.26 30 66 30 C65.67 30.66 65.34 31.32 65 32 C67.31 33.32 69.62 34.64 72 36 C72.495 38.475 72.495 38.475 73 41 C65.31858407 47.5840708 65.31858407 47.5840708 57 48 C52.40049124 46.18610922 49.75571833 45.1335775 47 41 C46.34 41.66 45.68 42.32 45 43 C45 38 45 38 47 34 C43.53287889 32.84429296 40.4585044 32.67164707 36.8125 32.4375 C35.54019531 32.35371094 34.26789063 32.26992188 32.95703125 32.18359375 C31.98121094 32.12300781 31.00539062 32.06242187 30 32 C30.33 33.98 30.66 35.96 31 38 C25.77217635 42.61993718 22.20476937 45 15 45 C7 38 7 38 7 36 C6.01 36 5.02 36 4 36 C4.33 37.65 4.66 39.3 5 41 C0.12290883 36.12290883 -0.24616478 31.87833863 -0.1953125 25.29296875 C-0.18886719 23.82021484 -0.18242187 22.34746094 -0.17578125 20.83007812 C-0.15902344 19.29802734 -0.14226562 17.76597656 -0.125 16.1875 C-0.11597656 14.63611328 -0.10695312 13.08472656 -0.09765625 11.48632812 C-0.07409359 7.65739635 -0.04119349 3.82877609 0 0 Z " transform="translate(131,356)" style="fill: #36301A;"/><path d="M0 0 C9.25051857 6.77733709 13.83114738 16.77901484 15 28 C10.65946526 24.78478908 6.40505142 21.51159608 2.25 18.0625 C-3.13066873 13.71270706 -8.94838372 10.32734916 -15 7 C-15 6.34 -15 5.68 -15 5 C-23.7063597 4.44190002 -28.15616206 5.81661977 -36 10 C-42 10 -42 10 -45 8 C-43.79391979 1.96959895 -42.77086037 1.5990701 -38 -2 C-33.3125 -3.75 -33.3125 -3.75 -29 -5 C-18.55967249 -8.48010917 -8.93316312 -5.80455905 0 0 Z " transform="translate(91,274)" style="fill: #F7F7F7;"/><path d="M0 0 C0 12 0 12 -3 15 C-15 17 -15 17 -18 15 C-24.95587747 15.24406588 -28.06376827 17.16660643 -33 22 C-33 23.98 -33 25.96 -33 28 C-36.465 30.475 -36.465 30.475 -40 33 C-47 27 -47 27 -47 19 C-36.67869609 5.07824124 -16.76982633 0 0 0 Z " transform="translate(121,376)" style="fill: #F9F8F1;"/><path d="M0 0 C5.28 0 10.56 0 16 0 C24.69795154 12.6687555 26.0387623 22.82327813 25 38 C23 43.625 23 43.625 21 47 C18.64577082 43.86102775 16.95624495 41.13241095 15.1875 37.6875 C13.26362527 34.03596662 11.80544369 31.80925852 8.8125 28.875 C4.96034751 23.5675899 4.58017739 18.47876768 3.73828125 12.05859375 C3.02755649 8.15148778 1.88602508 5.45511482 0 2 C0 1.34 0 0.68 0 0 Z " transform="translate(103,282)" style="fill: #E4EACA;"/><path d="M0 0 C-1.051875 1.0209375 -1.051875 1.0209375 -2.125 2.0625 C-7.69548028 7.5561723 -7.69548028 7.5561723 -12 14 C-13.79566406 14.12117188 -15.59132813 14.24234375 -17.44140625 14.3671875 C-19.81513189 14.53606917 -22.18882832 14.7053616 -24.5625 14.875 C-26.33463867 14.99294922 -26.33463867 14.99294922 -28.14257812 15.11328125 C-34.00483598 15.5402244 -39.40626161 16.04506647 -45 18 C-44.45429826 12.30911044 -43.83192951 6.65572246 -43 1 C-38.08344191 0.83002705 -33.16673957 0.66463291 -28.25 0.5 C-26.87199219 0.45230469 -25.49398437 0.40460938 -24.07421875 0.35546875 C-16.0438423 0.08905816 -8.03474572 -0.05037458 0 0 Z " transform="translate(272,399)" style="fill: #FCFCFA;"/><path d="M0 0 C0 3.96 0 7.92 0 12 C-2.77127209 11.69141511 -5.54200769 11.3780091 -8.3125 11.0625 C-9.85550781 10.88847656 -11.39851563 10.71445312 -12.98828125 10.53515625 C-17 10 -17 10 -20 9 C-30.09491866 8.05030382 -40.17961163 7.70943409 -50.3125 7.4375 C-51.82779297 7.39431641 -53.34308594 7.35113281 -54.90429688 7.30664062 C-58.60279567 7.20163593 -62.30134917 7.09947941 -66 7 C-66 5.02 -66 3.04 -66 1 C-64.53820312 1.16113281 -63.07640625 1.32226562 -61.5703125 1.48828125 C-53.67770326 2.20131678 -45.79442618 2.18409818 -37.875 2.1875 C-35.65910156 2.20586914 -35.65910156 2.20586914 -33.3984375 2.22460938 C-24.27374923 2.23657356 -15.42934667 1.63511361 -6.38330078 0.4309082 C-3 0 -3 0 0 0 Z " transform="translate(200,364)" style="fill: #F5C519;"/><path d="M0 0 C3.5331506 3.16765226 6.07398826 6.26404415 8.625 10.25 C5.625 11.25 5.625 11.25 2.94921875 10.2265625 C-11.14954 4.98685194 -24.4101494 3.80696799 -39.375 3.25 C-28.10726735 -8.01773265 -13.38008289 -8.41033782 0 0 Z " transform="translate(317.375,58.75)" style="fill: #E7C015;"/><path d="M0 0 C2.9375 2 2.9375 2 3.9375 7 C-3.74391593 13.5840708 -3.74391593 13.5840708 -12.0625 14 C-16.625 12.0625 -16.625 12.0625 -20.0625 10 C-20.3925 8.02 -20.7225 6.04 -21.0625 4 C-14.5512831 -2.5112169 -8.50024227 -4.18473465 0 0 Z " transform="translate(200.0625,390)" style="fill: #EFC615;"/><path d="M0 0 C8 7 8 7 9 12 C0.57446809 19.11489362 0.57446809 19.11489362 -5 18 C-11.92744479 12.43533123 -11.92744479 12.43533123 -13 6 C-5.92307692 0 -5.92307692 0 0 0 Z " transform="translate(103,392)" style="fill: #EDC515;"/><path d="M0 0 C1.32 1.32 2.64 2.64 4 4 C1 6 1 6 -4 7 C-3.34 7.66 -2.68 8.32 -2 9 C-2.90621094 9.19335938 -3.81242187 9.38671875 -4.74609375 9.5859375 C-11.50359839 11.03039881 -18.2570571 12.48865073 -25 14 C-23 10 -23 10 -20 7 C-13.94915254 0 -13.94915254 0 0 0 Z " transform="translate(92,324)" style="fill: #211F13;"/><path d="M0 0 C8.4950495 5.99009901 8.4950495 5.99009901 10 9 C1.42 9 -7.16 9 -16 9 C-12.75438634 0.88596585 -8.45168288 -1.95038836 0 0 Z " transform="translate(149,413)" style="fill: #F1C816;"/><path d="M0 0 C1.32 0.66 2.64 1.32 4 2 C4 3.65 4 5.3 4 7 C-4 11 -4 11 -10 10 C-11.32 8.68 -12.64 7.36 -14 6 C-12.06359704 -1.74561183 -6.50658432 -1.08443072 0 0 Z " transform="translate(155,387)" style="fill: #EEC515;"/><path d="M0 0 C0.33 0 0.66 0 1 0 C1.33 9.24 1.66 18.48 2 28 C2.66 27.34 3.32 26.68 4 26 C4.02898276 31.41665547 4.04679289 36.83329104 4.0625 42.25 C4.07087891 43.79042969 4.07925781 45.33085937 4.08789062 46.91796875 C4.09111328 48.39394531 4.09433594 49.86992187 4.09765625 51.390625 C4.10289307 52.75219727 4.10812988 54.11376953 4.11352539 55.51660156 C4 59 4 59 3 63 C2.34 63 1.68 63 1 63 C0.14928119 41.99028359 -0.13068511 21.02622815 0 0 Z " transform="translate(270,462)" style="fill: #615C4B;"/><path d="M0 0 C-1.12261558 3.64850063 -2.44826763 6.96445459 -4.0625 10.4375 C-5.7820343 14.48672594 -6.63025605 17.65550864 -7 22 C-7.66 22 -8.32 22 -9 22 C-11.1700129 16.57496775 -11.15407154 12.77768288 -11 7 C-2.95744681 0 -2.95744681 0 0 0 Z " transform="translate(39,284)" style="fill: #F2F2EF;"/><path d="M0 0 C2 2 2 2 2 5 C-2.71134982 8.14089988 -7.67395468 6.33151133 -13 5 C-13.99 5 -14.98 5 -16 5 C-12.64209333 -1.71581335 -6.86786154 -1.4016044 0 0 Z " transform="translate(252,330)" style="fill: #EFEEEB;"/><path d="M0 0 C0.99 0.99 1.98 1.98 3 3 C0.99399259 5.00600741 -2.64566492 5.03322401 -5.3125 5.5625 C-6.64925781 5.83191406 -7.98601562 6.10132813 -9.36328125 6.37890625 C-13 7 -13 7 -17 7 C-13.42738055 -1.93154863 -8.6239309 -0.18546088 0 0 Z " transform="translate(91,326)" style="fill: #E3BD15;"/><path d="M0 0 C1.65 1.65 3.3 3.3 5 5 C-1.04561209 5.76769677 -6.90655902 6.09672129 -13 6 C-11.2074687 -2.96265651 -11.78562256 0 0 0 Z " transform="translate(288,330)" style="fill: #F6F6F5;"/><path d="M0 0 C-0.33 0.66 -0.66 1.32 -1 2 C-21.93166287 5.44419134 -21.93166287 5.44419134 -32 5 C-31.67 4.34 -31.34 3.68 -31 3 C-27.33412328 2.49353019 -23.66747562 1.99464131 -20 1.5 C-18.97003906 1.35691406 -17.94007812 1.21382813 -16.87890625 1.06640625 C-11.20964859 0.3080979 -5.71947184 -0.16498476 0 0 Z " transform="translate(73,434)" style="fill: #373737;"/><path d="M0 0 C4.41705084 0.47582052 8.83362192 0.9555095 13.25 1.4375 C14.50425781 1.57220703 15.75851563 1.70691406 17.05078125 1.84570312 C18.25605469 1.97783203 19.46132812 2.10996094 20.703125 2.24609375 C21.81333008 2.36654053 22.92353516 2.4869873 24.06738281 2.61108398 C27 3 27 3 31 4 C31 4.66 31 5.32 31 6 C20.46787597 5.44567768 10.35348848 3.99298386 0 2 C0 1.34 0 0.68 0 0 Z " transform="translate(221,437)" style="fill: #323232;"/><path d="M0 0 C-2.24831732 5.62079331 -2.90182138 6.1872118 -8 9 C-13.375 9.25 -13.375 9.25 -18 9 C-18 8.01 -18 7.02 -18 6 C-14.7 5.67 -11.4 5.34 -8 5 C-2 0 -2 0 0 0 Z " transform="translate(281,195)" style="fill: #353530;"/><path d="M0 0 C0.66 0.33 1.32 0.66 2 1 C-4.42437848 6.16056632 -10.99613649 10.65583149 -18 15 C-15.4701455 9.940291 -12.55890578 8.37260385 -7.875 5.25 C-6.40804687 4.26515625 -4.94109375 3.2803125 -3.4296875 2.265625 C-1.73199219 1.14414062 -1.73199219 1.14414062 0 0 Z " transform="translate(101,449)" style="fill: #202020;"/><path d="M0 0 C4.57770167 1.83108067 7.45562376 3.65817212 11.3125 6.625 C12.38113281 7.44226563 13.44976562 8.25953125 14.55078125 9.1015625 C15.76314453 10.04128906 15.76314453 10.04128906 17 11 C16.67 11.66 16.34 12.32 16 13 C10.72 9.37 5.44 5.74 0 2 C0 1.34 0 0.68 0 0 Z " transform="translate(187,451)" style="fill: #282828;"/><path d="M0 0 C1.32 0.33 2.64 0.66 4 1 C4.33 2.32 4.66 3.64 5 5 C3.68 6.32 2.36 7.64 1 9 C-0.32 8.67 -1.64 8.34 -3 8 C-2.67 6.35 -2.34 4.7 -2 3 C-1.34 3 -0.68 3 0 3 C0 3.66 0 4.32 0 5 C0.66 5.33 1.32 5.66 2 6 C2 5.01 2 4.02 2 3 C1.34 2.67 0.68 2.34 0 2 C0 1.34 0 0.68 0 0 Z " transform="translate(94,340)" style="fill: #383733;"/><path d="M0 0 C0.66 0 1.32 0 2 0 C2.4125 1.2375 2.825 2.475 3.25 3.75 C4.81730769 8.33012821 4.81730769 8.33012821 9 12 C4 12 4 12 1 9 C0.67 6.03 0.34 3.06 0 0 Z " transform="translate(257,184)" style="fill: #282720;"/><path d="M0 0 C1.32 0 2.64 0 4 0 C5 2 5 2 5 8 C1 7 1 7 0 6 C0 4.02 0 2.04 0 0 Z " transform="translate(239,174)" style="fill: #0E0E0D;"/><path d="M0 0 C4 1 4 1 5 2 C5 3.98 5 5.96 5 8 C1 7 1 7 0 6 C0 4.02 0 2.04 0 0 Z " transform="translate(268,167)" style="fill: #0A0A0A;"/><path d="M0 0 C0.66 0 1.32 0 2 0 C2.33 2.31 2.66 4.62 3 7 C1.35 7 -0.3 7 -2 7 C-2.33 6.01 -2.66 5.02 -3 4 C-2.01 2.68 -1.02 1.36 0 0 Z " transform="translate(290,306)" style="fill: #252524;"/><path d="M0 0 C0.99 0.33 1.98 0.66 3 1 C2.67 2.65 2.34 4.3 2 6 C0.35 6.33 -1.3 6.66 -3 7 C-2 2 -2 2 0 0 Z " transform="translate(123,404)" style="fill: #66655F;"/><path d="M0 0 C1.65 0.33 3.3 0.66 5 1 C5.33 2.32 5.66 3.64 6 5 C5.01 5.33 4.02 5.66 3 6 C3 5.01 3 4.02 3 3 C2.01 2.67 1.02 2.34 0 2 C0.33 3.32 0.66 4.64 1 6 C0.34 6 -0.32 6 -1 6 C-1.33 4.68 -1.66 3.36 -2 2 C-1.34 1.34 -0.68 0.68 0 0 Z " transform="translate(164,396)" style="fill: #282823;"/><path d="M0 0 C2.475 0.495 2.475 0.495 5 1 C5.33 2.65 5.66 4.3 6 6 C4.68 6 3.36 6 2 6 C2.33 5.01 2.66 4.02 3 3 C2.34 2.67 1.68 2.34 1 2 C0.67 2.66 0.34 3.32 0 4 C0 2.68 0 1.36 0 0 Z " transform="translate(119,346)" style="fill: #3E3E3E;"/><path d="M0 0 C0.33 0.66 0.66 1.32 1 2 C-2.96 2.66 -6.92 3.32 -11 4 C-11 3.34 -11 2.68 -11 2 C-6 0 -6 0 0 0 Z " transform="translate(244,163)" style="fill: #2A2926;"/><path d="M0 0 C8 1 8 1 10 4 C6.37 3.67 2.74 3.34 -1 3 C-0.67 2.01 -0.34 1.02 0 0 Z " transform="translate(112,419)" style="fill: #4E4B36;"/><path d="M0 0 C0.33 1.32 0.66 2.64 1 4 C0.34 4 -0.32 4 -1 4 C-1.33 5.65 -1.66 7.3 -2 9 C-2.99 8.67 -3.98 8.34 -5 8 C-4.67 6.02 -4.34 4.04 -4 2 C-2.68 1.34 -1.36 0.68 0 0 Z " transform="translate(37,294)" style="fill: #474640;"/><path d="M0 0 C0.99 0.33 1.98 0.66 3 1 C4 9 4 9 2 11 C1.34 7.37 0.68 3.74 0 0 Z " transform="translate(128,342)" style="fill: #2E270C;"/></svg>