<?xml version="1.0" encoding="UTF-8" standalone="no"?>
<!-- Created with Inkscape (http://www.inkscape.org/) -->

<svg
   version="1.1"
   id="svg2"
   xml:space="preserve"
   width="2800"
   height="2800"
   viewBox="0 0 2800 2800"
   sodipodi:docname="vecteezy_girl-with-hand-on-chin-feeling-confused-with-question-mark_5631397.eps"
   xmlns:inkscape="http://www.inkscape.org/namespaces/inkscape"
   xmlns:sodipodi="http://sodipodi.sourceforge.net/DTD/sodipodi-0.dtd"
   xmlns="http://www.w3.org/2000/svg"
   xmlns:svg="http://www.w3.org/2000/svg"><defs
     id="defs6" /><sodipodi:namedview
     id="namedview4"
     pagecolor="#ffffff"
     bordercolor="#666666"
     borderopacity="1.0"
     inkscape:pageshadow="2"
     inkscape:pageopacity="0.0"
     inkscape:pagecheckerboard="0" /><g
     id="g8"
     inkscape:groupmode="layer"
     inkscape:label="ink_ext_XXXXXX"
     transform="matrix(1.3333333,0,0,-1.3333333,0,2800)"><g
       id="g10"
       transform="scale(0.1)"><path
         d="m 17872.4,16554.4 c -692.8,917.5 -1998.2,1099.7 -2915.8,406.9 -690.7,-521.6 -964.6,-1390.2 -762.4,-2179.2 l -740.5,-583.7 1096,-153 c 692.9,-917.5 1998.3,-1099.6 2915.9,-406.8 917.5,692.8 1099.7,1998.3 406.8,2915.8"
         style="fill:#f0f2f5;fill-opacity:1;fill-rule:nonzero;stroke:none"
         id="path12" /><path
         d="m 15762,14522.2 c -23.1,34.2 -30.6,72 -22.6,113.3 8.1,41.4 29.2,73.6 63.4,96.7 34.1,23 71.9,30.6 113.3,22.5 39.7,-7.7 70.7,-28.6 93,-62.6 22.3,-34 29.4,-71.7 21.4,-113.1 -8,-41.3 -28.8,-73.6 -62.1,-96.8 -33.4,-23.3 -70,-31 -109.7,-23.3 -41.4,8 -73.6,29.1 -96.7,63.3 z m 932.4,1398.4 c 79.7,-107.9 105,-236.6 76,-386.1 -32.4,-167 -108.1,-280.6 -227,-340.8 -119,-60.3 -266.7,-73.3 -443.3,-39 l -51.1,-225.3 -188.5,36.6 63.6,378.8 69.2,-13.4 c 157.5,-30.6 285.3,-30.7 383.7,-0.2 98.3,30.4 160.3,111.6 185.9,243.6 18.5,95.4 4.5,176.5 -41.9,243.3 -46.5,66.8 -118.2,109.6 -215.2,128.4 -98.6,19.2 -181.3,7.5 -248.1,-34.8 -66.8,-42.3 -109.2,-109.6 -127.1,-201.8 l -205.1,39.8 c 18.5,95.4 56.2,175.1 113.2,239.2 57,64 128.7,108.3 215.2,132.8 86.4,24.4 181.3,26.6 284.7,6.6 157.4,-30.6 276,-99.8 355.8,-207.7"
         style="fill:#ffffff;fill-opacity:1;fill-rule:nonzero;stroke:none"
         id="path14" /><path
         d="m 12621.2,20051.6 c -720.6,120.4 -1402.4,-366.2 -1522.8,-1086.9 -90.6,-542.4 162.7,-1062.9 600.9,-1338.4 l -86.4,-592.9 572.4,408.5 c 720.6,-120.4 1402.4,366.2 1522.8,1086.9 120.3,720.6 -366.3,1402.4 -1086.9,1522.8"
         style="fill:#f0f2f5;fill-opacity:1;fill-rule:nonzero;stroke:none"
         id="path16" /><path
         d="m 12117.1,18256.3 c -14.6,21.8 -19.4,45.7 -14.3,72 5.1,26.3 18.5,46.8 40.2,61.4 21.7,14.7 45.7,19.5 72,14.4 25.3,-4.9 45,-18.2 59.2,-39.8 14.1,-21.6 18.6,-45.6 13.5,-71.9 -5.1,-26.3 -18.2,-46.8 -39.4,-61.5 -21.3,-14.8 -44.5,-19.7 -69.8,-14.8 -26.3,5.1 -46.7,18.5 -61.4,40.2 z m 592.5,888.7 c 50.7,-68.6 66.8,-150.4 48.4,-245.4 -20.6,-106.1 -68.8,-178.3 -144.3,-216.6 -75.7,-38.3 -169.5,-46.5 -281.7,-24.8 l -32.5,-143.1 -119.8,23.2 40.5,240.7 43.9,-8.5 c 100.1,-19.4 181.3,-19.4 243.8,-0.1 62.5,19.3 101.9,70.9 118.2,154.8 11.7,60.7 2.9,112.2 -26.7,154.6 -29.5,42.5 -75.1,69.7 -136.7,81.6 -62.7,12.2 -115.2,4.8 -157.7,-22.1 -42.4,-26.9 -69.3,-69.6 -80.7,-128.2 l -130.4,25.3 c 11.8,60.6 35.8,111.3 72,152 36.2,40.6 81.8,68.8 136.7,84.3 54.9,15.6 115.2,17 180.9,4.2 100.1,-19.4 175.4,-63.4 226.1,-131.9"
         style="fill:#ffffff;fill-opacity:1;fill-rule:nonzero;stroke:none"
         id="path18" /><path
         d="m 4022.04,11504.7 c 94.4,658.6 704.76,1115.9 1363.28,1021.5 495.7,-71.1 877.39,-434.5 995.56,-890.8 l 538.3,-88.6 -512.43,-383.9 c -94.41,-658.5 -704.77,-1115.8 -1363.28,-1021.4 -658.53,94.3 -1115.83,704.7 -1021.43,1363.2"
         style="fill:#f0f2f5;fill-opacity:1;fill-rule:nonzero;stroke:none"
         id="path20" /><path
         d="m 5104.61,10861.7 c -16.88,16.8 -25.31,37.4 -25.31,61.8 0,24.4 8.43,45 25.31,61.9 16.87,16.9 37.48,25.3 61.86,25.3 23.43,0 43.35,-8.4 59.77,-25.3 16.39,-16.9 24.6,-37.5 24.6,-61.9 0,-24.4 -8.21,-45 -24.6,-61.8 -16.42,-16.9 -36.34,-25.3 -59.77,-25.3 -24.38,0 -44.99,8.4 -61.86,25.3 z m 375.42,897.1 c 57.17,-52.6 85.78,-122.9 85.78,-211 0,-98.4 -30.48,-171.3 -91.4,-218.6 -60.95,-47.4 -143.42,-71 -247.47,-71 l -4.22,-133.6 h -111.08 l -5.62,222.2 h 40.77 c 92.8,0 165.44,14 217.95,42.1 52.48,28.2 78.74,81.1 78.74,158.9 0,56.3 -16.88,100.8 -50.62,133.6 -33.75,32.8 -79.23,49.2 -136.4,49.2 -58.13,0 -103.82,-15.7 -137.09,-47.1 -33.28,-31.4 -49.91,-74.3 -49.91,-128.6 h -120.93 c 0,56.2 12.66,105.6 37.97,148.3 25.31,42.7 61.16,75.7 107.56,99.1 46.4,23.5 100.06,35.2 161,35.2 92.8,0 167.79,-26.3 224.97,-78.7"
         style="fill:#ffffff;fill-opacity:1;fill-rule:nonzero;stroke:none"
         id="path22" /><path
         d="m 3603.35,17719.6 c 1021.45,647.9 2374.7,345 3022.56,-676.4 487.68,-768.9 436.65,-1725.8 -54.08,-2428.4 l 513.78,-848.5 -1136.14,254.3 c -1021.45,-647.9 -2374.69,-345 -3022.56,676.4 -647.86,1021.5 -345.01,2374.7 676.44,3022.6"
         style="fill:#f0f2f5;fill-opacity:1;fill-rule:nonzero;stroke:none"
         id="path24" /><path
         d="m 4016.93,15895 c 0,-134 -108.6,-242.6 -242.58,-242.6 -133.97,0 -242.58,108.6 -242.58,242.6 0,134 108.61,242.6 242.58,242.6 133.98,0 242.58,-108.6 242.58,-242.6"
         style="fill:#ffffff;fill-opacity:1;fill-rule:nonzero;stroke:none"
         id="path26" /><path
         d="m 5057.92,15895 c 0,-134 -108.61,-242.6 -242.58,-242.6 -133.98,0 -242.58,108.6 -242.58,242.6 0,134 108.6,242.6 242.58,242.6 133.97,0 242.58,-108.6 242.58,-242.6"
         style="fill:#ffffff;fill-opacity:1;fill-rule:nonzero;stroke:none"
         id="path28" /><path
         d="m 6098.9,15895 c 0,-134 -108.61,-242.6 -242.58,-242.6 -133.97,0 -242.57,108.6 -242.57,242.6 0,134 108.6,242.6 242.57,242.6 133.97,0 242.58,-108.6 242.58,-242.6"
         style="fill:#ffffff;fill-opacity:1;fill-rule:nonzero;stroke:none"
         id="path30" /><path
         d="m 8218.26,19438.7 c 498.68,63.2 954.13,-289.9 1017.28,-788.6 47.53,-375.3 -140.78,-726.2 -449.5,-903.7 l 43.28,-410 -382.38,296.5 c -498.68,-63.2 -954.12,289.9 -1017.27,788.6 -63.15,498.6 289.91,954.1 788.59,1017.2"
         style="fill:#f0f2f5;fill-opacity:1;fill-rule:nonzero;stroke:none"
         id="path32" /><path
         d="m 8676.33,18502.2 c 0,-55.7 45.13,-100.8 100.81,-100.8 55.67,0 100.81,45.1 100.81,100.8 0,55.7 -45.14,100.8 -100.81,100.8 -55.68,0 -100.81,-45.1 -100.81,-100.8"
         style="fill:#ffffff;fill-opacity:1;fill-rule:nonzero;stroke:none"
         id="path34" /><path
         d="m 8243.74,18502.2 c 0,-55.7 45.13,-100.8 100.8,-100.8 55.67,0 100.81,45.1 100.81,100.8 0,55.7 -45.14,100.8 -100.81,100.8 -55.67,0 -100.8,-45.1 -100.8,-100.8"
         style="fill:#ffffff;fill-opacity:1;fill-rule:nonzero;stroke:none"
         id="path36" /><path
         d="m 7811.14,18502.2 c 0,-55.7 45.13,-100.8 100.81,-100.8 55.67,0 100.8,45.1 100.8,100.8 0,55.7 -45.13,100.8 -100.8,100.8 -55.68,0 -100.81,-45.1 -100.81,-100.8"
         style="fill:#ffffff;fill-opacity:1;fill-rule:nonzero;stroke:none"
         id="path38" /><path
         d="m 16517.5,10454.9 c 123,735.7 -373.7,1431.9 -1109.4,1554.9 -553.8,92.6 -1085.2,-165.9 -1366.6,-613.3 l -605.3,88.4 417,-584.5 c -123,-735.7 373.7,-1431.9 1109.4,-1554.9 735.7,-123.1 1431.9,373.6 1554.9,1109.4"
         style="fill:#f0f2f5;fill-opacity:1;fill-rule:nonzero;stroke:none"
         id="path40" /><path
         d="m 15735.5,10757.2 c 0,-82.6 67,-149.6 149.6,-149.6 82.6,0 149.6,67 149.6,149.6 0,82.6 -67,149.6 -149.6,149.6 -82.6,0 -149.6,-67 -149.6,-149.6"
         style="fill:#ffffff;fill-opacity:1;fill-rule:nonzero;stroke:none"
         id="path42" /><path
         d="m 15093.5,10757.2 c 0,-82.6 67,-149.6 149.6,-149.6 82.7,0 149.6,67 149.6,149.6 0,82.6 -66.9,149.6 -149.6,149.6 -82.6,0 -149.6,-67 -149.6,-149.6"
         style="fill:#ffffff;fill-opacity:1;fill-rule:nonzero;stroke:none"
         id="path44" /><path
         d="m 14451.6,10757.2 c 0,-82.6 66.9,-149.6 149.6,-149.6 82.6,0 149.6,67 149.6,149.6 0,82.6 -67,149.6 -149.6,149.6 -82.7,0 -149.6,-67 -149.6,-149.6"
         style="fill:#ffffff;fill-opacity:1;fill-rule:nonzero;stroke:none"
         id="path46" /><path
         d="m 15146.4,9205.2 c -165.6,-418.6 -582.9,-1236.8 -1462.6,-1787.5 l 390.7,-4942.8 H 7494.2 l 311.6,3377.4 -37.8,149.4 -423.31,1670.2 c 0,0 -1343.49,271.4 -1677.09,1364.3 -49.9,163.2 -0.6,340.6 126.1,454.9 l 8.9,8.1 c 34.5,31.1 85.4,35.7 124.9,11.4 0,0 -0.4,4.9 -0.4,14 0,70.2 21.9,391.8 402.5,685.4 410.1,316.3 1683.4,618.3 2386.1,618.3 17.9,0 35.3,-0.2 52.4,-0.6 0,0 262.9,271.3 493.3,8 116.7,-133.5 275.2,-223.3 450.1,-252.5 394.7,-65.7 892.6,-100.7 1437.7,26.4 252.8,59 483.5,191.7 657.6,384.3 122.7,135.7 214.7,181.3 282.8,181.3 139,0 178.8,-189.5 178.8,-189.5 699.4,19 2209.9,-80.4 2578.2,-1248.3 22,14.6 47.1,21.7 72,21.7 35.5,0 70.8,-14.5 96.3,-42.4 l 47.3,-51.7 c 113.9,-124.5 146.3,-303 84.2,-459.8"
         style="fill:#f9a21b;fill-opacity:1;fill-rule:nonzero;stroke:none"
         id="path48" /><path
         d="m 8083.1,11471.4 c 0,0 128.19,-435.6 654.86,-178.5 l -36.54,178.5 c 0,0 139.18,-338 402.62,-218.7 0,0 59.65,-139.2 278.36,-84.5 l -94.44,223.6 c 0,0 173.97,-387.7 516.95,-283.3 l 1605.49,139.2 c 0,0 308.2,-99.3 452.4,223.7 0,0 34.8,-193.9 -104.4,-323.1 0,0 238.6,-54.5 313.2,211.3 V 11198 c 0,0 129.2,0 178.9,218.7 l 24.9,-135.7 c 0,0 412.5,66.1 422.5,533.4 0,0 119.3,-463.2 608.6,-70.8 l -133.2,165.8 c 0,0 101.5,-91.3 260.5,-57.5 159,33.8 199.6,148.9 199.6,148.9 0,0 -306.6,90.7 -120.4,453.7 186.2,363 179.7,828.8 -366.2,1282.4 -546,453.5 -1030,569.9 -1030,569.9 0,0 -4365.42,-688.8 -4370.07,-702.8 -4.65,-13.9 -266.13,-1135.5 -266.13,-1135.5 l 602.5,-997.1"
         style="fill:#1b1a2e;fill-opacity:1;fill-rule:nonzero;stroke:none"
         id="path50" /><path
         d="m 11629,11140 v 1728.1 H 9375.32 v -1974.7 c 0,-164.3 -156.72,-283.8 -314.92,-239.5 -15.4,4.3 -30.4,8.6 -45,12.9 v 0 c 0,-631.5 534.83,-1228.1 1186,-1233 1660.3,-12.6 1787.4,1483.9 1787.4,1483.9 -1.2,-0.6 -2.4,-1.1 -3.6,-1.7 -164.6,-80.2 -356.2,40.9 -356.2,224"
         style="fill:#ffc89f;fill-opacity:1;fill-rule:nonzero;stroke:none"
         id="path52" /><path
         d="m 10502.1,11292.2 v 0 c -828.89,0 -1500.86,672 -1500.86,1500.9 v 1833.6 c 0,828.9 671.97,1500.9 1500.86,1500.9 v 0 c 829,0 1500.9,-672 1500.9,-1500.9 v -1833.6 c 0,-828.9 -671.9,-1500.9 -1500.9,-1500.9"
         style="fill:#ffc89f;fill-opacity:1;fill-rule:nonzero;stroke:none"
         id="path54" /><path
         d="m 10502.1,11292.2 c -129.4,-6.9 -260.4,6.1 -387.1,37 -31.9,7.3 -62.9,17.5 -94.3,26.5 -15.9,4.1 -30.88,10.6 -46.31,16 l -46.02,16.9 c -15.56,5.2 -30.06,12.8 -45.06,19.3 l -44.68,20.3 c -15.11,6.3 -29.1,14.9 -43.66,22.3 l -43.29,23.1 -10.78,5.8 -10.38,6.6 -20.76,13 -41.5,26.2 c -14.03,8.4 -26.73,18.8 -40.14,28.1 l -39.68,28.9 c -25.8,20 -50.32,41.7 -75.51,62.4 -24.39,21.7 -47.45,44.9 -70.99,67.5 -91.44,93.1 -169.86,198.8 -229.99,313.7 72.42,-107.4 155.44,-206.6 248.8,-294.5 l 35.92,-32 c 12.06,-10.5 23.43,-21.8 35.94,-31.8 25.23,-19.8 49.74,-40.4 75.47,-59.4 26.4,-18 51.82,-37.5 78.68,-54.8 l 40.79,-25.3 20.39,-12.6 10.2,-6.3 10.57,-5.6 c 110.94,-63.6 229.86,-113.1 353.09,-148.4 123.3,-35.2 251,-55.5 380.3,-62.9"
         style="fill:#ff9a6c;fill-opacity:1;fill-rule:nonzero;stroke:none"
         id="path56" /><path
         d="m 11843.1,12118.2 c -24.3,-64 -56.2,-125.1 -93.1,-183.1 -9.4,-14.4 -18.8,-28.7 -28.6,-42.9 l -30.4,-41.7 c -10.6,-13.6 -21.6,-26.8 -32.4,-40.2 l -33.8,-39 -35.7,-37.4 -37,-35.9 -38.6,-34.2 c -13.2,-11.1 -26.6,-21.8 -40.1,-32.5 -54.2,-42.2 -112.1,-79.6 -173.6,-109.8 53.8,42.3 106.2,85.1 156.4,130.4 12.3,11.6 24.6,23.1 37.1,34.3 l 36.3,35.3 35.4,35.9 34.4,37 33.6,37.7 32.5,38.6 31.7,39.4 c 10.1,13.5 20.4,26.8 30.8,40.2 40.4,54.1 78.1,110.4 115.1,167.9"
         style="fill:#ff9a6c;fill-opacity:1;fill-rule:nonzero;stroke:none"
         id="path58" /><path
         d="m 8948.87,12852.7 h 78.08 c 154.2,0 279.21,125 279.21,279.2 v 498.4 c 0,154.2 -125.01,279.2 -279.21,279.2 h -78.08 c -154.21,0 -279.22,-125 -279.22,-279.2 v -498.4 c 0,-154.2 125.01,-279.2 279.22,-279.2"
         style="fill:#ffc89f;fill-opacity:1;fill-rule:nonzero;stroke:none"
         id="path60" /><path
         d="m 11977.3,12852.7 h 78.1 c 154.2,0 279.2,125 279.2,279.2 v 498.4 c 0,154.2 -125,279.2 -279.2,279.2 h -78.1 c -154.2,0 -279.2,-125 -279.2,-279.2 v -498.4 c 0,-154.2 125,-279.2 279.2,-279.2"
         style="fill:#ffc89f;fill-opacity:1;fill-rule:nonzero;stroke:none"
         id="path62" /><path
         d="m 8926.72,13613.7 c -30.35,-8 -52.72,-29.8 -66.95,-55.2 -14.65,-25.4 -22.93,-54.2 -27.99,-83.2 -4.64,-29.1 -6.57,-58.8 -4.51,-88.3 1.35,-29.4 6.38,-58.6 14.81,-86.4 8.15,-27.9 21.05,-54 38.45,-75.7 8.59,-10.5 19.7,-21.3 28.99,-25.5 4.86,-1.8 6.56,-2 8.93,-0.9 2.7,1.3 6.36,6.2 9.01,11.9 5.39,11.9 8.31,26.6 10.75,41.2 2.36,14.7 3.53,29.8 4.61,45 2.05,30.5 2.39,61.2 2.57,92.2 6.89,-30.2 11.17,-61 13.52,-92.1 1.14,-15.6 1.39,-31.3 0.79,-47.2 -0.71,-16 -2.34,-32 -8.23,-48.9 -3.29,-8.2 -7.29,-17.6 -17.48,-25.1 -5.03,-3.7 -11.8,-6.1 -18.18,-6.4 -6.42,-0.3 -12.09,1.1 -17.04,2.9 -19.24,8 -30.47,19.9 -42.26,32.1 -22.94,25 -37.13,55.6 -47.13,86.4 -18.71,62.3 -19.81,128.3 -4.26,190.5 7.91,31.1 20.57,61.4 40.39,87.2 10.13,12.7 22.04,24.1 35.99,32.4 13.88,8.3 29.71,12.9 45.22,13.1"
         style="fill:#ff9a6c;fill-opacity:1;fill-rule:nonzero;stroke:none"
         id="path64" /><path
         d="m 8981.24,13482 c -3.84,19 -5.61,36.9 -7.31,54.6 -1.66,17.5 -2.99,34.7 -5.36,51 -2.39,16.1 -5.54,31.7 -12.48,43.1 -3.43,5.7 -7.98,10.4 -14.84,14 -6.83,3.8 -15.52,5.5 -25.19,7.3 7.98,5.6 17.62,9 28.59,9.3 10.94,0.2 22.78,-4.6 31.41,-12.4 17.49,-16 23.64,-37.3 26.56,-56.5 2.78,-19.5 1.65,-38.7 -1.77,-57.2 -3.67,-18.5 -9.4,-36.6 -19.61,-53.2"
         style="fill:#ff9a6c;fill-opacity:1;fill-rule:nonzero;stroke:none"
         id="path66" /><path
         d="m 12089.4,13613.7 c 15.5,-0.2 31.4,-4.8 45.2,-13.1 14,-8.3 25.9,-19.7 36,-32.4 19.8,-25.8 32.5,-56.1 40.4,-87.2 15.6,-62.2 14.5,-128.2 -4.3,-190.5 -10,-30.8 -24.1,-61.4 -47.1,-86.4 -11.8,-12.2 -23,-24.1 -42.2,-32.1 -5,-1.8 -10.7,-3.2 -17.1,-2.9 -6.4,0.3 -13.1,2.7 -18.2,6.4 -10.2,7.5 -14.2,16.9 -17.4,25.1 -5.9,16.9 -7.6,32.9 -8.3,48.9 -0.6,15.9 -0.3,31.6 0.8,47.2 2.4,31.1 6.6,61.9 13.5,92.1 0.2,-31 0.6,-61.7 2.6,-92.2 1.1,-15.2 2.3,-30.3 4.6,-45 2.5,-14.6 5.4,-29.3 10.8,-41.2 2.6,-5.7 6.3,-10.6 9,-11.9 2.3,-1.1 4,-0.9 8.9,0.9 9.3,4.2 20.4,15 29,25.5 17.4,21.7 30.3,47.8 38.4,75.7 8.5,27.8 13.5,57 14.9,86.4 2,29.5 0.1,59.2 -4.5,88.3 -5.1,29 -13.4,57.8 -28,83.2 -14.3,25.4 -36.6,47.2 -67,55.2"
         style="fill:#ff9a6c;fill-opacity:1;fill-rule:nonzero;stroke:none"
         id="path68" /><path
         d="m 12034.9,13482 c -10.2,16.6 -15.9,34.7 -19.6,53.2 -3.4,18.5 -4.6,37.7 -1.8,57.2 2.9,19.2 9.1,40.5 26.6,56.5 8.6,7.8 20.4,12.6 31.4,12.4 11,-0.3 20.6,-3.7 28.6,-9.3 -9.7,-1.8 -18.4,-3.5 -25.2,-7.3 -6.9,-3.6 -11.4,-8.3 -14.9,-14 -6.9,-11.4 -10,-27 -12.4,-43.1 -2.4,-16.3 -3.7,-33.5 -5.4,-51 -1.7,-17.7 -3.5,-35.6 -7.3,-54.6"
         style="fill:#ff9a6c;fill-opacity:1;fill-rule:nonzero;stroke:none"
         id="path70" /><path
         d="m 11369.3,13889.3 c 0,-74.6 -60.5,-135.1 -135.1,-135.1 -74.6,0 -135.1,60.5 -135.1,135.1 0,74.6 60.5,135.1 135.1,135.1 74.6,0 135.1,-60.5 135.1,-135.1"
         style="fill:#1b1a2e;fill-opacity:1;fill-rule:nonzero;stroke:none"
         id="path72" /><path
         d="m 11584.9,14024.4 c -41,29.4 -86.1,51.6 -132.9,67.1 -46.8,15.2 -95.8,23.6 -144.7,22.4 -24.5,-0.3 -49,-2.5 -73,-7.2 -12.2,-1.7 -24,-5.2 -36.1,-7.8 -11.7,-3.8 -23.7,-6.5 -35.3,-10.9 -46.8,-16 -91.8,-38.2 -135.5,-63.6 38.2,33.2 81.8,60.6 129.1,80.4 47.2,20.1 98.7,31.1 150.5,32 51.7,0.9 103.6,-9.2 151.2,-28.5 47.5,-19.4 91.8,-47.2 126.7,-83.9"
         style="fill:#1b1a2e;fill-opacity:1;fill-rule:nonzero;stroke:none"
         id="path74" /><path
         d="m 9926.23,13859.8 c 0,-74.6 -60.49,-135.1 -135.11,-135.1 -74.62,0 -135.1,60.5 -135.1,135.1 0,74.6 60.48,135.1 135.1,135.1 74.62,0 135.11,-60.5 135.11,-135.1"
         style="fill:#1b1a2e;fill-opacity:1;fill-rule:nonzero;stroke:none"
         id="path76" /><path
         d="m 10167,14009.8 c -41,29.4 -86.1,51.6 -132.9,67.1 -46.86,15.2 -95.78,23.6 -144.73,22.4 -24.44,-0.3 -48.94,-2.5 -73.01,-7.2 -12.18,-1.7 -24.02,-5.2 -36.03,-7.8 -11.73,-3.8 -23.79,-6.5 -35.38,-10.9 -46.81,-16 -91.74,-38.2 -135.42,-63.6 38.12,33.2 81.76,60.6 129.09,80.4 47.17,20.1 98.68,31.1 150.42,32 51.79,0.9 103.61,-9.2 151.26,-28.5 47.5,-19.4 91.8,-47.2 126.7,-83.9"
         style="fill:#1b1a2e;fill-opacity:1;fill-rule:nonzero;stroke:none"
         id="path78" /><path
         d="m 10758.2,13498.1 c 12.9,-57.2 23.5,-114.7 33.3,-172.3 10,-57.6 18.6,-115.4 27,-173.2 1.9,-14.7 4.1,-28.5 5.5,-44 1.3,-15.2 1.6,-30.4 0.2,-45.6 -2.7,-30.2 -10,-60.3 -23.8,-87.5 -13.5,-27.2 -33.7,-52.2 -60.9,-67.1 -26,-13.6 -51.9,-27 -78.4,-39.6 23.9,17 48.4,33 72.6,49.2 23.1,15.6 39.4,39.5 50.5,65 10.7,25.8 17.1,53.5 18.3,81.6 0.9,13.9 0.6,28 -0.8,41.9 -1.3,13.6 -4,28.6 -5.9,42.9 -7.9,57.9 -15.6,115.8 -22,173.9 -6.4,58.1 -12.1,116.3 -15.6,174.8"
         style="fill:#1b1a2e;fill-opacity:1;fill-rule:nonzero;stroke:none"
         id="path80" /><path
         d="m 10303.2,12604.3 c 40.3,10 81.6,14.2 122.8,15.8 41.3,1.7 82.8,0 123.9,-4.5 41.2,-4.6 82.1,-12.8 121.9,-24.6 39.8,-11.9 78.5,-28.3 113.6,-50.5 -40.6,8.9 -79.9,17.6 -119.7,24.4 -39.9,6.2 -79.6,12.1 -119.7,16.5 -40,4.5 -80.2,8.2 -120.6,12 -40.4,3.4 -81,6.7 -122.2,10.9"
         style="fill:#e43f5a;fill-opacity:1;fill-rule:nonzero;stroke:none"
         id="path82" /><path
         d="m 11574.8,14525.4 c -1.5,-15.6 -5.6,-30.5 -11.2,-44.3 -5.6,-13.9 -12.5,-27.1 -20.5,-39.6 -16,-24.8 -36.1,-46.9 -59.4,-65.6 -46.4,-37.3 -105.4,-60.9 -166.3,-66.2 -30.3,-2.8 -61.1,-1.8 -90.6,4.2 l -11.1,2.1 -10.8,2.9 c -7.3,1.9 -14.4,4 -21.5,6.3 -13.9,5.4 -27.8,10.3 -40.7,17.5 -51.9,27.6 -96.1,66.7 -122.1,123 15.7,2.3 30.2,3.4 44,3.9 14.1,1.3 27.1,1.1 40,1.9 25.7,1 49.5,1.2 72.2,2.3 11.3,0 22.3,1.1 33,1.1 10.7,1 21.2,0.7 31.5,1.7 20.6,0.8 40.4,2.7 60.2,4.3 39.5,3.3 78.6,8.9 122.4,16 21.9,3.7 45.1,7.6 69.7,12.6 l 81.2,15.9"
         style="fill:#1b1a2e;fill-opacity:1;fill-rule:nonzero;stroke:none"
         id="path84" /><path
         d="m 10110.9,14415.4 -82.8,2.4 c -25,0.9 -48.53,0.9 -70.7,1 -44.43,-0.1 -83.92,-1 -123.46,-4.2 -19.75,-1.6 -39.61,-3 -60.07,-5.5 -10.31,-0.7 -20.6,-2.7 -31.35,-3.5 -10.54,-1.8 -21.62,-2.5 -32.73,-4.3 -22.52,-2.7 -46.06,-6.4 -71.56,-9.5 -12.91,-1.4 -25.74,-3.7 -39.86,-4.7 -13.65,-1.8 -28.16,-3 -44.04,-3.4 16.52,59.8 53.77,105.6 100.46,141.3 11.53,9.2 24.45,16.4 37.28,23.9 6.57,3.5 13.31,6.7 20.11,9.8 l 10.24,4.6 10.58,3.9 c 28.14,10.7 58.31,16.8 88.71,19 60.91,4.6 123.06,-9 174.92,-38.3 25.97,-14.5 49.47,-33.1 69.37,-55 9.8,-11 18.8,-22.8 26.6,-35.7 7.7,-12.7 14.3,-26.7 18.3,-41.8"
         style="fill:#1b1a2e;fill-opacity:1;fill-rule:nonzero;stroke:none"
         id="path86" /><path
         d="m 13195.5,13655.6 c -22.8,41.8 -49.3,84.2 -79.9,126.9 -254.3,355 -389.1,674.9 -455.9,871.8 178,-201.6 344,-311.4 456.1,-443 172,-201.9 110,-462.5 79.7,-555.7 z M 8202.01,14807 c -92.37,-557 -456.88,-843.7 -666.26,-965.3 -59.66,69.6 -147.07,255.2 206.17,563.6 227.21,198.4 382.77,380.1 482.15,513.5 -8.27,-37.2 -15.86,-74.4 -22.06,-111.8 z m 4913.79,-488.7 c -355.7,287.2 -529.3,606.2 -529.3,606.2 -327.4,1371 -1388.4,1554.1 -1388.4,1554.1 288.5,256 0,446.8 0,446.8 -37.3,432.8 -339.8,367.6 -339.8,367.6 -214,209.5 -418.8,69.9 -418.8,69.9 -297.9,111.6 -367.7,-181.5 -367.7,-181.5 -395.55,-330.5 -82.95,-676.4 -82.95,-676.4 -965.15,-137 -1548.32,-778.7 -1742.17,-1494.2 -111.97,-117.9 -300.69,-303.5 -568.35,-505.6 -445.15,-336.1 -259.58,-731.3 -259.58,-731.3 0,0 -191.88,-153.1 -258.93,-257 -68.39,-105.8 -119.27,-234.8 -92.72,-365.9 63.71,-314.6 295.04,-419.9 295.04,-419.9 -201.47,-430.3 99.02,-733.4 232.82,-841 55.68,-44.7 98.3,-104.6 116.81,-173.6 52.46,-195.6 -57.99,-339.4 -57.99,-339.4 295.96,-73.3 566.46,86.2 540.59,448.4 -12.22,171.1 -111.62,275.7 -213.13,338.4 -276.53,171 -402.13,513 -276.5,812.9 127.5,304.3 396.75,493.2 396.75,493.2 l -27.97,-381.8 c -16.84,-229.8 67.78,-454.3 228.65,-619.2 90.79,-93.1 181.58,-216.5 227.72,-366.9 111.97,-365.1 -180.12,-472.2 -180.12,-472.2 798.89,-360.8 326.16,788.6 326.16,788.6 127.73,-209.6 342.29,-40.3 342.29,-40.3 -141.17,9.7 -207.55,166.9 -207.55,166.9 246.7,-175.3 500.88,74.5 500.88,74.5 -809.86,15.2 -476.64,1004.8 -118.85,1598.6 357.78,593.8 205.53,1408.3 205.53,1408.3 169.29,-153.3 378.84,-14.2 378.84,-14.2 236.03,-57.1 380.63,133.3 380.63,133.3 197.9,-144.7 468.2,49.4 468.2,49.4 110.4,-213.1 502.4,-148.4 502.4,-148.4 236.1,-144.7 357,-13.4 357,-13.4 337.2,-291.3 35.7,-608.1 61.3,-1216.3 25.5,-608.1 459.9,-684.8 505.9,-1057.9 46,-373.1 -148.2,-495.7 -148.2,-495.7 393.5,-71.5 465.1,362.9 465.1,362.9 20.4,-286.2 -117.6,-393.6 -117.6,-393.6 577.5,61.4 397.2,910.4 397.2,910.4 419.1,-735.5 110.7,-1115.1 110.7,-1115.1 385.6,49 696.5,458.6 470.2,958.7 l 76.6,-55.1 c 0,0 165,499.6 -190.7,786.8"
         style="fill:#1b1a2e;fill-opacity:1;fill-rule:nonzero;stroke:none"
         id="path88" /><path
         d="m 7419.78,13772.5 c -43.22,-41.3 -86.2,-82.3 -128.1,-124.2 -42,-41.8 -82.59,-84.7 -122.96,-127.8 -40.37,-43 -81.45,-86.3 -114.15,-135.8 -32.75,-49.3 -58.74,-103.6 -72.89,-160.5 -14.02,-56.7 -17.49,-115.5 -4.24,-170.1 13.31,-54.8 44.72,-103.2 84.73,-143.5 19.99,-20.3 42.56,-38.2 65.79,-55.5 12.02,-8 23.71,-16.7 36.34,-24 6.23,-3.8 12.3,-7.9 18.61,-11.6 l 19.13,-10.8 c 51.24,-28.6 105.43,-53 160.61,-76 l -1.02,-3.3 c -58.64,12.4 -116.44,30.1 -171.74,55.1 -27.82,12.1 -54.56,26.9 -80.62,43 -25.78,16.7 -50.23,35.7 -72.92,57.1 -21.99,22 -42.06,46.6 -57.57,74.1 -15.6,27.4 -26.99,57.4 -33.09,88.3 -6.22,30.9 -7.38,62.6 -3.86,93.4 3.38,30.9 11.55,60.8 21.84,89.3 21.06,57.2 50.36,109.8 81.49,161 31.35,51 64.04,101.9 102,148.7 38.13,46.6 81.18,88.9 126.33,128.4 45.38,39.3 92.75,76.4 144.24,107.5 l 2.05,-2.8"
         style="fill:#1b1a2e;fill-opacity:1;fill-rule:nonzero;stroke:none"
         id="path90" /><path
         d="m 9987.91,16503.5 c -33.87,15.3 -63.79,37.4 -91.41,62.1 -6.72,6.4 -13.52,12.8 -19.98,19.4 -6.19,7 -12.71,13.6 -18.53,20.9 -6.05,7.1 -11.93,14.4 -17.11,22.2 -5.54,7.6 -10.21,15.7 -14.78,23.9 -18.17,33 -28.83,69.5 -36.6,105.4 -7.8,36 -11.2,73.2 -7.6,110.7 2.21,18.6 5.19,37.6 11.55,55.5 1.45,4.5 2.68,9.2 4.49,13.5 l 5.86,13 c 4.06,8.5 7.61,17.5 12.77,25.4 l 14.57,24.4 16.75,22.7 c 2.84,3.8 5.55,7.6 8.52,11.3 l 9.53,10.3 19.16,20.6 c 13.83,12.5 27.67,25 42.38,36.3 15.1,10.7 29.72,22.1 45.51,31.6 7.84,4.9 15.84,9.4 23.78,14.1 8.03,4.5 15.73,9.5 24.13,13.2 16.5,8.1 33.1,15.9 50.1,22.8 l 1.7,-2.9 c -56.5,-46.5 -112.81,-90.6 -161.65,-141.1 l -17.9,-19.2 -8.99,-9.5 -8.29,-10.1 -16.65,-20.1 -14.83,-21.3 c -18.45,-29.1 -34.38,-60 -43.95,-93.8 -9.59,-33.7 -9.86,-70.5 -0.17,-104.7 9.57,-34.5 29.72,-64.6 50.07,-92.8 l 7.58,-10.7 7.98,-10.5 c 5.08,-7.1 10.49,-14 15.79,-21 10.71,-13.9 22.23,-27.3 33.8,-40.7 23.48,-26.6 48.43,-52.3 74.3,-78 l -1.88,-2.9"
         style="fill:#1b1a2e;fill-opacity:1;fill-rule:nonzero;stroke:none"
         id="path92" /><path
         d="m 13319.3,13576.9 c 24.9,-11.5 47.9,-26.3 70.1,-42.2 22.2,-16 43.4,-33.4 63.3,-52.2 40.1,-37.4 76.1,-79.6 104.6,-126.6 28.5,-47.2 48.8,-98.5 67.2,-149.5 18.4,-51.1 33.7,-103.4 43.6,-157.2 10.1,-53.8 14.3,-109.1 10.1,-164.1 -4.2,-54.7 -12.2,-109.7 -28.3,-162.2 -31.1,-105.5 -81.4,-204.2 -146.2,-291.2 l -3,1.7 c 45.7,98.1 86.8,197 113.8,299.4 15,50.8 24.4,102.8 31.3,155.2 l 3.6,39.5 c 1.1,13.1 0.7,26.4 1.5,39.6 0.8,13.3 0.6,26.5 0.2,39.8 -0.4,13.2 0,26.6 -1.6,39.8 -3.3,53.2 -15.2,106.2 -35.4,155.8 -20,49.7 -49.8,94.7 -80.7,137.6 -60.8,86.6 -132.9,165 -215.8,233.9 l 1.7,2.9"
         style="fill:#1b1a2e;fill-opacity:1;fill-rule:nonzero;stroke:none"
         id="path94" /><path
         d="m 11485.3,15633.2 c 5.5,50.4 6.8,101.1 3.7,151.4 -2.7,50.3 -9.3,100.3 -20,149.2 -21.6,97.7 -61.8,191.5 -122.7,270.2 -29.7,39.9 -65.6,74.9 -104.7,105.7 -19,16.2 -40.3,29.2 -60.9,43.3 l -32.6,18.5 c -5.4,3.1 -10.8,6.3 -16.3,9.2 l -16.9,8.1 c -90.3,43.5 -188.3,71.2 -288.3,87.9 101,-7.9 202.1,-29.9 295.9,-71.7 l 17.6,-7.6 c 5.8,-2.9 11.4,-6 17.1,-8.9 11.3,-6.1 22.7,-12.1 33.9,-18.3 21.6,-14.1 43.9,-27.1 63.9,-43.4 40.9,-31.3 78.2,-67.6 109.5,-108.8 31.2,-41.1 57.4,-86 77.7,-133.3 20.1,-47.4 35,-96.9 44.2,-147.3 18.6,-100.8 18.7,-204.6 -1.1,-304.2"
         style="fill:#1f4068;fill-opacity:1;fill-rule:nonzero;stroke:none"
         id="path96" /><path
         d="m 10988,16513.9 c 38.5,1 77,-1.4 115.2,-5.7 38.3,-4.3 76.2,-11.1 113.8,-19.7 37.5,-9 74.6,-19.8 110.6,-33.8 36,-13.7 71.1,-30.1 103.8,-50.7 -36.7,11.9 -72.9,23.4 -109.5,33.8 -36.5,10.2 -73.2,19.9 -110.2,28.4 -36.8,8.9 -74,16.6 -111.3,24.3 -37.3,7.7 -74.8,14.9 -112.4,23.4"
         style="fill:#1f4068;fill-opacity:1;fill-rule:nonzero;stroke:none"
         id="path98" /><path
         d="m 9991.23,16505.4 c 37.37,25.2 80.87,40.4 124.67,51.4 44,10.8 89.3,15.6 134.5,17 45.3,0.5 90.5,-2.8 135,-10.3 22.3,-3.2 44.1,-9.2 66,-13.9 21.7,-6.2 43.1,-12.9 64.3,-20.3 -22.5,2.4 -44.4,6.2 -66.5,9.2 l -33.1,3.7 c -11,1.2 -21.9,3 -33,3.5 -22.1,1.4 -44,4.2 -66.1,4.2 -11.1,0.3 -22.1,1.5 -33.1,1.2 l -33,-0.2 c -44,-1 -87.9,-4.6 -131.4,-11.6 -43.4,-7.5 -86.7,-17.3 -128.27,-33.9"
         style="fill:#1f4068;fill-opacity:1;fill-rule:nonzero;stroke:none"
         id="path100" /><path
         d="m 9398.23,15626.5 c -10.01,23.3 -17.6,47.7 -23.91,72.3 -6.28,24.7 -11.54,49.7 -15.05,75 -7.24,50.6 -8.57,102.1 -3.38,153.3 4.89,51.1 16.96,101.7 35.42,149.9 18.63,48.2 44.31,93.6 75.05,135.1 31.5,41 68.41,77.4 108.1,110.1 l 30.79,23.2 c 10.01,8.1 21.34,14.2 31.94,21.4 10.93,6.7 21.22,14.5 32.64,20.3 l 33.74,18.3 c 90.54,48 188.61,78.8 287.66,100 -96.84,-29.8 -191.77,-66.1 -279.12,-115.7 -21.61,-12.8 -43.45,-25.1 -63.82,-39.6 -10.18,-7.3 -21.13,-13.5 -30.68,-21.6 l -29.42,-23.1 c -38.06,-32.2 -73.55,-67.5 -103.55,-107.1 -60.03,-79.3 -98.1,-174.2 -111.04,-273.3 -6.54,-49.5 -7.7,-99.9 -3.22,-150 3.8,-50.1 13.12,-100 27.85,-148.5"
         style="fill:#1f4068;fill-opacity:1;fill-rule:nonzero;stroke:none"
         id="path102" /><path
         d="m 10157.7,15745.6 c -34.6,61.5 -58,129.5 -70.9,199.5 -12.7,70 -14.5,142.9 -0.3,213.6 7.3,35.2 18.1,69.7 32.6,102.6 15.3,32.6 33.5,63.8 55.2,92.3 43.9,56.7 99.9,102.7 161,137.7 -56.3,-42.5 -106.6,-91.9 -146.5,-148.3 -19.3,-28.7 -36.3,-58.7 -49.8,-90.3 -13.3,-31.8 -23.3,-64.8 -30,-98.5 -7.2,-33.7 -10.3,-68.2 -10.8,-102.7 -0.7,-34.5 1.9,-69.1 6.3,-103.6 4.6,-34.4 11.4,-68.7 20.3,-102.5 8.6,-33.9 19.7,-67.2 32.9,-99.8"
         style="fill:#1f4068;fill-opacity:1;fill-rule:nonzero;stroke:none"
         id="path104" /><path
         d="m 11117.9,15768.9 c -0.3,35.5 -3,70.7 -8.4,105.5 -4.8,34.8 -11.9,69.2 -20.8,103.1 -17.9,67.7 -44.1,132.9 -78.7,193.3 -34.4,60.6 -78.1,115.7 -128,164.6 -50.6,48.2 -107.2,90.5 -168.2,126.8 65,-28.3 126.4,-66.4 180.4,-113.6 26.6,-24 52,-49.6 74.6,-77.6 22.4,-28 43.2,-57.5 61.1,-88.8 35.3,-62.6 61.4,-130.4 76.1,-200.6 15,-69.9 20.2,-142.2 11.9,-212.7"
         style="fill:#1f4068;fill-opacity:1;fill-rule:nonzero;stroke:none"
         id="path106" /><path
         d="m 10625.9,15795 c 11.6,57.3 20.6,114.6 27.4,172.2 6.5,57.5 10.5,115.2 10.4,172.8 0.1,57.6 -4.3,115.2 -14.2,171.8 -5.4,28.3 -11.9,56.3 -20.4,83.9 -8.7,27.6 -19.5,54.4 -31.8,81 16.7,-24 30.5,-50.1 42.3,-77.1 11.2,-27.2 20.4,-55.4 27.4,-84.1 7,-28.7 11.5,-57.9 15,-87.2 3,-29.3 4.3,-58.8 4.6,-88.3 -0.3,-58.9 -5.4,-117.6 -15.7,-175.4 -10.2,-57.7 -24.2,-114.9 -45,-169.6"
         style="fill:#1f4068;fill-opacity:1;fill-rule:nonzero;stroke:none"
         id="path108" /><path
         d="m 8497.9,13984.7 c -30.41,-77.1 -59.5,-154.6 -84.15,-233.5 -25.28,-78.7 -47.11,-158.5 -63.02,-239.3 -15.51,-80.9 -26.95,-162.6 -27.37,-244.6 -0.51,-81.8 9.51,-164 37.2,-240.3 28.21,-76.8 63.23,-151.8 108,-220.4 11.46,-16.9 22.46,-34.2 35.2,-50.2 6.28,-8.1 12.1,-16.5 18.74,-24.3 l 19.89,-23.3 c 6.42,-8 13.86,-15 20.84,-22.5 7.12,-7.3 13.96,-14.9 21.59,-21.7 l 22.32,-21 23.54,-19.6 c 63.63,-51.1 137.43,-90.1 216.72,-111.5 78.96,-21.9 163.06,-28.7 244.82,-15.2 -40.34,-9.8 -82.17,-12.6 -123.74,-11.8 -41.6,1.2 -83.2,6.5 -123.9,16.1 -81.39,19.6 -158.06,57.7 -224.78,108.5 -67.2,50.7 -122.4,115.5 -168.71,185.1 -46.4,69.9 -82.66,145.7 -112.06,224 -28.26,79.9 -37.7,164.8 -36.5,248.3 1.46,83.7 12.63,166.8 31.01,248 18.18,81.2 42.03,161 69.62,239.2 28.33,78.1 59.57,154.9 94.74,230"
         style="fill:#1f4068;fill-opacity:1;fill-rule:nonzero;stroke:none"
         id="path110" /><path
         d="m 8963.84,15871.8 c -41.63,-70.2 -72.82,-145.9 -98.7,-223 -26.29,-76.9 -46.66,-155.8 -62.4,-235.5 -14.86,-79.9 -26.08,-160.4 -33.11,-241.3 -2.73,-40.6 -4.97,-80.9 -7.09,-121.8 -1.65,-40.9 -4.7,-81.8 -7.96,-122.6 -16.09,-163.1 -45.15,-324.9 -88.19,-482.8 -21.86,-78.9 -46.81,-156.9 -74.64,-233.8 -28.58,-76.6 -59.23,-152.4 -93.85,-226.3 29.84,76 58.34,152.4 83.22,230 25.59,77.4 48.53,155.6 68.2,234.5 39.26,158 68.25,318.5 82.45,480.5 3.57,40.4 6.94,81 8.92,121.6 2.45,40.5 5.08,81.7 8.18,122.5 8.12,81.6 18.95,163 36.68,243.1 17.97,80 40.4,159 69.06,235.7 14.39,38.4 30.82,75.9 48.52,112.8 17.76,36.8 37.46,72.8 60.71,106.4"
         style="fill:#1f4068;fill-opacity:1;fill-rule:nonzero;stroke:none"
         id="path112" /><path
         d="m 12759.7,12627.9 c 103,17.7 200.3,60.1 282.8,121.6 82.5,61.4 149.8,142.8 193.1,235.7 44.2,92.6 63.9,196.1 61,299 -2.6,103.2 -28.6,205.3 -66.7,302.4 23.5,-46.7 42.5,-95.7 57.5,-146.1 14.8,-50.5 23.9,-102.7 27,-155.5 3.4,-52.8 0.1,-106.1 -9.4,-158.3 -9.7,-52.1 -26.1,-103.1 -48.6,-151.3 -22.9,-47.9 -51.8,-93.1 -86,-133.7 -34.5,-40.4 -73.9,-76.5 -117.4,-106.7 -86.7,-60.8 -189.1,-98.2 -293.3,-107.1"
         style="fill:#1f4068;fill-opacity:1;fill-rule:nonzero;stroke:none"
         id="path114" /><path
         d="m 12251.8,12832.6 c 46.2,9.1 92.1,19.1 134,39.6 41.9,19.7 80.3,46.2 112.8,78.6 32.6,32.4 58.2,71.2 78.4,112.4 20.4,41.2 35.5,85 46.3,130 10.8,45 17.5,91.1 21.6,137.4 4.4,46.3 5.5,93 4.9,139.7 -0.8,46.7 -3.4,93.4 -7.7,140.1 -3.9,46.7 -10.2,93.2 -17.9,139.6 24.4,-90.9 38.6,-184.7 43.5,-279.1 4.9,-94.4 -0.7,-190 -22.1,-283 -11.6,-46.3 -27.3,-91.8 -49.2,-134.5 -22.3,-42.3 -49.7,-82.9 -85.4,-115.4 -35.1,-32.9 -76.7,-58.3 -120.8,-76.1 l -33.8,-11.5 c -11.3,-3.4 -23.1,-5.4 -34.6,-8.1 l -17.3,-3.9 -17.5,-2.1 -35.2,-3.7"
         style="fill:#1f4068;fill-opacity:1;fill-rule:nonzero;stroke:none"
         id="path116" /><path
         d="m 9018.22,12378.2 c -20.54,-2.6 -42.1,-2 -62.53,3.9 -20.67,5.1 -40.33,14.6 -57.68,27.1 -17.47,12.4 -32.65,27.9 -44.62,45.3 -11.98,17.4 -21.31,36.7 -25.16,57.4 12.55,-16.7 25.34,-31.9 39.03,-46.1 13.62,-14.2 28.47,-26.7 44.11,-38 15.65,-11.2 32.24,-21.2 50.22,-28.9 17.75,-8.5 36.78,-13.8 56.63,-20.7"
         style="fill:#1f4068;fill-opacity:1;fill-rule:nonzero;stroke:none"
         id="path118" /><path
         d="m 8675.93,12418.5 c 21.3,-25.7 44.44,-48.9 71.05,-65.8 26.87,-16.4 56.88,-26.4 88.03,-27.3 31.07,-1.6 62.67,4.3 93.31,13.9 30.64,9.8 60.59,23.1 89.9,38.9 -23.75,-23.6 -52.5,-42.1 -83.62,-55.7 -31.09,-13.7 -65.61,-21.4 -100.68,-20 -17.43,1.1 -35.01,4 -51.49,10.2 -16.39,6.4 -32.01,14.6 -45.68,25.4 -27.26,21.5 -47.63,49.8 -60.82,80.4"
         style="fill:#1f4068;fill-opacity:1;fill-rule:nonzero;stroke:none"
         id="path120" /><path
         d="m 8349.77,11629.9 c 49.08,-19.3 98.76,-37.3 149.88,-48.6 25.4,-6.2 51.22,-10.2 77,-12.3 25.75,-2 51.67,-1.5 76.52,3.5 24.8,4.9 48.58,14.1 68.48,28.8 19.98,14.6 36.04,34 47.82,56.1 23.41,44.5 31.48,96.6 33.39,148 2.18,51.7 -2.46,103.9 -9.49,155.6 -6.9,51.9 -17.48,103.3 -29.05,154.5 -11.98,51.1 -25.44,101.9 -40.34,152.4 -14.43,50.6 -30.85,100.7 -48.05,150.6 42.99,-96.4 78.42,-196.4 105.76,-298.7 26.76,-102.3 47.07,-207.7 44.07,-315.3 -2.5,-53.3 -10.68,-108.4 -37.27,-157.5 -13.54,-24.2 -32.22,-46 -55.26,-62.1 -22.89,-16.3 -49.92,-25.7 -76.91,-30 -27.09,-4.3 -54.45,-4.2 -81.09,-0.8 -26.64,3.4 -52.9,8.7 -78.38,16.4 -50.99,15.2 -100.08,35.3 -147.08,59.4"
         style="fill:#1f4068;fill-opacity:1;fill-rule:nonzero;stroke:none"
         id="path122" /><path
         d="m 8329.6,13948.1 c -19.09,-107.4 -45.89,-213.5 -77.47,-318.1 -31.55,-104.6 -69.22,-207.2 -106.61,-309.3 -18.84,-51 -36.98,-102.2 -50.86,-154.5 -14.07,-52.3 -22.95,-106.1 -22.82,-160.4 -0.44,-108.6 30.3,-215.9 80.41,-311.5 25.04,-47.9 54.66,-93.3 87.43,-136.2 16.44,-21.4 33.84,-42 51.92,-62 17.96,-19.7 37.41,-39.8 54.92,-61 70.65,-84.4 130.28,-177.9 175.36,-278.5 22.18,-50.4 41.16,-102.6 52.82,-156.8 11.62,-54 17.11,-110.5 7.83,-166 -4.5,-27.7 -13.56,-54.9 -27.2,-79.5 -13.5,-24.7 -32,-46.6 -53.68,-64.2 -21.59,-17.8 -46.42,-31 -72.14,-40.8 -25.74,-9.9 -52.51,-16.5 -79.53,-20.6 l -0.42,2.3 c 52.77,11.9 104.83,32.2 144.68,67.8 19.92,17.5 36.37,38.8 48.04,62.4 11.91,23.5 18.95,49.2 22.73,75.3 7.46,52.5 0.99,106.5 -11.56,158.4 -12.89,52 -31.29,102.8 -53.72,151.7 -22.27,49.1 -48,96.7 -76.45,142.5 -28.31,46 -59.43,90.3 -93.6,132 -16.96,21.1 -35.22,40.4 -53.62,61.2 -18.06,20.8 -35.17,42.4 -51.41,64.6 -32.54,44.4 -60.82,91.8 -84.33,141.5 -47.04,99.1 -75.2,207.7 -75.79,317.4 -0.55,54.9 6.31,109.7 18.2,163.3 11.82,53.6 28.13,105.9 44.96,157.8 17.28,51.8 35.72,103.1 54.11,154.3 18.23,51.3 36.35,102.6 53.28,154.2 34.49,103.2 64.85,207.7 92.28,313.2 l 2.24,-0.5"
         style="fill:#1f4068;fill-opacity:1;fill-rule:nonzero;stroke:none"
         id="path124" /><path
         d="m 7988.24,11404.5 c 96.89,53.4 172.63,142.6 205.81,246.3 17.01,51.6 23.06,106.4 19.77,160.6 -1.63,27.2 -5.73,53.7 -13.05,79.7 -7.47,25.9 -17.61,51.1 -30.19,75.1 -25.16,48 -59.51,91.5 -99.98,128.4 -20.21,18.5 -42.02,35.3 -65.13,50.1 -11.55,7.6 -23.51,14 -35.83,20.6 -12.26,6.5 -24.41,13.3 -36.53,20.1 -96.61,54.4 -192.19,113.9 -269.92,195.3 -38.3,40.7 -71.64,87.9 -90.85,141.8 -19.45,53.7 -24.06,112.7 -14.89,168.9 8.82,56.4 29.15,110 54.53,160.3 25.35,50.3 56.89,97.2 89.89,142.1 32.87,44.5 65.29,89.5 97.2,134.7 32.11,45.1 63.49,90.8 94.14,136.9 61.17,92.3 121.07,185.7 173.75,283.3 l 2.08,-1 c -45.94,-101.3 -102.13,-197.6 -160.56,-292.1 -29.57,-47.1 -59.88,-93.7 -90.94,-139.8 -31.1,-46.1 -63.3,-91.5 -95.85,-136.5 -32.91,-44.4 -63.11,-90.1 -88.67,-138.5 -25.27,-48.3 -45.39,-99.5 -54.48,-152.9 -9.13,-53.1 -6.52,-108.2 10.72,-159.5 17,-51.4 46.72,-98.3 82.98,-139.5 36.44,-41 78.49,-77.4 123.48,-109.5 44.91,-32.3 92.25,-61.2 140.99,-87.5 24.26,-13.3 49.45,-24.7 73.78,-39 24.21,-14.1 47.2,-30.4 68.69,-48.5 42.9,-36.2 80.6,-79.4 108.36,-129 27.83,-49.4 44.45,-106.1 46.46,-162.9 3.11,-56.5 -4.21,-114 -23.26,-167.4 -37.73,-107 -119.99,-196.4 -221.48,-242.7 l -1.02,2.1"
         style="fill:#1f4068;fill-opacity:1;fill-rule:nonzero;stroke:none"
         id="path126" /><path
         d="m 10073.3,17186.8 c -11.1,-33.4 -18.5,-68 -19.7,-102.7 -1.7,-34.4 3.2,-69.2 17.9,-99.2 7.3,-15 17.3,-28.3 29,-39.8 6,-5.8 12.3,-10.9 19.2,-15.8 l 21.4,-14.3 c 29.3,-18 60.7,-33 92.6,-47.8 31.7,-15.3 64.1,-30.1 95,-48.5 30.7,-18.5 60.1,-39.8 86.1,-64.8 12.1,-13.4 25.3,-25.7 35.6,-40.4 5.3,-7.3 11.2,-14.1 16,-21.6 l 14.2,-22.8 c 4.9,-7.4 8.8,-15.4 12.7,-23.5 l 11.7,-23.9 c 7.1,-16.2 13,-33 19.2,-49.5 -30.3,63.8 -70.6,122.2 -121.6,168.6 -26.3,22.3 -54.5,42.3 -84.8,59.1 -30,17.2 -61.9,31.6 -93.8,46.5 -31.8,15.3 -64.2,30.8 -94.6,50.4 l -22.1,15.7 c -7.3,5.5 -14.5,11.7 -21,18.4 -13.1,13.5 -23.8,29.4 -31,46.5 -14.9,34.4 -17.2,72.2 -12.9,107.7 5.1,35.5 15,70.1 30.9,101.7"
         style="fill:#1f4068;fill-opacity:1;fill-rule:nonzero;stroke:none"
         id="path128" /><path
         d="m 10277.3,17101.4 c 18.4,-22.4 40.5,-40.7 64.5,-55.8 24,-15.2 49.9,-27.4 75.8,-39.9 26,-12.2 52.2,-25.1 77.6,-40 25.3,-15 49.7,-32.7 70.6,-54.4 20.7,-21.8 37.8,-47.1 50.1,-74.4 12.1,-27.5 20.5,-56.2 24.6,-85.5 8.5,-58.3 5.5,-117.1 -4.2,-174.1 0.2,57.8 -2,115.5 -13.4,170.9 -11.6,55.2 -34.8,107.6 -73.6,147.2 -38.2,40.4 -89.4,66.5 -139.9,94.4 -25.3,14 -50.7,28.7 -74,46.6 -23.1,18.2 -43.9,39.7 -58.1,65"
         style="fill:#1f4068;fill-opacity:1;fill-rule:nonzero;stroke:none"
         id="path130" /><path
         d="m 10439.5,17362.9 c -27,-14.7 -53.1,-29.7 -77.9,-46.2 -24.5,-16.7 -48,-34.8 -67.1,-56.3 -19.1,-21.2 -32.9,-46.5 -36,-74.3 -3.1,-27.9 5.9,-56.9 18.8,-84.7 -20.6,22.3 -36.5,52.2 -36.7,85.5 -0.3,16.5 3.8,33 10.3,48.1 6.7,15 16,28.5 26.5,40.6 21.7,23.7 47.6,42.2 75.2,56.4 27.5,14.2 56.6,25.1 86.9,30.9"
         style="fill:#1f4068;fill-opacity:1;fill-rule:nonzero;stroke:none"
         id="path132" /><path
         d="m 10815.4,17330.6 c 16.3,-9.6 31.3,-21.3 45.4,-33.9 7.1,-6.3 14.1,-12.7 20.6,-19.6 6.8,-6.6 13.4,-13.5 19.5,-20.8 12.8,-14.1 23.7,-29.8 34.8,-45.3 10.1,-16.3 20.4,-32.5 28.3,-49.9 9.3,-16.9 15.6,-35 22.3,-53 3.8,-8.9 5.5,-18.4 8.2,-27.6 2.5,-9.3 5.2,-18.5 7.3,-27.9 l 4.6,-28.4 c 1.2,-9.6 3.5,-19 3.5,-28.6 l 1.5,-28.8 c 0.5,-9.6 1.3,-19.2 0.4,-28.7 -2.3,-76.8 -18.4,-152.4 -47.4,-223.1 -14.7,-35.3 -33.4,-69 -57,-99.2 -24,-29.5 -52.3,-56.1 -85.7,-73.9 30.5,22.1 56.3,49.6 76.7,80.5 20.6,30.8 36.5,64.5 49.4,99.1 24.7,69.7 39.3,143.6 41.1,217.1 0.9,9.2 0.3,18.4 -0.1,27.6 l -1.2,27.5 c 0.1,9.3 -2,18.3 -3.1,27.4 l -3.9,27.3 c -1.7,9 -4.2,17.9 -6.2,26.8 -2.4,8.9 -3.7,18.1 -7.1,26.7 -6.2,17.3 -11.4,35 -19.4,51.6 -14.4,34 -33.4,66.1 -55.7,95.8 -22,29.9 -47.5,57.7 -76.8,81.3"
         style="fill:#1f4068;fill-opacity:1;fill-rule:nonzero;stroke:none"
         id="path134" /><path
         d="m 11140.1,17142.2 c 30.3,-44.5 50,-96.3 60.5,-149.8 10.5,-53.6 9.5,-109.9 -3.6,-163.6 -13.1,-53.5 -38.9,-103.9 -73.5,-146.1 -34.5,-42.4 -76.4,-77.9 -122.6,-105.4 40.6,35.3 77.8,73.5 108.3,116.2 4,5.2 7.6,10.7 11,16.3 3.4,5.6 7.2,11 10.5,16.6 6.2,11.5 12.9,22.7 18,34.7 11.3,23.4 20.3,47.9 26.1,73.2 12.7,50.4 14.7,103.2 8.2,155.3 -6.9,52 -21,103.6 -42.9,152.6"
         style="fill:#1f4068;fill-opacity:1;fill-rule:nonzero;stroke:none"
         id="path136" /><path
         d="m 12758.9,12628.7 c 34.9,38.4 60.2,84.6 79.6,132.2 19.3,47.9 31.2,98.3 38.6,149.2 13.6,102.2 4.2,206.2 -16.1,307.3 -5.9,25.2 -11,50.6 -17.2,75.8 l -22.5,74.5 c -15,49.7 -34.8,97.9 -57,144.9 -44.9,94 -102.5,181.3 -167.2,262.8 -63.7,83.1 -120.1,171.9 -168.1,265.2 -48,93.2 -88.2,190.9 -116.5,292.2 -28.2,101.3 -45.1,205.9 -47.4,311 -1.3,52.5 1,105.1 7.1,157.2 6.3,52 16.3,103.5 29.7,154 l 2.2,-0.5 c -40.8,-204.8 -26.1,-416.7 31.9,-615 56.6,-199.2 152.4,-386.3 271.3,-556.6 123.6,-168.2 222.3,-356.8 272.3,-561.4 11.6,-51.2 20,-103.5 22.5,-156.2 l 1.4,-19.7 -0.3,-19.8 -0.5,-39.6 c 0,-6.6 -0.3,-13.2 -1.2,-19.7 l -2.1,-19.7 c -1.6,-13.1 -2.3,-26.4 -4.7,-39.4 -8.7,-52.1 -23.7,-103.1 -45.1,-151.3 -6,-11.8 -11,-24 -17.7,-35.3 -7,-11.2 -12.9,-23 -20.8,-33.6 -14.5,-21.9 -31.2,-42.4 -50.7,-60.2 l -1.5,1.7"
         style="fill:#1f4068;fill-opacity:1;fill-rule:nonzero;stroke:none"
         id="path138" /><path
         d="m 12818,11632.4 c -22.5,11.1 -41.8,28.4 -58.4,47.5 -4.5,4.5 -8.2,9.6 -12,14.7 -3.8,5.1 -7.7,10.2 -11.4,15.4 -6.5,10.8 -13.7,21.4 -19.4,32.8 -5.4,11.4 -11.8,22.6 -16.2,34.5 -4.4,11.9 -9.1,23.7 -13.2,35.7 l -10.1,36.8 c -3.4,12.2 -4.9,24.8 -7.5,37.2 -2.2,12.4 -4.4,24.9 -5.2,37.5 l -3.4,37.7 c -1,12.6 -0.5,25.2 -0.7,37.8 -0.1,12.5 -0.4,25.1 0.2,37.7 1.9,25 3.6,50.1 6.6,74.9 4,24.7 8,49.4 13.1,73.9 0,-25.1 -1,-49.9 -1.9,-74.7 -0.3,-24.8 0.5,-49.6 0.1,-74.3 1.5,-24.6 2.2,-49.3 4.2,-73.7 3.2,-24.4 4.3,-49 9.6,-72.9 7.5,-48.4 20.8,-95.7 40.4,-140.3 4.6,-11.3 11,-21.7 16.2,-32.8 3,-5.3 6.2,-10.4 9.4,-15.7 3.1,-5.2 6.3,-10.5 10,-15.3 13.7,-20.3 29.9,-39.1 49.6,-54.4"
         style="fill:#1f4068;fill-opacity:1;fill-rule:nonzero;stroke:none"
         id="path140" /><path
         d="m 13382.4,11845 c -38,-9.6 -78.9,-8.9 -117.8,1.3 -39,10 -75.9,31.3 -103.8,61.2 -13.7,15.2 -25.4,31.9 -35.1,49.7 -4.2,9.2 -9,18.1 -12.3,27.7 -1.7,4.7 -3.7,9.3 -5.2,14 l -4.1,14.5 c -10.6,38.5 -13.5,78.3 -10.6,117.3 6.6,-38.5 14.5,-76.4 27.7,-111.9 12.9,-35.5 31,-68.8 56.4,-95.6 24.8,-27.3 57,-47.1 92.2,-59.9 35.4,-12.5 73.6,-18.4 112.6,-18.3"
         style="fill:#1f4068;fill-opacity:1;fill-rule:nonzero;stroke:none"
         id="path142" /><path
         d="m 12288.2,13023.8 c 12.3,18.3 21.7,37.9 29.7,58.1 8.2,20 14.9,40.6 20.8,61.4 11.7,41.6 20,84.1 25.3,127.1 6.5,42.9 8.8,86.3 11.8,129.7 0.5,21.8 1.6,43.6 2.4,65.5 0.3,21.9 0.6,43.8 1.9,65.9 3.8,-21.7 6.5,-43.6 9.4,-65.5 1.8,-21.9 3.2,-44 4.2,-66.1 0.1,-22.1 0.2,-44.2 -0.8,-66.3 -1.6,-22.1 -2.9,-44.3 -6.2,-66.3 -2.7,-22 -7.3,-43.8 -11.7,-65.6 l -8.8,-32.2 c -2.9,-10.8 -7,-21.2 -10.5,-31.7 -3.7,-10.5 -8.3,-20.8 -12.6,-31 -4.9,-10 -9.6,-20.1 -15.1,-29.8 -11,-19.3 -23.6,-38.1 -39.8,-53.2"
         style="fill:#1f4068;fill-opacity:1;fill-rule:nonzero;stroke:none"
         id="path144" /><path
         d="m 7987.93,13761.8 c 7.85,26.9 17.1,53.1 25.39,79.7 8.07,26.7 17.1,53 24.77,79.7 3.93,13.3 7.89,26.6 12.07,39.8 l 11.3,40.1 c 7.98,26.6 14.65,53.5 21.85,80.3 13.88,53.7 26.28,107.7 37.6,162 11,54.4 21.16,109 28.6,164.4 2.1,-56 -3.18,-112 -10.96,-167.4 -7.82,-55.5 -19.41,-110.4 -33.05,-164.8 -14.72,-54 -30.5,-107.8 -50.51,-160.1 -9.18,-26.4 -20.6,-52.1 -31.19,-77.9 -11.25,-25.6 -23.36,-50.8 -35.87,-75.8"
         style="fill:#1f4068;fill-opacity:1;fill-rule:nonzero;stroke:none"
         id="path146" /><path
         d="m 7298.34,12511.9 c -0.6,19.1 2.37,38.4 6.18,57.2 3.94,18.8 8.71,37.5 14.35,55.9 5.33,18.5 12.46,36.4 18.83,54.6 7.3,17.7 14.31,35.7 22.3,53.2 8.13,17.4 15.75,35.1 24.6,52.2 l 26.45,51.2 c 18.97,33.4 37.72,66.9 58.24,99.3 40.3,65.4 84.42,128.2 130.22,189.6 22.9,30.7 47.14,60.4 70.91,90.4 12.1,14.9 24.29,29.3 35.91,44.5 l 34.93,45.6 c -38.37,-66.4 -84.16,-128.2 -127.22,-190.9 -42.63,-63.3 -85.66,-126.2 -125.27,-191.2 -40.55,-64.4 -78.6,-130.4 -112.65,-198.3 -8.78,-16.9 -16.2,-34.3 -24.61,-51.4 -7.43,-17.4 -15.52,-34.7 -22.08,-52.5 -14.06,-35.2 -26.42,-71.5 -31.09,-109.4"
         style="fill:#1f4068;fill-opacity:1;fill-rule:nonzero;stroke:none"
         id="path148" /><path
         d="m 9977.2,7928.6 c -8.2,10.7 -15.96,21 -23.29,30.9 -7.32,9.9 -14.21,19.7 -20.65,29.4 -20.32,-15 -40.19,-26.7 -59.62,-35.1 -19.44,-8.4 -37.35,-12.6 -53.76,-12.6 -5.47,0 -10.99,1.3 -16.56,3.8 -5.56,2.5 -10.98,5.9 -16.26,10 -5.27,4.1 -10.25,8.6 -14.94,13.4 -4.68,4.9 -8.93,9.8 -12.74,14.5 -3.81,4.8 -7.03,9.2 -9.67,13.1 -2.63,3.9 -4.44,6.8 -5.42,8.8 -0.98,1.9 -2.15,4.2 -3.52,6.8 -1.36,2.7 -2.63,6.1 -3.8,10.3 -1.17,4.2 -2.15,9.4 -2.93,15.5 -0.78,6.2 -1.17,13.8 -1.17,22.7 0,13.5 1.32,28.2 3.95,44.1 2.64,15.9 7.37,33.1 14.21,51.4 6.83,18.4 16.16,38 27.98,58.8 11.82,20.8 26.9,42.7 45.26,65.8 1.36,-1.6 3.23,-3.7 5.57,-6.2 2.34,-2.5 4.93,-5.5 7.76,-8.8 2.83,-3.3 5.86,-6.8 9.08,-10.5 3.23,-3.7 6.4,-7.5 9.52,-11.2 1.18,17.8 4.5,35.2 9.97,52.3 5.46,17.1 12.35,33.2 20.65,48.4 8.3,15.1 17.77,29.1 28.42,41.9 10.64,12.8 21.68,23.7 33.11,32.9 11.42,9.2 22.89,16.4 34.42,21.6 11.52,5.1 22.43,7.7 32.83,7.7 6.2,0 12.5,-1.2 18.9,-3.6 6.3,-2.5 12.5,-5.7 18.6,-9.7 6,-4 11.8,-8.4 17.4,-13.2 5.6,-4.8 10.6,-9.6 15.1,-14.3 4.5,-4.8 8.3,-9.3 11.6,-13.5 3.2,-4.2 5.6,-7.6 7.2,-10.1 1.3,-2.4 2.8,-4.7 4.3,-7.1 1.6,-2.3 3.1,-5.5 4.4,-9.6 1.4,-4.1 2.6,-9.6 3.6,-16.4 0.9,-6.9 1.4,-16 1.4,-27.3 0,-27.3 -3.5,-54.4 -10.7,-81.3 -7.1,-26.8 -16.8,-52.7 -29,-77.6 -12.2,-24.9 -26.3,-48.5 -42.5,-70.8 -16.1,-22.2 -33.2,-42.5 -51.37,-60.6 12.49,-18 25.87,-35.1 40.17,-51.4 14.2,-16.3 28.8,-32.9 43.6,-49.7 -11.5,-0.6 -25.1,-1.3 -40.9,-2.2 -15.7,-0.9 -32.43,-1.3 -50.2,-1.3 m -119.82,264.5 c -7.62,-10.7 -14.75,-21.8 -21.39,-33.4 -6.64,-11.5 -12.74,-23 -18.31,-34.4 -5.57,-11.4 -10.54,-22.5 -14.94,-33.4 -4.4,-10.8 -8.11,-20.9 -11.13,-30.1 -3.04,-9.3 -5.38,-17.5 -7.03,-24.7 -1.66,-7.1 -2.5,-12.7 -2.5,-16.8 0,-3.1 0.59,-6.1 1.76,-8.9 1.17,-2.9 2.64,-5.4 4.4,-7.5 1.76,-2.2 3.61,-3.9 5.56,-5.1 1.95,-1.3 3.71,-1.9 5.28,-1.9 13.28,0 28.51,4.4 45.7,13.3 17.18,8.9 35.06,21.2 53.61,37 -11.91,23.1 -21.24,46.4 -27.97,69.9 -6.75,23.6 -11.09,48.9 -13.04,76 m 181.02,222.7 c -11.9,0 -23.1,-2.5 -33.7,-7.5 -10.51,-5 -20.28,-11.7 -29.26,-20.2 -8.98,-8.5 -17.04,-18.4 -24.16,-29.7 -7.14,-11.4 -13.19,-23.4 -18.17,-36.1 -4.98,-12.7 -8.79,-25.8 -11.43,-39.4 -2.63,-13.5 -3.95,-26.7 -3.95,-39.4 0,-29.1 2.64,-55.6 7.91,-79.5 5.27,-23.9 12.6,-46.2 21.97,-66.9 15.82,18.3 30.86,38.4 45.12,60.3 14.27,21.9 26.77,44.8 37.47,68.9 10.8,24 19.3,48.8 25.7,74.5 6.3,25.7 9.5,51.4 9.5,77.2 0,7 -0.8,12.9 -2.4,17.7 -1.5,4.8 -3.6,8.7 -6.1,11.8 -2.5,3 -5.4,5.1 -8.7,6.4 -3.2,1.3 -6.5,1.9 -9.8,1.9"
         style="fill:#feecd1;fill-opacity:1;fill-rule:nonzero;stroke:none"
         id="path150" /><path
         d="m 10116.4,7974.9 c -3.7,0 -7.8,1.1 -12.3,3.4 -4.5,2.2 -8.7,5 -12.5,8.3 -3.8,3.3 -7,7 -9.7,11.1 -2.6,4.1 -3.9,8 -3.9,11.8 0,4.3 1.4,11.4 4.2,21.3 2.9,10 6.7,21.9 11.5,35.8 4.7,13.8 10.4,29.4 16.8,46.6 6.4,17.2 13.4,35.2 20.8,54.2 0.4,0.8 0.7,1.3 0.9,1.3 0.1,0 0.1,0 0.1,0 l 1.6,-0.2 c 3.7,-0.6 8.8,-2.1 15.3,-4.5 6.4,-2.4 12.7,-5.1 18.9,-8.1 6.1,-2.9 11.4,-5.7 15.9,-8.3 4.5,-2.7 6.8,-4.5 6.8,-5.4 -0.6,-1.4 -2.1,-4.6 -4.6,-9.7 -2.4,-5.1 -5.2,-11.2 -8.5,-18.3 -3.2,-7.1 -6.6,-14.9 -10.2,-23.2 -3.6,-8.3 -6.9,-16.2 -10,-23.8 -3,-7.6 -5.5,-14.5 -7.4,-20.7 -2,-6.1 -3,-10.7 -3,-13.6 l 1.2,-1.2 c 1.6,0 5,2.1 10.2,6.3 5.3,4.2 11.8,10.8 19.5,19.8 7.7,9 16.5,20.6 26.3,34.7 9.7,14.2 19.9,31.2 30.4,51.1 l 8.2,23.2 c 0.6,1.5 1.9,2.3 3.8,2.3 1.4,0 4.4,-1.3 9,-3.9 4.6,-2.7 9.4,-5.7 14.6,-9.1 5.2,-3.4 9.8,-6.9 13.9,-10.3 4.1,-3.4 6.4,-5.8 6.8,-7.1 0,-0.6 -0.1,-1.7 -0.3,-3.1 -0.2,-1.5 -0.5,-2.7 -0.9,-3.7 -2,-5.3 -4.2,-11.5 -6.7,-18.6 -2.6,-7.1 -5.2,-14.5 -7.8,-22.3 -2.6,-7.7 -5.2,-15.4 -7.8,-23.2 -2.5,-7.9 -4.8,-15.1 -6.8,-21.9 -2.1,-6.7 -3.8,-12.7 -5,-17.8 -1.3,-5.2 -1.9,-9 -1.9,-11.3 0,-1.2 0.5,-1.8 1.7,-1.8 2.2,0 5.4,1.3 9.8,3.8 4.4,2.6 9.5,5.8 15.1,9.7 5.7,3.9 11.6,8.3 17.9,13.2 6.2,4.9 12.2,9.6 17.9,14.2 0.2,0.2 0.4,0.4 0.7,0.6 -2.3,-9.8 -3.5,-20.3 -3.6,-31.4 -6.5,-5.3 -13,-10.6 -19.8,-15.8 -8.3,-6.3 -16.4,-12 -24.2,-17 -7.8,-5 -15.1,-9 -22,-12.1 -6.8,-3.2 -12.5,-4.7 -17,-4.7 -3.3,0 -7,1 -11.1,3 -4.1,2.1 -8,4.7 -11.6,8 -3.6,3.2 -6.6,6.7 -9.1,10.7 -2.4,3.9 -3.6,7.6 -3.6,11.1 0,3.1 1.2,9.1 3.5,17.9 2.3,8.7 5.2,19 8.5,30.7 -8.8,-11.9 -17.4,-22.4 -25.8,-31.5 -8.4,-9.1 -16.1,-16.8 -23.1,-23.3 -7.1,-6.4 -13.2,-11.6 -18.5,-15.6 -5.3,-4 -9.2,-6.9 -11.7,-8.7 -1.6,-1 -3.4,-1.7 -5.6,-2.2 -2.1,-0.5 -4.1,-0.7 -5.8,-0.7"
         style="fill:#feecd1;fill-opacity:1;fill-rule:nonzero;stroke:none"
         id="path152" /><path
         d="m 10368.3,7969.9 c -5.3,0 -11.1,2 -17.6,5.9 -6.4,3.9 -12.4,8.6 -18,14.2 -5.5,5.5 -10.2,11.4 -13.9,17.4 -3.7,6.1 -5.6,11.2 -5.6,15.5 0,0.8 0,1.5 0.1,2.2 0.1,11.1 1.3,21.6 3.6,31.4 0.8,3.6 1.8,7.1 2.9,10.5 4.4,13.4 10.2,25.5 17.5,36.2 7.2,10.7 15.4,20.2 24.7,28.4 9.3,8.2 19,15.1 29,20.5 10.1,5.5 20.1,9.6 30.1,12.3 9.9,2.8 19.1,4.1 27.5,4.1 6,0 12,-1.7 18,-5.2 6,-3.6 11.4,-7.9 16.3,-12.9 4.8,-5.1 8.8,-10.4 11.8,-16 3.1,-5.6 4.6,-10.4 4.6,-14.5 0,-6.6 -2.8,-13.4 -8.4,-20.4 -5.5,-6.9 -13.4,-14 -23.6,-21.2 -10.1,-7.2 -22.3,-14.6 -36.6,-22.1 -14.2,-7.5 -30,-15.1 -47.2,-22.7 -0.5,-4.7 -0.8,-9.3 -0.8,-13.8 0,-6 1.3,-10.1 3.9,-12.3 2.7,-2.1 7.6,-3.2 14.8,-3.2 12.9,0 25.1,2.1 36.5,6.4 11.4,4.3 22.4,9.9 33,16.7 10.5,6.9 20.7,14.7 30.4,23.5 9.8,8.8 19.5,17.6 29,26.6 l 0.2,-0.1 c -2,-1.9 -3.9,-3.7 -5.7,-5.4 l 14,-14.4 c 0.5,0.4 1,0.9 1.5,1.3 -16.4,-15.7 -31.8,-29 -46.4,-40 -16,-11.9 -31.2,-21.5 -45.6,-28.7 -14.5,-7.2 -28.3,-12.4 -41.5,-15.5 -13.1,-3.1 -26,-4.7 -38.5,-4.7 m 73.3,166.4 c -4,0 -8.2,-2.1 -12.9,-6.3 -4.7,-4.2 -9.4,-9.7 -14.1,-16.5 -4.7,-6.9 -9.2,-14.7 -13.5,-23.6 -4.3,-8.9 -8,-18.1 -11.1,-27.7 7.2,4.7 14.3,9.7 21.2,14.9 7,5.3 13.2,10.8 18.6,16.6 5.5,5.7 9.9,11.7 13.2,17.7 3.3,6.1 5,12.1 5,18.2 0,1.7 -0.5,3.3 -1.6,4.7 -1.1,1.3 -2.7,2 -4.8,2"
         style="fill:#feecd1;fill-opacity:1;fill-rule:nonzero;stroke:none"
         id="path154" /><path
         d="m 10593.9,7973.1 c -5.7,0 -11.9,1.4 -18.8,4.1 -6.8,2.8 -13.2,6.1 -19.3,10 -6,3.9 -11.3,8 -15.8,12.3 -4.5,4.3 -7.1,7.9 -7.9,10.8 0,0.4 0.4,1.3 1.1,2.5 0.8,1.3 1.8,2.6 2.8,4 1.1,1.3 2.2,2.6 3.3,3.6 1,1.1 1.9,1.7 2.4,1.7 1.2,0 3.6,-0.9 7.1,-2.7 3.5,-1.7 9.4,-2.6 17.6,-2.6 4.4,0 8.3,1.1 11.5,3.5 3.3,2.3 5.9,5.5 8.1,9.4 2.1,3.9 3.7,8.4 4.7,13.4 1,5.1 1.4,10.5 1.4,16.2 0,8.2 -0.4,16.1 -1.1,23.8 -0.8,7.7 -1.7,15.2 -2.7,22.4 -3.3,-3.9 -7.1,-8 -11.4,-12.3 -4.3,-4.3 -8.6,-8.5 -13,-12.7 -4.4,-4.2 -8.8,-8.3 -13.2,-12.3 -3.8,-3.5 -7.3,-6.6 -10.4,-9.4 -0.5,-0.4 -1,-0.9 -1.5,-1.3 l -14,14.4 c 1.8,1.7 3.7,3.5 5.7,5.4 3,2.9 6.2,5.9 9.6,9.2 5.8,5.5 11.6,11.4 17.3,17.9 5.8,6.4 11.2,13.4 16.1,20.8 5,7.4 9,15.4 11.9,24 0.8,4.5 2,9.2 3.7,14.2 1.6,5 3.5,9.5 5.5,13.6 2.1,4.1 4.1,7.6 6,10.3 2,2.7 3.7,4.1 5.3,4.1 2.4,-1.4 5.9,-4 10.6,-7.8 4.6,-3.8 9.3,-7.8 14,-12.1 4.7,-4.3 8.9,-8.3 12.5,-11.9 3.6,-3.6 5.4,-5.8 5.4,-6.6 -2.4,-9 -3.5,-17.1 -3.4,-24.3 0.1,-7.2 0.7,-14.4 1.8,-21.4 1,-7 2.2,-14.5 3.5,-22.4 1.3,-7.9 1.9,-17 1.9,-27.4 0,-6.2 -1,-13.4 -3.1,-21.5 -2,-8.1 -5.6,-15.4 -10.7,-21.9 10,5.9 19.9,12.5 29.6,19.8 9.8,7.3 18.5,14.2 26.1,20.7 6.5,5.5 12.8,11 18.9,16.5 -3,-9.8 -5.5,-18.8 -7.6,-27.1 -0.7,-2.8 -1.4,-5.5 -2,-8 -4.8,-4.2 -9.7,-8.4 -14.7,-12.5 -8.1,-6.6 -16.4,-13 -24.8,-19 -8.4,-6.1 -16.7,-11.5 -24.9,-16.1 -8.2,-4.7 -16.1,-8.4 -23.7,-11.2 -7.6,-2.7 -14.8,-4.1 -21.4,-4.1"
         style="fill:#feecd1;fill-opacity:1;fill-rule:nonzero;stroke:none"
         id="path156" /><path
         d="m 10748,7974.9 c -3.3,0 -7.7,1.5 -13,4.5 -5.4,3.1 -10.6,6.8 -15.7,11.2 -5.1,4.4 -9.5,8.9 -13.2,13.6 -3.7,4.7 -5.6,8.7 -5.6,12 0,4.5 1,11.1 2.9,19.8 0.6,2.5 1.3,5.2 2,8 2.1,8.3 4.6,17.3 7.6,27.1 1.6,5.2 3.3,10.7 5.1,16.4 5.3,16.3 11.3,33.8 18,52.3 6.8,18.6 13.6,36.7 20.4,54.5 h -41.3 -0.3 l -0.3,0.6 c 0,1.2 0.4,2.9 1.3,5.1 0.9,2.3 2,4.6 3.2,7.1 1.3,2.4 2.8,4.6 4.4,6.7 1.7,2.1 3.3,3.4 4.9,4 l 38.1,1.7 c 5.4,13.3 10.6,25.6 15.6,36.8 5,11.2 9.5,20.8 13.4,28.8 0.9,2.2 2,4.5 3,6.9 1.1,2.5 2.7,4.9 4.7,7.3 2.1,2.5 4.8,5 8.2,7.7 3.4,2.6 8.1,5.3 13.9,8 4.3,2.2 9.6,4.5 15.7,7.1 6.2,2.5 12.2,4.8 18.2,7 5.9,2.1 11.4,3.9 16.2,5.4 4.9,1.5 8.4,2.2 10.6,2.2 1.9,0 2.9,-0.4 2.9,-1.2 v -0.6 l -0.6,-1.4 c -1.1,-2 -3.3,-6.2 -6.4,-12.8 -3.1,-6.5 -7,-14.7 -11.6,-24.6 -4.6,-9.8 -9.7,-21.1 -15.2,-33.7 -5.6,-12.6 -11.3,-25.9 -17.2,-40 l 70.4,2.7 c 1.9,0 2.5,-1.2 1.7,-3.5 -0.8,-2.4 -2.2,-5.1 -4.4,-8.2 -2.1,-3.2 -4.6,-6.4 -7.5,-9.7 -2.8,-3.3 -5.2,-5.9 -7.1,-7.6 -0.4,-0.4 -1.2,-0.8 -2.4,-1.2 -1.2,-0.4 -2.6,-0.6 -4.4,-0.6 h -58 c -7,-17 -13.8,-34.2 -20.2,-51.5 -6.4,-17.4 -12.2,-33.9 -17.3,-49.6 -5.1,-15.6 -9.1,-29.9 -12.1,-43 -3.1,-13.1 -4.6,-23.9 -4.6,-32.3 0,-1.1 0.6,-1.7 1.8,-1.7 2.1,0 5.4,1.2 9.6,3.7 4.3,2.4 9.2,5.6 14.6,9.5 5.3,3.9 11,8.2 17.1,12.9 6,4.7 11.8,9.3 17.3,13.9 5.4,4.6 10.4,8.8 14.8,12.6 4.4,3.8 7.7,6.7 10.1,8.6 0.1,-0.1 0.2,-0.3 0.4,-0.4 -0.8,-2.3 -1.6,-4.6 -2.3,-6.9 -3.5,-10.4 -6.7,-20.7 -9.8,-30.8 -3.9,-3.6 -8,-7.2 -12.2,-10.8 -7.5,-6.4 -15.3,-12.9 -23.4,-19.3 -8.1,-6.5 -16.1,-12.2 -23.8,-17.3 -7.7,-5.1 -14.9,-9.2 -21.5,-12.3 -6.6,-3.2 -12.2,-4.7 -16.7,-4.7"
         style="fill:#feecd1;fill-opacity:1;fill-rule:nonzero;stroke:none"
         id="path158" /><path
         d="m 10875.7,7974.9 c -2.9,0 -6.6,1 -11.1,3.1 -4.5,2 -8.8,4.6 -12.9,7.6 -4.1,3 -7.6,6.4 -10.5,10.1 -3,3.7 -4.4,7.3 -4.4,10.8 1.9,8.6 4.6,18.5 7.9,29.6 0.3,1.1 0.6,2.1 0.9,3.2 3.1,10.1 6.3,20.4 9.8,30.8 0.7,2.3 1.5,4.6 2.3,6.9 3.1,9.1 6.3,18.1 9.7,26.9 4.2,11.1 8,20.9 11.4,29.5 3.4,8.6 6.4,15.5 8.9,20.8 2.6,5.3 4.2,7.9 5,7.9 1.2,0 4.1,-1.3 8.8,-3.8 4.7,-2.6 9.6,-5.6 14.8,-9.2 5.2,-3.7 9.8,-7.5 13.9,-11.5 4.1,-4 6.2,-7.4 6.2,-10.4 l -0.3,-2.2 c -0.2,-0.8 -0.5,-2 -0.9,-3.3 -1.6,-4.9 -3.6,-10.7 -6,-17.3 -2.4,-6.7 -5,-13.6 -7.8,-20.7 -2.7,-7.1 -5.4,-14.2 -8.2,-21.4 -2.7,-7.1 -5.1,-13.8 -7.3,-20 -2.1,-6.3 -3.9,-11.8 -5.3,-16.4 -1.3,-4.7 -2,-8.1 -2,-10.3 0,-1.2 0.6,-1.8 1.7,-1.8 2.2,0 5.4,1.3 9.7,3.9 4.3,2.5 9.2,5.8 14.8,9.9 5.6,4.1 11.4,8.6 17.4,13.5 5.8,4.7 11.4,9.3 16.8,13.9 -1.8,-9.8 -2.7,-19.8 -2.7,-29.7 0,-0.3 0,-0.6 0,-0.9 -6,-5.1 -12.2,-10.2 -18.6,-15.2 -8.1,-6.5 -16,-12.2 -23.6,-17.3 -7.6,-5.1 -14.7,-9.2 -21.4,-12.3 -6.6,-3.2 -12.3,-4.7 -17,-4.7 m 85.9,222.6 c -3.5,0.2 -7.8,1.3 -12.8,3.3 -5,1.9 -9.7,4.1 -14.3,6.6 -4.6,2.4 -8.5,4.8 -11.7,7.1 -3.3,2.4 -4.9,4 -4.9,5 0,4.1 1.2,9.4 3.5,16 2.4,6.5 5.1,12.9 8.2,19 3.2,6.2 6.3,11.5 9.6,16 3.2,4.5 5.7,6.7 7.4,6.7 3.5,0 7.8,-1.1 12.9,-3.3 5.1,-2.3 10,-4.9 14.8,-7.8 4.8,-2.9 8.9,-5.8 12.3,-8.6 3.4,-2.9 5.2,-4.9 5.2,-6.1 -0.2,-0.7 -1,-2.6 -2.2,-5.7 -1.3,-3 -2.8,-6.5 -4.6,-10.5 -1.8,-4 -3.7,-8.2 -6,-12.6 -2.2,-4.4 -4.4,-8.5 -6.6,-12.2 -2.1,-3.7 -4.2,-6.8 -6.1,-9.2 -2,-2.4 -3.6,-3.7 -4.7,-3.7"
         style="fill:#feecd1;fill-opacity:1;fill-rule:nonzero;stroke:none"
         id="path160" /><path
         d="m 11009,7974.9 c -5.8,0 -11.9,1.7 -18.1,5.3 -6.3,3.5 -11.9,7.8 -17,13 -5.1,5.2 -9.3,10.7 -12.6,16.5 -3.1,5.5 -4.8,10.4 -5,14.7 0,0.3 0,0.6 0,0.9 0,9.9 0.9,19.9 2.7,29.7 0.9,4.9 2,9.7 3.3,14.5 4,14.7 10.3,28.4 18.8,41.2 8.5,12.8 19.3,24 32.5,33.8 13.2,9.8 28.8,17.2 47,22.3 0.6,0.4 1.6,0.7 3.1,0.9 1.4,0.2 2.7,0.2 3.6,0.2 2.8,0 5.6,-1 8.7,-3 3,-2.1 5.8,-4.4 8.5,-6.9 2.6,-2.6 4.8,-5 6.6,-7.5 1.7,-2.4 2.6,-4 2.6,-4.8 -0.4,-1 -1.9,-2.2 -4.4,-3.7 -2.5,-1.4 -5.9,-3.9 -10.2,-7.4 -4.3,-3.6 -9.4,-8.6 -15.3,-15.1 -5.8,-6.6 -12.3,-15.2 -19.3,-26 -10.6,-15.8 -17.7,-30.1 -21.4,-42.9 -3.7,-12.8 -5.6,-22.7 -5.6,-29.7 0,-5.9 2.2,-8.8 6.5,-8.8 4.5,0 10.4,3.6 17.8,10.7 7.5,7.1 15.2,16.1 23.2,27.1 -0.4,2.1 -0.6,4 -0.7,5.7 -0.1,1.7 -0.2,3.2 -0.2,4.5 0,3.9 0.5,8.6 1.3,14 0.9,5.3 3.1,11.4 6.6,18.3 2.4,5.2 5.2,10.4 8.5,15.5 2.8,4.5 6.1,9.3 10,14.5 3.9,5.2 8.2,10 12.9,14.5 l 1.7,1.8 c 2,-2.4 4.6,-5.6 7.8,-9.6 3.2,-4 6.4,-8.1 9.7,-12.3 3.2,-4.2 6,-8 8.5,-11.5 2.4,-3.6 3.9,-6 4.5,-7.4 0,-8.4 -1.5,-16.8 -4.5,-25.2 -3.1,-8.4 -7.1,-16.7 -12.2,-24.9 11.7,0.8 22.6,3.8 32.7,9 6.9,3.5 14.1,8.7 21.4,15.4 -1,-3.5 -1.9,-6.8 -2.8,-10.2 -2.2,-7.8 -4.1,-15.1 -5.7,-21.7 -5.2,-3.1 -10.4,-5.8 -15.6,-8 -7.9,-3.3 -15.9,-5.7 -24.1,-7.2 -8.2,-1.4 -16.6,-2.2 -25.2,-2.2 -6.7,-7 -13.8,-13.4 -21.4,-19.3 -7.6,-5.9 -15.4,-10.9 -23.3,-15.2 -7.9,-4.3 -15.8,-7.7 -23.6,-10 -7.8,-2.3 -15.2,-3.5 -22.3,-3.5"
         style="fill:#feecd1;fill-opacity:1;fill-rule:nonzero;stroke:none"
         id="path162" /><path
         d="m 11205.9,7971.7 c -3.3,0 -7.1,0.9 -11.3,2.7 -4.2,1.9 -8.5,4.3 -12.9,7.4 -4.4,3 -8.8,6.4 -13.1,10.1 -4.4,3.7 -8.4,7.4 -11.9,11.1 0,1.2 0.5,4.5 1.6,10 1.1,5.4 2.6,12.3 4.5,20.6 0.6,2.2 1.1,4.4 1.7,6.7 1.6,6.6 3.5,13.9 5.7,21.7 0.9,3.4 1.8,6.7 2.8,10.2 2.2,7.5 4.6,15.3 7.1,23.4 3.7,11.7 7.8,23.7 12.2,35.9 4.4,12.2 9.1,23.9 14.2,35.3 8.2,-3.9 17.3,-8.7 27.4,-14.4 10,-5.6 19.4,-12.3 28,-19.9 -2.4,-6.3 -4.7,-12.6 -7.1,-19 -2.3,-6.5 -4.7,-13.1 -7,-20 12.3,14.1 22.9,25.6 31.8,34.5 8.9,8.8 16.4,15.8 22.5,20.9 6.2,5.1 11.2,8.6 15,10.4 3.8,1.9 6.8,2.8 8.9,2.8 2.6,0 6.4,-1.3 11.4,-3.8 5.1,-2.6 10.3,-5.7 15.4,-9.4 5.2,-3.7 9.7,-7.5 13.5,-11.4 3.8,-3.9 5.7,-7.3 5.7,-10.3 l -0.3,-2.2 c -0.2,-0.8 -0.5,-2 -0.9,-3.3 -1.5,-4.9 -3.5,-10.7 -6,-17.3 -2.4,-6.7 -5,-13.6 -7.7,-20.7 -2.8,-7.1 -5.5,-14.2 -8.2,-21.4 -2.8,-7.1 -5.2,-13.8 -7.3,-20 -2.2,-6.3 -4,-11.8 -5.3,-16.4 -1.4,-4.7 -2.1,-8.1 -2.1,-10.3 0,-1.2 0.6,-1.8 1.8,-1.8 2.1,0 5.4,1.3 9.7,3.9 4.2,2.5 9.2,5.8 14.7,9.9 5.6,4.1 11.4,8.6 17.5,13.5 6,4.9 11.8,9.7 17.4,14.5 5.6,4.8 10.6,9.1 15.1,13 4.5,3.9 7.9,6.9 10.3,8.8 1.9,-1.7 4.1,-4 6.4,-6.7 2.3,-2.8 4.6,-5.3 6.7,-7.6 -4.3,-4.3 -9.6,-9.6 -16.1,-15.7 -6.4,-6.2 -13.4,-12.5 -20.9,-18.9 -7.5,-6.4 -15.4,-12.9 -23.5,-19.3 -8.1,-6.5 -15.9,-12.2 -23.5,-17.3 -7.7,-5.1 -14.8,-9.2 -21.4,-12.3 -6.7,-3.2 -12.2,-4.7 -16.7,-4.7 -3,0 -6.7,1 -11.2,3.1 -4.5,2 -8.8,4.6 -13,7.6 -4.2,3 -7.8,6.4 -10.7,10.1 -2.9,3.7 -4.4,7.3 -4.4,10.8 1.8,8 4.2,17.1 7.2,27.3 3,10.1 6.3,20.5 9.8,31.2 3.5,10.6 7.2,21.2 11,31.6 3.8,10.5 7.5,20.1 11,28.9 l -0.6,-0.6 c -3.7,-4.5 -9,-10.4 -16,-17.7 -6.9,-7.4 -14.8,-16.7 -23.6,-28.2 -8.8,-11.4 -18,-25.2 -27.8,-41.3 -9.8,-16.1 -19.3,-35.2 -28.7,-57.3 -1.2,-2.7 -2.3,-4.8 -3.2,-6.4 -1,-1.6 -2.9,-2.3 -5.6,-2.3"
         style="fill:#feecd1;fill-opacity:1;fill-rule:nonzero;stroke:none"
         id="path164" /><path
         d="m 12310.3,10834.6 c -5.4,0 -9.8,4.3 -10,9.8 -0.1,5.5 4.3,10.1 9.8,10.2 0.2,0 22.1,0.6 60.3,0.2 5.5,0 10,-4.6 9.9,-10.1 -0.1,-5.5 -4.5,-9.9 -10,-9.9 h -0.1 c -37.9,0.4 -59.4,-0.2 -59.6,-0.2 h -0.3"
         style="fill:#a65b3c;fill-opacity:1;fill-rule:nonzero;stroke:none"
         id="path166" /><path
         d="m 12629.9,10822.7 h -0.9 c -43.2,3.5 -86.8,6.3 -129.4,8.3 -5.5,0.2 -9.7,4.9 -9.5,10.4 0.3,5.6 5.1,9.6 10.5,9.6 42.8,-2.1 86.5,-4.9 130,-8.4 5.5,-0.4 9.7,-5.2 9.2,-10.7 -0.4,-5.3 -4.8,-9.2 -9.9,-9.2 z m 258.2,-29 -1.4,0.1 c -42.1,6.1 -85.4,11.7 -128.6,16.5 -5.5,0.6 -9.4,5.6 -8.8,11.1 0.6,5.5 5.5,9.4 11,8.8 43.4,-4.9 86.9,-10.5 129.3,-16.6 5.4,-0.8 9.2,-5.9 8.4,-11.4 -0.7,-5 -5,-8.5 -9.9,-8.5 z m 255.7,-46.7 -2.2,0.3 c -41.3,9.1 -84.1,17.7 -127,25.5 -5.5,1 -9.1,6.2 -8.1,11.7 1,5.4 6.2,9 11.6,8 43.3,-7.8 86.3,-16.5 127.8,-25.7 5.4,-1.2 8.8,-6.6 7.6,-12 -1,-4.6 -5.2,-7.8 -9.7,-7.8 z m 250.8,-67.1 c -1,0 -2,0.1 -3,0.4 -40.1,12.8 -81.9,25 -124.2,36.3 -5.3,1.4 -8.5,6.9 -7.1,12.2 1.4,5.4 6.9,8.5 12.3,7.1 42.6,-11.4 84.7,-23.7 125.1,-36.5 5.2,-1.7 8.1,-7.3 6.5,-12.6 -1.4,-4.2 -5.3,-6.9 -9.6,-6.9 z m 242.8,-92.3 c -1.4,0 -2.8,0.3 -4.1,0.9 -38.2,17.2 -78.4,33.8 -119.5,49.4 -5.2,1.9 -7.8,7.7 -5.8,12.9 1.9,5.1 7.7,7.7 12.9,5.8 41.5,-15.7 82.1,-32.5 120.6,-49.9 5.1,-2.3 7.3,-8.2 5,-13.2 -1.6,-3.7 -5.3,-5.9 -9.1,-5.9"
         style="fill:#a65b3c;fill-opacity:1;fill-rule:nonzero;stroke:none"
         id="path168" /><path
         d="m 13806,10500.9 c -1.7,0 -3.5,0.5 -5,1.4 -16.8,9.8 -34.2,19.6 -52,29.2 -4.9,2.6 -6.7,8.7 -4.1,13.5 2.7,4.9 8.7,6.7 13.6,4.1 18,-9.7 35.7,-19.6 52.6,-29.5 4.7,-2.8 6.3,-9 3.5,-13.7 -1.8,-3.2 -5.2,-5 -8.6,-5"
         style="fill:#a65b3c;fill-opacity:1;fill-rule:nonzero;stroke:none"
         id="path170" /><path
         d="m 6858.53,10295.9 c -4.02,0 -7.81,2.4 -9.34,6.4 -1.97,5.2 0.6,11 5.75,12.9 0.2,0.1 20.44,7.9 56.57,20.7 5.19,1.8 10.92,-0.9 12.76,-6.1 1.85,-5.2 -0.88,-10.9 -6.08,-12.8 -35.85,-12.7 -55.88,-20.3 -56.07,-20.4 -1.18,-0.5 -2.39,-0.7 -3.59,-0.7"
         style="fill:#a65b3c;fill-opacity:1;fill-rule:nonzero;stroke:none"
         id="path172" /><path
         d="m 8521.05,10611 h -0.36 c -37.99,1.3 -77.43,1.8 -116.73,1.4 h -0.1 c -5.48,0 -9.94,4.4 -10,9.9 -0.06,5.5 4.37,10 9.89,10.1 39.61,0.4 79.35,-0.1 117.66,-1.4 5.51,-0.2 9.83,-4.9 9.63,-10.4 -0.19,-5.4 -4.62,-9.6 -9.99,-9.6 z m -351.4,-10.2 c -5.14,0 -9.51,3.9 -9.95,9.1 -0.48,5.5 3.6,10.4 9.1,10.8 39.62,3.5 79.1,6.2 117.36,8.1 5.48,0.3 10.21,-4 10.49,-9.5 0.27,-5.5 -3.97,-10.2 -9.49,-10.5 -38.02,-1.9 -77.26,-4.6 -116.65,-8 z m -232.86,-27.4 c -4.88,0 -9.15,3.6 -9.88,8.6 -0.8,5.4 2.98,10.5 8.44,11.3 39.25,5.8 78.44,11 116.49,15.5 5.46,0.5 10.46,-3.3 11.1,-8.8 0.65,-5.5 -3.27,-10.4 -8.76,-11.1 -37.86,-4.4 -76.86,-9.6 -115.92,-15.4 z m -230.98,-40 c -4.68,0 -8.86,3.3 -9.8,8.1 -1.07,5.4 2.45,10.7 7.87,11.7 38.75,7.7 77.61,14.9 115.51,21.5 5.43,1 10.62,-2.7 11.57,-8.1 0.94,-5.5 -2.7,-10.6 -8.15,-11.6 -37.74,-6.5 -76.45,-13.7 -115.05,-21.4 z m -228.98,-50.6 c -4.5,0 -8.59,3.1 -9.71,7.6 -1.3,5.4 1.99,10.8 7.36,12.1 38.16,9.3 76.65,18.2 114.42,26.6 5.35,1.2 10.73,-2.2 11.93,-7.6 1.19,-5.4 -2.22,-10.7 -7.61,-11.9 -37.63,-8.4 -75.99,-17.3 -114.02,-26.5 z m -226.75,-59.9 c -4.36,0 -8.36,2.8 -9.62,7.2 -1.51,5.3 1.57,10.9 6.88,12.4 37.68,10.7 75.79,21.2 113.28,31.1 5.36,1.4 10.81,-1.8 12.22,-7.1 1.41,-5.3 -1.77,-10.8 -7.11,-12.2 -37.36,-9.9 -75.34,-20.3 -112.91,-31 -0.91,-0.3 -1.83,-0.4 -2.74,-0.4 z m -224.32,-68.7 c -4.21,0 -8.12,2.7 -9.5,6.9 -1.72,5.3 1.14,10.9 6.39,12.6 36.67,12.1 74.36,24 112.02,35.5 5.29,1.6 10.87,-1.4 12.49,-6.6 1.61,-5.3 -1.36,-10.9 -6.64,-12.5 -37.54,-11.5 -75.1,-23.4 -111.64,-35.4 -1.04,-0.3 -2.09,-0.5 -3.12,-0.5"
         style="fill:#a65b3c;fill-opacity:1;fill-rule:nonzero;stroke:none"
         id="path174" /><path
         d="m 8697.34,10597.6 -1.2,0.1 c -19.36,2.3 -39.34,4.3 -59.41,6.1 -5.5,0.5 -9.56,5.4 -9.07,10.9 0.48,5.5 5.27,9.5 10.84,9 20.26,-1.7 40.46,-3.8 60.01,-6.2 5.48,-0.6 9.4,-5.6 8.75,-11.1 -0.61,-5.1 -4.93,-8.8 -9.92,-8.8"
         style="fill:#a65b3c;fill-opacity:1;fill-rule:nonzero;stroke:none"
         id="path176" /><path
         d="m 14081,10493 c -3.6,0 -7.1,1.9 -8.9,5.3 -2.5,4.9 -0.6,11 4.3,13.5 38.2,19.9 77,33.7 115.2,41.1 5.4,1 10.6,-2.5 11.7,-8 1,-5.4 -2.5,-10.6 -7.9,-11.7 -36.3,-7 -73.3,-20.1 -109.8,-39.1 -1.4,-0.8 -3,-1.1 -4.6,-1.1 z m -187.3,-148.3 c -2.5,0 -4.9,0.9 -6.9,2.7 -4,3.8 -4.2,10.1 -0.4,14.1 29.2,31.2 59,59.1 88.6,83 4.3,3.5 10.5,2.8 14,-1.5 3.5,-4.3 2.8,-10.6 -1.5,-14.1 -28.8,-23.3 -57.9,-50.6 -86.5,-81.1 -2,-2.1 -4.7,-3.1 -7.3,-3.1 z m -147.2,-189.7 c -1.9,0 -3.8,0.5 -5.5,1.6 -4.6,3 -5.8,9.2 -2.8,13.9 23,34.9 46.5,68.1 70,98.6 3.3,4.4 9.6,5.2 14,1.8 4.4,-3.4 5.2,-9.6 1.8,-14 -23.1,-30.1 -46.4,-62.9 -69.1,-97.4 -1.9,-3 -5.1,-4.5 -8.4,-4.5 z m -120.3,-208.1 c -1.5,0 -3,0.3 -4.5,1.1 -4.9,2.5 -6.9,8.5 -4.4,13.4 18.7,36.5 38.1,72.2 57.6,106.2 2.8,4.7 8.9,6.4 13.7,3.6 4.8,-2.7 6.4,-8.8 3.7,-13.6 -19.4,-33.7 -38.6,-69.1 -57.1,-105.3 -1.8,-3.4 -5.3,-5.4 -9,-5.4 z m -99.2,-219.5 c -1.2,0 -2.4,0.2 -3.6,0.6 -5.1,2 -7.7,7.7 -5.8,12.9 0.2,0.5 16.9,44.9 47.3,111.8 2.2,5 8.1,7.3 13.2,4.9 5,-2.2 7.3,-8.2 5,-13.2 -30.1,-66.2 -46.6,-110.1 -46.8,-110.5 -1.5,-4 -5.3,-6.5 -9.3,-6.5"
         style="fill:#a65b3c;fill-opacity:1;fill-rule:nonzero;stroke:none"
         id="path178" /><path
         d="m 6597.84,10253.6 -1.34,0.1 c -38.84,5.2 -78.44,5.7 -117.19,1.4 -5.53,-0.5 -10.43,3.4 -11.03,8.9 -0.6,5.5 3.37,10.4 8.85,11 40.37,4.4 81.6,3.9 122.03,-1.5 5.47,-0.7 9.31,-5.8 8.58,-11.2 -0.67,-5.1 -4.97,-8.7 -9.9,-8.7 z m 223.87,-81.2 c -1.74,0 -3.5,0.4 -5.1,1.4 -35.15,20.9 -70.91,38.1 -106.27,51.2 -5.18,1.9 -7.83,7.7 -5.91,12.8 1.92,5.2 7.69,7.9 12.85,5.9 36.5,-13.5 73.36,-31.2 109.55,-52.7 4.75,-2.8 6.3,-9 3.49,-13.7 -1.87,-3.2 -5.2,-4.9 -8.61,-4.9 z m 187.31,-149.3 c -2.56,0 -5.14,1 -7.09,3 -28.95,29.1 -58.6,56 -88.16,79.8 -4.3,3.4 -4.97,9.7 -1.51,14 3.47,4.3 9.76,5 14.06,1.5 30.13,-24.2 60.34,-51.6 89.8,-81.2 3.89,-3.9 3.87,-10.3 -0.05,-14.2 -1.95,-1.9 -4.5,-2.9 -7.05,-2.9 z m 153.86,-184.3 c -3.13,0 -6.21,1.5 -8.16,4.2 -23.5,33 -47.97,64.9 -72.74,94.7 -3.52,4.3 -2.94,10.6 1.31,14.1 4.25,3.5 10.56,2.9 14.08,-1.3 25.08,-30.2 49.86,-62.5 73.65,-95.9 3.2,-4.5 2.15,-10.8 -2.35,-14 -1.76,-1.2 -3.79,-1.8 -5.79,-1.8 z m 125.35,-205.4 c -3.71,0 -7.28,2.1 -9.01,5.6 -0.2,0.4 -20.86,42.8 -58.57,104.3 -2.88,4.7 -1.41,10.8 3.3,13.7 4.71,2.9 10.86,1.4 13.76,-3.3 38.26,-62.4 59.3,-105.5 59.5,-105.9 2.41,-5 0.34,-11 -4.62,-13.4 -1.41,-0.7 -2.9,-1 -4.36,-1"
         style="fill:#a65b3c;fill-opacity:1;fill-rule:nonzero;stroke:none"
         id="path180" /><path
         d="M 8837.91,2474.9 H 7494.2 l 311.6,3377.4 -37.8,149.4 1160.4,2187.2 c 0,0 -75.26,-1168.8 82.64,-2030 58.05,-316.7 142.41,-452.4 250.61,-452.3 79.26,0 171.34,72.9 275.16,200.8 336.17,414.4 579.69,1199.9 579.69,1199.9 C 9849.94,6139.5 9177.34,4897.9 8632.85,3986.6 L 9646.3,3241.7 13018,2825.4 c 0,0 -1.3,0 -3.8,0 -71.4,0 -1153.5,-0.5 -3478.31,-30.3 -403.15,-5.2 -697.98,-320.2 -697.98,-320.2"
         style="fill:#d67813;fill-opacity:1;fill-rule:nonzero;stroke:none"
         id="path182" /><path
         d="m 13436.2,4717.7 -133.5,3152.6 392.3,-3081.7 -258.8,-70.9"
         style="fill:#d67813;fill-opacity:1;fill-rule:nonzero;stroke:none"
         id="path184" /><path
         d="m 10116.5,4031.4 c 240.9,46.5 459.4,95.6 657.9,146.6 -395.1,-122 -657.9,-146.6 -657.9,-146.6 m 657.9,146.6 c 519.7,160.6 1268.5,489.9 1949,1153.9 0,0 -33.8,-661.6 -1949,-1153.9"
         style="fill:#d67813;fill-opacity:1;fill-rule:nonzero;stroke:none"
         id="path186" /><path
         d="m 10232.2,9081.3 c -1531.16,0 -1464.45,1670.8 -1464.45,1670.8 -0.33,-1156.1 825.67,-1661 1605.35,-1660.9 32.2,0 64.3,0.8 96.2,2.6 -83,-8.5 -162,-12.5 -237.1,-12.5 m 237.1,12.5 c 125.4,12.7 260.1,35.5 404.6,69.8 -128.8,-38.8 -265.4,-62.4 -404.6,-69.8"
         style="fill:#d67813;fill-opacity:1;fill-rule:nonzero;stroke:none"
         id="path188" /><path
         d="m 11541.7,9510.6 c 683,551.8 726.7,1407.1 726.7,1407.1 -65.9,-1331 -726.7,-1407.1 -726.7,-1407.1"
         style="fill:#d67813;fill-opacity:1;fill-rule:nonzero;stroke:none"
         id="path190" /><path
         d="m 13302.7,7870.3 c -197.2,567.6 35.5,1338.8 139.2,1631.1 -114.7,-348.8 -143.8,-830.8 -147.6,-1180.4 -0.2,-0.3 -0.4,-0.7 -0.5,-1 0,0 0.1,0.3 0.5,0.8 -2.9,-262.7 8.4,-450.5 8.4,-450.5 m 139.2,1631.1 c 13.7,41.7 28.6,81.5 44.9,118.9 -0.2,-0.4 -18.3,-43.9 -44.9,-118.9 m 44.9,118.9 v 0 0"
         style="fill:#d67813;fill-opacity:1;fill-rule:nonzero;stroke:none"
         id="path192" /><path
         d="m 13294.3,8320.8 c 0,0.1 0,0.2 0,0.2 485,1053.6 1552.3,1416.4 1552.3,1416.4 -965.5,-465.3 -1533.7,-1386.2 -1552.3,-1416.6"
         style="fill:#d67813;fill-opacity:1;fill-rule:nonzero;stroke:none"
         id="path194" /><path
         d="m 13293.8,8320 c 0.1,0.3 0.3,0.7 0.5,1 0,0 0,-0.1 0,-0.2 -0.4,-0.5 -0.5,-0.8 -0.5,-0.8"
         style="fill:#b8590d;fill-opacity:1;fill-rule:nonzero;stroke:none"
         id="path196" /><path
         d="m 7619.01,7975.1 c 0,0 0,860 -261.31,1565.3 0,0 409.89,-1030.2 261.31,-1565.3"
         style="fill:#d67813;fill-opacity:1;fill-rule:nonzero;stroke:none"
         id="path198" /><path
         d="m 7608.08,8243.3 c 0,0 -627.12,703.8 -1680.58,1267.3 0,0 1165.35,-489.2 1680.58,-1267.3"
         style="fill:#d67813;fill-opacity:1;fill-rule:nonzero;stroke:none"
         id="path200" /><path
         d="m 14823.9,8729 c -64.1,0 62.9,540.1 62.9,540.1 0,0 65.7,43.2 115.9,43.2 64.2,0 102.9,-70.9 -54.2,-394.6 -66.4,-136.6 -104.7,-188.7 -124.6,-188.7"
         style="fill:#d67813;fill-opacity:1;fill-rule:nonzero;stroke:none"
         id="path202" /><path
         d="m 6168.84,8354.4 c -19.68,0 -63.72,60.6 -144.52,216.6 -236.11,456.1 -180.26,540.9 -106.05,540.9 43.94,0 94.33,-29.8 94.33,-29.8 0,0 224.46,-727.7 156.24,-727.7"
         style="fill:#d67813;fill-opacity:1;fill-rule:nonzero;stroke:none"
         id="path204" /><path
         d="m 10873.9,9163.6 c -123.4,-39.1 -251.6,-62.5 -380.9,-72.8 -129.3,-9.6 -259.7,-5.1 -388.3,13.1 -257.07,36.2 -506.97,132.4 -718.24,285 -105.22,76.6 -200.19,167.4 -281.06,269.3 -80.82,101.9 -148.06,214.7 -198.77,334.3 -26.11,59.5 -46.81,121.2 -65.63,183.3 -8.29,31.4 -16.99,62.6 -24.94,94.1 l -19.08,95.4 c -21.21,127.9 -30.26,257.5 -29.23,386.8 3.5,-129.3 14.51,-258.3 38.87,-385.1 l 20.39,-94.5 c 8.35,-31.1 17.42,-62.1 26.09,-93.1 19.57,-61.3 40.94,-122.2 67.64,-180.7 52.4,-117.5 118.31,-229 198.88,-329.1 80.32,-100.3 174.46,-189.4 278.57,-264.6 103.76,-75.7 217.49,-137.6 336.91,-185.3 119.37,-48.1 244.81,-80.3 371.9,-100.6 127.2,-20 256.7,-26.1 385.4,-18.5 128.8,6.9 256.9,28.2 381.5,63"
         style="fill:#a65b3c;fill-opacity:1;fill-rule:nonzero;stroke:none"
         id="path206" /><path
         d="m 12268.4,10917.7 c -6.7,-135.4 -32.8,-269.6 -68.9,-400.5 -17.8,-65.6 -39.9,-130 -64.4,-193.4 -24.5,-63.4 -51.8,-125.8 -81.9,-186.8 -31.1,-60.6 -64.9,-119.7 -101.2,-177.2 -19,-28.2 -37.1,-57.1 -57.5,-84.3 -10,-13.8 -19.6,-27.8 -30.1,-41.2 l -31.7,-40 c -10.3,-13.5 -21.9,-26 -32.8,-39 -11.3,-12.7 -21.9,-26 -33.7,-38.3 -23.3,-24.7 -46,-50 -70.7,-73.3 -48.4,-47.7 -100.4,-91.5 -153.8,-133.1 50.5,45.2 101.1,90.2 146.8,140 23.8,23.9 45.9,49.6 68.3,74.8 11.3,12.5 21.5,26 32.3,38.9 10.6,13.2 21.6,25.9 31.5,39.6 41.2,53.4 79.7,108.8 116,165.6 35.5,57.3 68.4,116.2 98.7,176.4 60.8,120.4 110.4,246.4 149.5,375.6 19.8,64.5 36.7,130 50.6,196.1 14.5,66 25.9,132.8 33,200.1"
         style="fill:#a65b3c;fill-opacity:1;fill-rule:nonzero;stroke:none"
         id="path208" /><path
         d="m 13302.7,7870.3 c -6.3,73.6 -9.4,147.4 -12.4,221.3 -2.4,73.8 -3.6,147.7 -3.7,221.6 -0.1,147.8 5.5,295.6 15.9,443.1 5.6,73.7 13.4,147.3 22.4,220.7 9.1,73.4 20,146.7 34.3,219.3 28,145.1 66,289.5 127.6,424 -27.1,-68.7 -49.1,-139.2 -67,-210.7 -18.5,-71.2 -33.5,-143.4 -45.5,-216.1 -24.8,-145.2 -41.4,-291.7 -51.9,-438.7 -5.7,-73.5 -10.4,-147 -13.6,-220.7 -3.4,-73.7 -5,-147.4 -6.9,-221.1 -1.7,-73.7 -2.2,-147.5 -1.9,-221.3 -0.3,-73.8 0.9,-147.5 2.7,-221.4"
         style="fill:#a65b3c;fill-opacity:1;fill-rule:nonzero;stroke:none"
         id="path210" /><path
         d="m 8535.57,3857 c 159.57,256.5 312.58,516.7 462.55,778.7 l 112.26,196.6 c 37.02,65.8 73.03,132.1 108.9,198.6 36.74,65.9 69.66,133.9 104.22,201 17.16,33.6 34.19,67.3 51,101.1 l 48.77,102.2 48.6,102.3 c 16.12,34.1 32.68,68 48.05,102.5 l 94.05,205.9 c 16.07,34.1 30.85,68.8 45.78,103.5 l 44.86,103.9 45.24,103.7 c 7.76,17.2 14.94,34.7 22.01,52.2 l 21.42,52.3 c 28.68,69.8 56.86,139.8 85.95,209.4 27.68,70.2 54.18,140.8 81.34,211.2 l 40.83,105.6 37.8,106.7 76.4,213.2 1.9,-0.6 -68.7,-215.9 -35,-107.8 -38.56,-106.6 c -26.06,-70.9 -51.47,-142.1 -78.07,-212.8 -27.83,-70.3 -56.58,-140.2 -84.84,-210.3 -115.51,-279.3 -241.38,-554.3 -379.23,-823.2 l -50.91,-101.2 c -17.67,-33.4 -35.12,-66.9 -52.43,-100.5 l -52.12,-100.6 -25.79,-50.4 -26.45,-50.1 -52.87,-100.2 c -17.49,-33.4 -34.55,-67.1 -52.38,-100.4 l -107.61,-199.5 c -37.43,-65.6 -74.29,-131.6 -112.34,-196.8 -38.92,-64.8 -77.2,-129.9 -116.63,-194.4 -79.11,-128.7 -160.3,-256.2 -246.34,-380.4 l -1.66,1.1"
         style="fill:#a65b3c;fill-opacity:1;fill-rule:nonzero;stroke:none"
         id="path212" /><path
         d="m 13293.8,8320 c 91.4,152.1 198,294.7 311.1,431.5 56.4,68.6 116,134.5 176.9,199.1 61.1,64.5 123.8,127.5 188.7,188.2 130.7,120.3 268.1,233.6 414.5,334.4 145.8,101.5 300.6,190 461.6,264.2 -78.3,-41.6 -156.7,-82.9 -231.5,-130.3 l -28.5,-17.1 -27.9,-17.9 -55.8,-35.9 -54.8,-37.4 -27.4,-18.8 -26.8,-19.4 c -72,-51.4 -142,-105.6 -210.5,-161.4 -68.5,-56 -134.5,-114.9 -199.3,-175.1 -129.9,-120 -252,-248.5 -367.5,-382.5 -57.9,-66.9 -113.8,-135.6 -167.6,-205.9 -54.2,-70 -106.3,-141.7 -155.2,-215.7"
         style="fill:#a65b3c;fill-opacity:1;fill-rule:nonzero;stroke:none"
         id="path214" /><path
         d="m 7619.01,7975 c -2.94,66.4 -6.36,132.7 -11.72,198.9 -2.1,33.1 -5.11,66.1 -7.63,99.2 l -9.26,99.1 c -13.29,132 -29.28,263.6 -50.45,394.5 -18.91,131.3 -45.95,261.2 -74.96,390.5 l -23.29,96.7 c -7.82,32.2 -17.66,63.9 -26.31,95.9 l -13.05,48 c -4.38,16 -9.88,31.7 -14.78,47.5 -10.15,31.6 -20.08,63.3 -29.86,95.1 48.33,-123.8 89.74,-250.5 122.23,-379.6 9.28,-32 15.71,-64.6 23.24,-97 7.24,-32.5 15,-64.9 20.94,-97.6 l 19.05,-98 16.52,-98.4 c 19.6,-131.6 35.94,-263.7 45.97,-396.3 l 6.56,-99.5 c 1.57,-33.2 3.81,-66.4 4.82,-99.6 1.06,-33.2 1.92,-66.5 2.29,-99.7 0.56,-33.2 0.48,-66.4 -0.31,-99.7"
         style="fill:#a65b3c;fill-opacity:1;fill-rule:nonzero;stroke:none"
         id="path216" /><path
         d="m 7608.08,8243.3 c -61.12,63.5 -124.44,124.6 -188.95,184.5 -64.54,59.8 -129.77,118.8 -196.78,175.8 -133.67,114.3 -269.58,226.2 -411.33,330.4 -140.67,105.5 -284.4,207.1 -432.39,302.2 -146.71,97.3 -298.78,185.9 -451.13,274.4 38.99,-20.5 77.91,-41.1 116.73,-61.9 38.78,-20.9 78.05,-41 115.91,-63.5 l 114.14,-66.8 28.53,-16.7 28.07,-17.4 56.04,-35.1 c 37.23,-23.6 75.11,-46.2 111.5,-71.1 l 109.55,-74.1 c 36.83,-24.3 72.12,-50.7 108.12,-76.2 35.74,-25.8 72.05,-50.8 106.92,-77.8 l 105.03,-80.4 103.09,-82.9 c 17.29,-13.7 34.22,-27.8 51.03,-42.1 l 50.6,-42.6 c 34.07,-27.9 66.75,-57.6 99.69,-86.9 33.17,-29 65.34,-59.2 97.67,-89.1 32.58,-29.7 63.93,-60.7 95.75,-91.2 62.32,-62.3 124.38,-125 182.21,-191.5"
         style="fill:#a65b3c;fill-opacity:1;fill-rule:nonzero;stroke:none"
         id="path218" /><path
         d="m 12723.4,5331.9 c -2.3,-43.4 -16.4,-85.5 -34.6,-124.9 -18.5,-39.4 -41.3,-76.7 -67,-111.9 -52,-69.9 -113.7,-132.1 -179.6,-188.8 -65.9,-57 -137.2,-107.2 -210.1,-154.4 -18.4,-11.5 -36.4,-23.7 -55.1,-34.7 l -56.1,-33.2 c -18.6,-11.2 -37.9,-21.2 -56.8,-31.9 -19.1,-10.4 -37.9,-21.2 -57.3,-30.9 -154.5,-79.3 -313.8,-148.8 -476.2,-209.7 l -60.9,-22.8 -61.3,-21.5 -61.4,-21.5 c -20.5,-7 -41.1,-13.6 -61.7,-20.3 -82.4,-26.9 -165.5,-51.7 -248.7,-75.6 41,14.1 82,28 123,41.7 l 30.8,10.3 30.6,11 61.1,21.9 c 20.4,7.3 40.9,14.1 61.2,21.6 l 60.7,22.8 60.8,22.7 60.3,24 c 160.7,63.7 319.5,132.8 472.4,213.1 19.5,9.5 38.2,20.2 57.2,30.4 18.9,10.4 38.1,20.3 56.7,31.2 l 55.9,32.7 c 18.8,10.7 36.7,22.7 55,34 72.9,46.2 143.3,96.2 210.1,150.8 66.4,54.8 128.6,115.1 181.7,183 26.5,33.9 50.3,70 70,108.3 9.5,19.3 18.4,39 25.1,59.5 6.9,20.4 12.2,41.5 14.2,63.1"
         style="fill:#a65b3c;fill-opacity:1;fill-rule:nonzero;stroke:none"
         id="path220" /><path
         d="m 8002.66,9678 c 142.21,255.9 444.97,876.6 695.63,1902.3 28.22,115.5 101.37,215 202.98,276.7 l 841.25,511.3 c 31.98,19.4 68.27,30.6 105.64,32.7 l 521.04,28.4 c 19,1 38,-0.3 56.7,-4 55.6,-11.1 189.7,-36 344.3,-52.7 91.9,-9.8 136.5,-118.9 75.9,-188.6 -67.5,-77.5 -208.7,-143.5 -502.8,-106.4 l -397.49,-92 -412.18,-242.9 563.87,68.8 c 144.3,17.7 276.3,-83.5 296.4,-227.5 0.3,-2.3 0.6,-4.6 0.9,-6.9 0,0 169.8,-26.7 189.5,-206.5 l 178.6,2.1 c 36.1,0.5 71.6,-8.3 103.5,-25.2 32.1,-17 78.7,-37.5 128.3,-45.3 81.7,-12.9 112.5,-114.7 51,-169.9 -40.7,-36.4 -110.4,-61.9 -228.6,-54.4 l -111.3,-27.5 c 0,0 78.8,-290.6 -32.9,-308.3 -118.2,-18.8 -172.9,114.2 -203.5,209.3 0,0 -132.4,-41.8 -286.1,-172.9 0,0 -513.41,-590.7 -713.87,-912.9 -200.46,-322.2 -340.06,-443.9 -340.06,-443.9 0,0 -249.74,-950.9 -266.53,-2386.8 -16.8,-1435.8 -109.16,-2300.7 -361.07,-2712.2 0,0 327.35,-259 1157.43,-95.5 76.57,15.1 154.4,22.6 232.44,22.9 458.26,1.8 2047.06,22.4 2696.86,218.9 763.3,230.7 1106.5,319.5 1106.5,319.5 0,0 -282.7,1750.4 -392.3,3081.7 0,0 859.5,918.5 1584.1,1398.8 0,0 543.9,-2935.6 492.8,-4661.4 0,0 302.6,-1812.6 -1040.5,-1750.9 0,0 -2453.2,-156.8 -4895.13,229.6 -79.78,12.6 -161.4,7.4 -238.71,-16 -199.95,-60.5 -678.14,-147.2 -1335.05,111.6 -271.01,106.8 -746.56,84 -746.56,84 0,0 82.16,-182.4 66.18,-333.1 -7.72,-72.7 -100.76,-98.7 -146.08,-41.2 l -129.8,164.6 c 0,0 -14.4,-134.5 -99.46,-226.2 -68.98,-74.4 -193.13,-22 -187.14,79.3 l 25.37,428.5 c 1.81,30.5 16.45,58.8 40.29,77.9 l -30.4,386.8 c -6.76,86.1 29.07,170 95.92,224.7 l 63.66,52.1 -173.05,313.3 -294.29,-140.3 c 0,0 -178.81,-176.3 -366.7,-163 -78.5,5.5 -114.67,101.7 -60.8,159 61.76,65.8 186.86,196.5 255.41,255 83.12,71 352.97,253 352.97,253 0,0 -220.84,1050.9 -246.03,2386 0,0 -327.48,1200.8 -277.1,1939.7 L 7619.01,7975 7885.46,9355.2 c 21.83,113.1 61.25,222.1 117.2,322.8"
         style="fill:#ffc89f;fill-opacity:1;fill-rule:nonzero;stroke:none"
         id="path222" /><path
         d="m 10394.8,11577.2 c -31.5,1.5 -62.1,-5.5 -92.1,-13.9 -30.1,-8 -60,-17.3 -90.1,-26.1 -60,-18.1 -120.7,-34.7 -182.1,-48.4 -30.76,-6.8 -61.71,-12.6 -92.7,-18.1 l -46.69,-7 c -15.53,-2.5 -31.18,-4.3 -46.84,-5.8 -62.46,-7.7 -125.48,-9.7 -188.23,-9.8 62.36,7.8 124.48,15 186.14,25.2 61.69,9.9 123.09,21.2 184.02,35 61,13.2 121.5,28.8 182.4,43.9 30.4,7.5 61,14.8 92,20.6 l 23.4,3.8 23.6,2.5 c 7.8,0.7 15.8,0.5 23.7,0.7 7.9,-0.2 15.7,-1.8 23.5,-2.6"
         style="fill:#ff9a6c;fill-opacity:1;fill-rule:nonzero;stroke:none"
         id="path224" /><path
         d="m 7619.98,7974.8 -23.27,-99.9 c -8.03,-33.3 -15.22,-66.8 -24.2,-99.8 l -25.97,-99.3 c -8.44,-33.2 -17.57,-66.2 -27.24,-99 -36.83,-131.8 -78.54,-262.3 -123.96,-391.5 -46.01,-129 -98.24,-255.7 -151.22,-381.8 -53.72,-125.9 -109.63,-250.8 -168.27,-374.4 -58.16,-123.9 -119.98,-246.1 -178.14,-369.6 -28.78,-61.8 -56.88,-124 -81.61,-187.5 -12.94,-31.5 -24.17,-63.6 -36.16,-95.5 -5.62,-16.1 -10.81,-32.3 -16.24,-48.4 l -8.06,-24.2 -7.24,-24.5 c -38.7,-130.4 -66.09,-264.3 -81.86,-399.8 -16.43,-135.4 -24.04,-272 -27.5,-408.7 h -1.99 c -2.81,136.8 0.39,273.9 13.95,410.4 3.12,34.2 8.24,68.1 12.27,102.2 5.26,33.9 10.53,67.9 16.7,101.6 6.96,33.6 12.97,67.5 21.87,100.7 l 12.5,50 14.3,49.5 c 38.13,132.2 92.74,258.9 152.07,382.3 59.45,123.5 123.75,244.2 185.3,366.3 61.47,122 119.94,245.7 171.72,372.3 26.55,63 50.8,126.9 74.24,191.1 l 34.62,96.4 33.1,97 c 88.07,258.7 165.4,520.9 238.35,784.6 l 1.94,-0.5"
         style="fill:#ff9a6c;fill-opacity:1;fill-rule:nonzero;stroke:none"
         id="path226" /><path
         d="m 9864.6,11084.2 175.2,87.5 c 58.1,29.5 116.2,59 173.3,90.1 28.5,15.3 57.4,31.6 87.6,45.1 30.1,13.4 61,25.4 92.7,34.5 63.1,19 128.8,29 194.2,29.4 -64.9,-8.2 -128.3,-23.2 -189.4,-44.2 -30.5,-10.8 -60.5,-22.8 -89.6,-36.9 -29.2,-13.7 -57.1,-29.6 -86,-45.5 -57.7,-30.9 -116.4,-59.8 -176.1,-86.6 -59.66,-26.8 -120.26,-51.5 -181.9,-73.4"
         style="fill:#ff9a6c;fill-opacity:1;fill-rule:nonzero;stroke:none"
         id="path228" /><path
         d="m 9262.52,11719.2 c 45.18,6.8 90.39,12.1 135.62,17 45.22,5 90.49,9.2 135.75,13.4 45.29,3.8 90.55,7.9 135.91,11.2 45.35,3.4 90.7,6.7 136.36,8.6 -44.54,-10.2 -89.54,-17.8 -134.68,-24.2 -45.13,-6.4 -90.44,-11.3 -135.81,-15.5 -45.39,-3.9 -90.83,-7.2 -136.36,-9 -45.52,-1.9 -91.11,-2.9 -136.79,-1.5"
         style="fill:#ff9a6c;fill-opacity:1;fill-rule:nonzero;stroke:none"
         id="path230" /><path
         d="m 9044.66,11530.5 c 0.03,5.7 0.18,11.5 0.52,17.3 l 0.57,8.8 c 0.42,2.9 1.13,5.7 1.7,8.6 l 4.1,17.2 c 2.05,5.5 4.41,10.9 6.64,16.4 9.87,21.5 23.9,41.5 41.43,57.5 17.5,16 37.21,29.3 58.43,39.1 21.16,9.8 43.58,17 66.68,19 -20.74,-10 -40.39,-20.9 -59.2,-32.7 -18.66,-12 -36.39,-25.1 -52.24,-40 l -11.76,-11.3 c -3.54,-4.1 -6.94,-8.3 -10.59,-12.4 -3.89,-3.8 -6.61,-8.5 -9.89,-12.9 -3.11,-4.4 -6.6,-8.7 -9.1,-13.5 -2.77,-4.7 -5.41,-9.5 -8.35,-14.2 l -6.82,-15.1 c -1.17,-2.5 -2.52,-5 -3.57,-7.6 l -2.64,-8 c -1.81,-5.4 -3.8,-10.7 -5.91,-16.2"
         style="fill:#ff9a6c;fill-opacity:1;fill-rule:nonzero;stroke:none"
         id="path232" /><path
         d="m 9323.02,11219.4 c 2.6,25.3 10.86,49.8 22.01,72.7 11.17,23.1 26.24,44.3 43.93,63.1 8.75,9.6 18.9,17.7 28.81,25.9 l 16.18,10.7 c 2.74,1.7 5.29,3.7 8.19,5.1 l 8.71,4.3 c 22.69,12.3 48.19,18.2 73.11,21 -22.94,-10.9 -45.38,-20.5 -65.32,-34.5 -10.36,-6.3 -19.56,-14.2 -29.11,-21.4 -8.86,-8.2 -18.19,-15.8 -26.1,-24.9 -16.75,-17.2 -31.51,-36.5 -44.86,-56.9 -13.14,-20.6 -25,-42.1 -35.55,-65.1"
         style="fill:#ff9a6c;fill-opacity:1;fill-rule:nonzero;stroke:none"
         id="path234" /><path
         d="m 13695,4788.6 c 24.5,13.3 50.5,23.4 77,31.9 26.5,8.7 53.6,15 81.1,20 27.5,4.6 55.4,7.3 83.4,7.4 28,0 56.1,-2.9 83,-10 -27.9,-1.2 -55,-2.7 -82.2,-5.6 -27,-3.2 -54,-6.7 -80.8,-11.5 -53.8,-9.1 -107,-21 -161.5,-32.2"
         style="fill:#ff9a6c;fill-opacity:1;fill-rule:nonzero;stroke:none"
         id="path236" /><path
         d="m 7123.65,3266 c -27.28,-2.6 -52.29,-11.7 -75.46,-24 -11.41,-6.3 -22.7,-12.8 -32.82,-21 -10.37,-7.7 -20.19,-16.3 -28.92,-25.8 -9.16,-9.2 -17.24,-19.4 -24.62,-30.1 -7.8,-10.4 -13.92,-22 -20.08,-33.5 -5.99,-11.7 -10.86,-24 -15.32,-36.6 -4.31,-12.5 -7.82,-25.9 -12.48,-38.7 0.31,13.7 1.15,27.1 2.93,41 2.35,13.7 5.43,27.4 10.55,40.5 9.72,26.3 25.02,50.7 44.58,71.2 19.56,20.4 43.5,36.9 69.7,47.2 25.85,10.4 54.9,15.6 81.94,9.8"
         style="fill:#ff9a6c;fill-opacity:1;fill-rule:nonzero;stroke:none"
         id="path238" /><path
         d="m 9549.72,10863.4 c 7.54,24.7 19.12,47.8 32.71,69.8 13.55,22 29.77,42.4 48.41,60.8 18.87,18 40.33,34.2 64.94,44.3 12.22,5.1 25.05,8.9 38.17,10.5 13.12,1.4 26.32,1.1 38.88,-1.8 -25.62,-2.8 -49.06,-10.6 -70.22,-22.7 -10.54,-6 -20.74,-12.7 -30.23,-20.4 -9.65,-7.5 -18.95,-15.5 -27.61,-24.3 -17.82,-16.9 -33.94,-35.9 -49.64,-55.4 -15.55,-19.6 -30.49,-39.9 -45.41,-60.8"
         style="fill:#ff9a6c;fill-opacity:1;fill-rule:nonzero;stroke:none"
         id="path240" /><path
         d="m 7029.44,3856.5 c -71.67,50 -132.54,114.5 -186.98,182.9 -54.44,68.8 -100.89,143.5 -142.03,220.9 -19.14,39.4 -39.21,78.4 -55.24,119.2 l -12.58,30.3 c -4.28,10.1 -8.42,20.2 -11.85,30.6 l -21.56,62 c -3.42,10.4 -7.44,20.6 -10.35,31.1 l -8.88,31.6 -17.45,63.2 c -5.44,21.1 -9.19,42.7 -13.85,64 -4.54,21.3 -8.83,42.7 -12.94,64.1 12.77,-41.8 23.34,-84 36.24,-125.5 l 20.5,-61.9 10.09,-31 c 3.25,-10.3 7.62,-20.3 11.37,-30.5 l 23.17,-60.8 c 3.61,-10.2 7.94,-20.1 12.39,-30 l 13.1,-29.8 c 8.99,-19.7 16.5,-40.1 26.68,-59.2 l 28.89,-58.2 c 40.32,-76.6 85.39,-150.8 136.65,-220.6 12.97,-17.4 25.74,-34.9 39.7,-51.5 l 20.5,-25.2 21.56,-24.4 c 28.73,-32.5 59.38,-63.4 92.87,-91.3"
         style="fill:#ff9a6c;fill-opacity:1;fill-rule:nonzero;stroke:none"
         id="path242" /><path
         d="m 8502.63,4322.3 c -26.08,-46.1 -53.56,-91.3 -80.97,-136.6 -27.85,-45 -56.18,-89.7 -84.88,-134.2 -28.52,-44.7 -58.31,-88.4 -88.15,-132.2 -30.01,-43.7 -60.91,-86.7 -92.21,-129.5 l 1.56,3.5 c -15.54,-60.1 -42.67,-115.4 -78.32,-165.1 -35.92,-49.4 -81.4,-92.1 -134.12,-122.7 -52.58,-31 -111.77,-49.3 -171.72,-56.9 -60.08,-7.6 -120.95,-4.9 -180.54,4 -59.58,8.6 -119.43,20 -176.5,41.1 -57.25,20.3 -111.81,48.5 -162.1,83 -50.1,34.7 -95.14,76.7 -133.59,123.8 -19.42,23.4 -37,48.2 -52.62,74.2 -15.72,25.9 -29.63,53 -39.95,81.4 l 1.85,0.8 c 56.63,-105.9 140.02,-194.6 236.52,-262.8 24.26,-17 49.37,-32.7 75.29,-47.1 13.23,-6.7 26.15,-14 39.75,-20 l 20.18,-9.4 20.55,-8.6 c 54.92,-22.7 112.45,-40.3 171.63,-49.6 29.5,-5.2 59.34,-8.2 89.23,-8.8 29.87,-0.6 59.83,0.6 89.36,5 59.09,8.1 116.49,28.2 166.75,59.7 50.41,31.2 93.28,73.7 126.73,122.3 16.85,24.3 31.6,50 44,76.8 12.42,26.7 23.22,54.8 30.06,82.7 l 0.49,2 1.07,1.4 c 63,84.8 123.61,171.4 183.29,258.6 29.88,43.6 59.35,87.5 88.46,131.7 29.5,43.9 58.25,88.2 87.18,132.5 l 1.72,-1"
         style="fill:#ff9a6c;fill-opacity:1;fill-rule:nonzero;stroke:none"
         id="path244" /><path
         d="m 10469.7,10950.6 c -123.2,-52.6 -232.4,-132.3 -323.6,-228.6 -22.9,-23.8 -45.1,-49.1 -67.6,-74 -22.4,-24.8 -44.6,-49.9 -66.4,-75.3 -43.35,-51.1 -85.18,-103.5 -126,-156.6 l -122.15,-159.5 c -20.31,-26.6 -40.68,-53.1 -60.63,-80 l -60.31,-80.2 c -80.77,-106.7 -159.85,-214.5 -233.83,-326.3 l -1.73,1.1 c 63.21,118.5 139.12,229.8 218.45,337.9 39.78,54.1 81.4,106.7 123.23,159.1 41.78,52.5 84.74,104 128.47,154.8 43.52,51 87.06,102 129.5,153.8 42.7,51.8 82.8,105.2 126.8,156.5 90.3,100.4 206.6,179.1 335.2,219.2 l 0.6,-1.9"
         style="fill:#ff9a6c;fill-opacity:1;fill-rule:nonzero;stroke:none"
         id="path246" /><path
         d="m 10706.8,11050.7 c 10.6,-25.6 17.8,-52.2 23.7,-79.2 5.6,-27 9.6,-54.5 10,-82.3 -0.2,-14 -1,-27.9 -2.5,-41.7 -1.8,-13.9 -4.2,-27.6 -7.5,-41.2 -3.1,-13.5 -7.6,-26.9 -15,-39.2 -7.2,-12.2 -18.4,-23.2 -32.8,-28.1 -3.5,-1 -7.2,-2.5 -10.7,-3 l -10.7,-1.6 c -3.5,-0.5 -7.1,-1.2 -10.7,-1.4 l -10.9,0.2 c -3.6,0.2 -7.3,0 -10.9,0.6 l -10.8,2.2 c -7.4,1.1 -14.1,4.1 -20.9,6.8 -27.3,11.4 -49.9,31.5 -66.8,54.3 -16.9,23.1 -29.5,48.4 -39.4,74.4 -9.7,26 -17.2,52.6 -22.5,79.7 l 1.9,0.6 c 22.9,-49.8 44.7,-100.1 77,-141.8 15.9,-20.5 34.6,-39.1 57.5,-50 22.5,-10.9 49.4,-14.2 74.7,-10.5 12,2.7 23.1,10.3 30.3,21.3 7.5,10.8 11.9,23.8 14.4,36.9 4.9,26.6 2.3,53.9 -0.4,80.6 -4.6,53.7 -12.2,107.3 -19,161.9 l 2,0.5"
         style="fill:#ff9a6c;fill-opacity:1;fill-rule:nonzero;stroke:none"
         id="path248" /><path
         d="m 10584.3,11371.7 c 36.8,3 73.7,5.2 110.6,6.8 18.4,0.8 36.8,1.6 55.3,2.1 9.1,0.3 18.6,0.7 28.2,0.3 9.6,-0.5 19.2,-1.6 28.6,-3.3 18.9,-3.3 37.4,-9.3 54.6,-17.6 8.9,-4.3 16.5,-8.8 24.7,-12.9 8,-4.1 16.2,-8.1 24.4,-11.9 16.5,-7.7 33.4,-14.4 50.7,-19.8 8.7,-2.7 17.5,-5 26.3,-7.1 4.4,-0.9 8.9,-1.8 13.6,-3.2 4.6,-1.3 9.4,-2.2 13.7,-4.3 36.1,-13.7 61.9,-48.4 65.9,-86.4 2.1,-18.9 -0.7,-38.7 -9.2,-56.1 -8.5,-17.5 -22.4,-32.2 -37.5,-43.6 -30.8,-23.1 -68.2,-35.5 -105.2,-42 -37.4,-6.3 -75.1,-7.1 -112.5,-5.3 l 3.2,0.3 -55.7,-13.8 -55.8,-13.2 1,0.3 c -40.2,-13.8 -80.3,-28.5 -120.3,-43.2 -40,-14.9 -79.7,-30.5 -119.1,-47.2 l -0.9,1.8 c 18.5,10.9 37.5,20.8 56.6,30.7 19.2,9.4 38.6,18.6 58.1,27.5 39.1,17.7 78.6,34 118.8,49.3 l 0.4,0.2 0.6,0.1 55.5,14.4 55.7,13.7 1.6,0.4 1.6,-0.1 c 36.2,-2.4 72.7,-2.7 108.3,2.4 35.4,5.2 70.5,15.3 100.3,34.7 15,9.7 28,21.7 36.6,37.1 8.5,15.2 12.6,33.2 11,50.9 -1.3,17.8 -8.1,35.1 -18.8,49.3 -10.9,14.2 -25.9,25.1 -42.8,30.6 -4.1,1.8 -8.5,2.4 -12.9,3.2 -4.2,1 -8.8,1.6 -13.5,2.2 -9.2,1.4 -18.5,3.1 -27.6,5.3 -18.3,4.2 -36.2,9.9 -53.7,16.6 -17.4,6.4 -34.9,15.1 -50.7,23 -16,7.4 -32.9,13.1 -50.3,16.6 -17.5,3.6 -34.6,4.3 -53.3,4.3 -18.5,0 -36.9,0.4 -55.4,0.7 -36.9,0.8 -73.8,2.1 -110.7,4.2 v 2"
         style="fill:#ff9a6c;fill-opacity:1;fill-rule:nonzero;stroke:none"
         id="path250" /><path
         d="m 10394.8,11577.2 c 25.5,-0.8 50.6,-8 74.1,-18.9 23.5,-10.9 44.9,-26.6 62.9,-45.7 l 6.6,-7.2 c 2.2,-2.5 4,-5.2 6,-7.8 3.8,-5.4 8.1,-10.3 11.3,-16 6.3,-11.5 13,-22.8 16.8,-35.3 5.2,-12 7.1,-24.9 9.7,-37.4 1.5,-6.3 1.3,-12.8 1.7,-19.1 0.3,-6.4 0.4,-12.8 0.4,-19.1 -2.1,6.1 -4.1,12.1 -5.8,18.1 -2.1,5.9 -3,12 -5.8,17.7 -4.7,11.4 -8.5,23 -14.6,33.6 -10.4,21.8 -24.5,41.5 -40.9,58.9 -16.2,17.6 -35.1,32.7 -55.8,45.6 -20.7,12.8 -42.9,23.7 -66.6,32.6"
         style="fill:#ff9a6c;fill-opacity:1;fill-rule:nonzero;stroke:none"
         id="path252" /><path
         d="m 9806.16,11769.4 176.56,28.8 88.38,14.2 c 14.7,2.3 29.3,5 44.6,6.7 15.2,1.8 30.6,1.9 45.9,0.6 61.3,-4.8 120.8,-33.3 163.7,-77.7 21.3,-22.3 38.8,-48.2 50.7,-76.5 11.8,-28.1 18.2,-58.4 18.8,-88.3 -12.5,58.6 -41.4,111.5 -82.9,151.4 -41.3,40.1 -94.9,66.7 -152.1,75.3 -28.8,4.4 -57.9,4.6 -87.5,-0.5 l -88.71,-11.5 -177.43,-22.5"
         style="fill:#ff9a6c;fill-opacity:1;fill-rule:nonzero;stroke:none"
         id="path254" /><path
         d="m 10846.8,12183.5 c -13.6,-17.9 -30.2,-33.2 -48,-47.2 l -13.8,-9.8 c -4.6,-3.2 -9.6,-5.9 -14.4,-8.9 -9.5,-6.2 -19.9,-10.7 -30.1,-15.8 -41.1,-19.1 -85.5,-29.9 -130,-36.5 -44.6,-6.7 -89.8,-7.2 -134.4,-4.7 -44.8,1.9 -89,8.5 -133.2,13.9 l 1.1,0.1 c -66.5,-14.5 -132.3,-31.7 -198,-49.1 -65.8,-17.5 -131.9,-33.5 -197.93,-49.6 l 2.82,1.2 c -34.04,-20.8 -68.33,-41.2 -102.7,-61.3 -34.54,-20 -69.02,-40 -103.79,-59.5 -34.71,-19.6 -69.56,-39 -104.63,-58 -34.98,-19.2 -70.15,-38 -105.63,-56.4 l -1.02,1.8 c 33.21,22.1 66.73,43.8 100.46,65.1 33.62,21.5 67.46,42.5 101.45,63.4 33.93,20.9 68.14,41.4 102.29,62 34.33,20.3 68.74,40.4 103.39,60.1 l 1.46,0.9 1.37,0.3 c 66.46,14.6 132.86,29.2 199.56,42.4 66.7,13.2 133.4,26.8 199.4,43 l 0.5,0.1 0.7,-0.1 c 44.1,-4.4 88.5,-7.1 132.7,-6.3 44.1,0.8 88.2,2.4 131.7,8.3 43.4,5.8 86.5,15.1 127.1,31.3 20.2,8.3 40.1,17.6 58.5,29.5 18.6,11.7 35.8,25.5 51.6,41.1 l 1.5,-1.3"
         style="fill:#ff9a6c;fill-opacity:1;fill-rule:nonzero;stroke:none"
         id="path256" /><path
         d="m 9202.75,12041.4 c 33.31,22.2 67.09,43.7 100.62,65.5 l 101.39,64.2 c 67.63,42.8 135.79,84.7 204.02,126.4 34.17,20.8 68.48,41.4 102.93,61.7 l 25.94,15.1 c 8.88,5.1 18.19,9.8 27.7,13.7 19.04,7.9 39.06,13.2 59.37,15.9 20.5,2.6 40.46,1.9 60.42,3 19.99,0.7 39.98,1.4 59.95,2.5 39.96,1.8 79.81,4.8 119.81,7.1 79.8,5.9 159.5,12.8 239.3,18.1 l 59.9,3.9 c 20.4,1.7 41.7,0.7 62.1,-3.1 39.3,-7.4 78.6,-14 118,-20.7 39.3,-6.3 78.7,-12.9 118.2,-18.6 l 59.2,-8.6 29.7,-3.9 c 10,-1.4 19.5,-2.3 30.3,-4.3 20.9,-4.3 40.8,-14.2 56.4,-28.6 15.7,-14.3 27.4,-32.5 34,-52.4 6.6,-19.8 7.9,-41.4 3.3,-61.5 -4.4,-20.2 -14.5,-38.7 -28.5,-53.3 l -1.5,1.3 c 12.2,15.6 20.6,34 23.3,53.2 2.8,19.2 0.3,38.9 -6.6,56.7 -13.8,35.9 -46.6,62.5 -83.5,68.5 -8.9,1.5 -19.3,2.2 -29.2,3.2 l -29.9,3 c -19.9,2.1 -39.9,4.3 -59.8,6.8 -39.7,5.2 -79.4,10.7 -119,17.5 -39.5,6.5 -79,14 -118.1,22.2 -18.9,3.8 -37.9,5 -57.4,3.9 l -59.9,-2.6 c -79.9,-3.4 -160,-5.3 -239.9,-8.1 -40,-2 -79.95,-3.4 -119.87,-6 -19.97,-1.1 -39.92,-2.5 -59.87,-3.9 l -29.92,-2.4 c -10.06,-0.7 -19.6,-1.7 -29.27,-3.5 -19.21,-3.5 -37.88,-9.6 -55.4,-17.9 -8.77,-4.2 -17.18,-9 -25.35,-14.2 l -25.35,-16.1 c -33.9,-21.2 -67.96,-42.2 -102.15,-62.9 -68.5,-41.4 -137.07,-82.6 -206.16,-122.9 l -103.69,-60.4 c -34.84,-19.7 -69.42,-39.9 -104.48,-59.2 l -1.04,1.7"
         style="fill:#ff9a6c;fill-opacity:1;fill-rule:nonzero;stroke:none"
         id="path258" /><path
         d="m 6693.01,3415.8 c 30.47,39 68.5,72.1 109.58,100.3 10.45,6.8 20.7,14 31.52,20.2 l 32.72,18.3 34.02,15.8 c 11.3,5.3 23.29,9.1 34.91,13.7 5.89,2.1 11.73,4.4 17.66,6.3 l 18.08,5.1 18.08,5.1 c 6.03,1.6 12,3.5 18.21,4.4 l 36.92,6.7 c 12.22,2.7 24.85,2.6 37.24,3.9 l 18.64,1.5 9.31,0.7 9.36,-0.2 37.33,-0.8 c 12.42,0.1 24.74,-2.1 37.04,-3.6 12.3,-1.6 24.54,-3.4 36.71,-5.4 -12.41,-0.1 -24.75,-0.2 -37.04,-0.1 -12.29,-0.2 -24.52,0.8 -36.76,-0.7 -24.46,-1.7 -48.83,-2.6 -72.87,-6.9 -48.29,-6.1 -95.54,-18.5 -141.15,-34.8 -45.87,-15.8 -89.76,-37.2 -131.53,-62.3 -41.75,-25.1 -81.52,-53.9 -117.98,-87.2"
         style="fill:#ff9a6c;fill-opacity:1;fill-rule:nonzero;stroke:none"
         id="path260" /><path
         d="m 6693.01,3415.8 c 0.54,49 11.08,97.8 27.22,144.4 16.25,46.8 39.8,91 69.06,131.2 15.02,19.8 31.43,38.6 49.1,56.1 18.03,17.1 37.16,33 57.57,47.1 40.95,27.9 86.3,49 133.48,61.9 -44.32,-20.7 -86.27,-45.1 -124.26,-74.5 -37.68,-29.7 -71.43,-64 -99.83,-102.5 -28.43,-38.4 -51.86,-80.5 -70.61,-124.8 -18.43,-44.5 -32.95,-90.9 -41.73,-138.9"
         style="fill:#ff9a6c;fill-opacity:1;fill-rule:nonzero;stroke:none"
         id="path262" /><path
         d="M 16225.4,2459.9 H 4774.63 v 30 H 16225.4 v -30"
         style="fill:#1b1a2e;fill-opacity:1;fill-rule:nonzero;stroke:none"
         id="path264" /><path
         d="m 15221.8,16834.5 c -495.7,438.5 -1253.1,392.1 -1691.6,-103.7 -330.1,-373.2 -385.5,-894.6 -181.2,-1316.7 l -351.1,-413.9 635.9,39 c 495.8,-438.6 1253.2,-392.2 1691.7,103.6 438.5,495.8 392.1,1253.1 -103.7,1691.7"
         style="fill:#ffffff;fill-opacity:1;fill-rule:nonzero;stroke:none"
         id="path266" /><path
         d="m 12997.9,15000.2 c 27.7,35.9 55.9,71.3 84.6,106.2 28.6,35.1 57.6,69.7 86.8,104.3 29.4,34.4 58.8,68.7 88.7,102.7 29.8,34 60.2,67.6 91,100.7 -27.6,-35.8 -55.8,-71.2 -84.5,-106.2 -28.6,-35 -57.7,-69.7 -86.9,-104.3 -29.3,-34.4 -58.7,-68.7 -88.7,-102.7 -29.8,-34 -60.1,-67.6 -91,-100.7"
         style="fill:#1b1a2e;fill-opacity:1;fill-rule:nonzero;stroke:none"
         id="path268" /><path
         d="m 13633.8,15039.2 c -52.9,-5.4 -105.8,-10.1 -158.7,-14 -52.9,-4.1 -105.9,-7.6 -158.9,-10.9 -53,-3.2 -106,-6.2 -159,-8.6 -53.1,-2.5 -106.2,-4.4 -159.3,-5.5 52.9,5.3 105.8,10 158.7,14 53,4.1 105.9,7.5 158.9,10.9 53,3.2 106,6.2 159.1,8.5 53,2.6 106.1,4.4 159.2,5.6"
         style="fill:#1b1a2e;fill-opacity:1;fill-rule:nonzero;stroke:none"
         id="path270" /><path
         d="m 13349,15414.1 c -32,66.2 -58.3,135.2 -78.2,206 -19.3,71 -32.8,143.6 -39.2,217 -12.7,146.7 1.2,295.8 42.1,437.6 40.8,141.8 108.6,275.7 198,393.1 90,116.9 200.1,219 326.3,296.2 62.9,38.7 129.4,71.6 198.4,98.2 69,26.5 140.5,46.5 213.2,59.9 145.4,26.8 295.7,26.8 441.1,-0.2 145.6,-26.7 285.9,-81.3 411.5,-159.3 62.9,-39 122.2,-83.8 177,-133.4 54.8,-49.6 105.5,-104.1 150,-163.2 89.4,-118 156.7,-252.6 197.4,-394.8 40.8,-142.2 55.3,-291.9 42.5,-439.3 -12.5,-147.4 -53.3,-292.2 -118.5,-424.9 -65.2,-132.7 -155.2,-253.1 -263.6,-353.5 -108.7,-100.2 -235.7,-180.2 -373,-234.4 -137.3,-54.4 -284.5,-83.2 -432,-84.6 -147.5,-1.2 -295.1,25.2 -432.8,77.3 -137.8,51.9 -265.5,129.7 -375.4,227.4 110.8,-96.7 239,-173.2 376.8,-223.7 137.7,-50.7 284.7,-75.6 431.3,-73.1 146.5,2.4 292.5,31.6 428.3,86.2 135.8,54.5 261.3,134.4 368.3,234.1 53.6,49.7 102,104.9 145.6,163.6 43.5,58.7 81.7,121.3 113.9,186.9 64.2,131.2 104.2,274.4 116.3,420 12.4,145.6 -2.1,293.4 -42.7,433.7 -40.4,140.3 -107,273 -195.3,389.3 -44,58.3 -93.8,112.1 -147.8,161.2 -54.1,49 -112.5,93.3 -174.5,131.9 -123.9,77.2 -262.3,131.4 -406,158 -143.6,26.9 -292.1,27.2 -435.9,0.9 -143.7,-26.3 -282.6,-78.9 -407.5,-154.9 -125.3,-75.8 -234.9,-176.3 -324.7,-291.8 -89.3,-115.9 -157.2,-248.5 -198.5,-389.1 -41.9,-140.4 -57.2,-288.7 -45.8,-435 5.7,-73.2 18.5,-145.8 37.2,-216.8 19.1,-70.9 44.8,-140 76.2,-206.5"
         style="fill:#1b1a2e;fill-opacity:1;fill-rule:nonzero;stroke:none"
         id="path272" /><path
         d="m 14254.6,15452.1 c -16.8,16.8 -25.2,37.3 -25.2,61.5 0,24.3 8.4,44.8 25.2,61.6 16.7,16.8 37.2,25.2 61.5,25.2 23.3,0 43.1,-8.4 59.5,-25.2 16.3,-16.8 24.4,-37.3 24.4,-61.6 0,-24.2 -8.1,-44.7 -24.4,-61.5 -16.4,-16.8 -36.2,-25.2 -59.5,-25.2 -24.3,0 -44.8,8.4 -61.5,25.2 z m 373.5,892.5 c 56.9,-52.2 85.3,-122.2 85.3,-209.8 0,-97.9 -30.3,-170.5 -90.9,-217.5 -60.7,-47.2 -142.7,-70.7 -246.2,-70.7 l -4.2,-132.9 h -110.5 l -5.6,221 h 40.5 c 92.4,0 164.6,14 216.9,42 52.2,28 78.3,80.7 78.3,158.1 0,55.9 -16.8,100.2 -50.4,132.9 -33.5,32.6 -78.8,49 -135.7,49 -57.8,0 -103.3,-15.7 -136.4,-46.9 -33.1,-31.3 -49.6,-73.9 -49.6,-128 h -120.3 c 0,55.9 12.6,105.1 37.7,147.6 25.2,42.4 60.9,75.3 107.1,98.6 46.1,23.3 99.5,35 160.1,35 92.4,0 167,-26.1 223.9,-78.4"
         style="fill:#1f4168;fill-opacity:1;fill-rule:nonzero;stroke:none"
         id="path274" /><path
         d="m 5723.17,16769.8 c 497.66,315.6 1156.99,168.1 1472.64,-329.6 237.6,-374.6 212.74,-840.8 -26.35,-1183.1 l 250.32,-413.4 -553.54,123.9 c -497.67,-315.7 -1156.99,-168.1 -1472.64,329.5 -315.65,497.7 -168.1,1157 329.57,1472.7"
         style="fill:#ffffff;fill-opacity:1;fill-rule:nonzero;stroke:none"
         id="path276" /><path
         d="m 5924.67,15880.8 c 0,-65.3 -52.91,-118.2 -118.19,-118.2 -65.27,0 -118.18,52.9 -118.18,118.2 0,65.3 52.91,118.2 118.18,118.2 65.28,0 118.19,-52.9 118.19,-118.2"
         style="fill:#1f4068;fill-opacity:1;fill-rule:nonzero;stroke:none"
         id="path278" /><path
         d="m 6431.86,15880.8 c 0,-65.3 -52.92,-118.2 -118.19,-118.2 -65.28,0 -118.19,52.9 -118.19,118.2 0,65.3 52.91,118.2 118.19,118.2 65.27,0 118.19,-52.9 118.19,-118.2"
         style="fill:#1f4068;fill-opacity:1;fill-rule:nonzero;stroke:none"
         id="path280" /><path
         d="m 6939.04,15880.8 c 0,-65.3 -52.91,-118.2 -118.19,-118.2 -65.27,0 -118.18,52.9 -118.18,118.2 0,65.3 52.91,118.2 118.18,118.2 65.28,0 118.19,-52.9 118.19,-118.2"
         style="fill:#1f4068;fill-opacity:1;fill-rule:nonzero;stroke:none"
         id="path282" /><path
         d="m 7419.78,14843.7 c -46.58,8.3 -93.02,17.2 -139.3,26.9 -46.32,9.4 -92.5,19.5 -138.65,29.8 -46.11,10.4 -92.19,20.9 -138.13,32.1 -45.97,11 -91.79,22.7 -137.46,35.1 46.59,-8.3 93.02,-17.2 139.31,-26.9 46.32,-9.5 92.49,-19.6 138.64,-29.8 46.11,-10.4 92.19,-21 138.12,-32.1 45.98,-11.1 91.8,-22.7 137.47,-35.1"
         style="fill:#1b1a2e;fill-opacity:1;fill-rule:nonzero;stroke:none"
         id="path284" /><path
         d="m 7169.46,15257.1 c 22.65,-33.4 44.71,-67.1 66.18,-101.2 21.6,-34 42.66,-68.3 63.61,-102.7 20.78,-34.5 41.44,-69.1 61.57,-104 20.25,-34.8 39.9,-70 58.96,-105.5 -22.66,33.4 -44.73,67.1 -66.19,101.2 -21.6,34 -42.65,68.3 -63.59,102.7 -20.77,34.5 -41.44,69.1 -61.56,104 -20.25,34.8 -39.91,70 -58.98,105.5"
         style="fill:#1b1a2e;fill-opacity:1;fill-rule:nonzero;stroke:none"
         id="path286" /><path
         d="m 6866.24,14967.6 c -110.47,-70.3 -233.71,-120.5 -362.16,-146.6 -128.4,-26.2 -261.74,-28.4 -391.13,-6.4 -129.36,22.1 -254.6,68.2 -367.44,135.3 -112.91,67 -213.15,155.2 -294.36,258.5 -81.02,103.5 -142.97,221.9 -181.54,347.6 -38.56,125.6 -53.9,258.5 -44.1,389.7 9.54,131.1 43.31,260.5 99.2,379.5 55.77,119.1 133.76,227.8 228.81,318.7 47.44,45.6 99.52,86.3 154.61,122.2 55.13,35.8 113.43,66.8 174.09,92.2 121.28,50.8 252.1,79 383.59,82 131.47,3.3 263.43,-17.8 387.3,-61.9 123.92,-43.8 239.58,-110.8 339.18,-196.5 99.95,-85.5 182.33,-190.6 244.99,-305.9 62.08,-115.7 102.88,-242.8 118.79,-373.1 16.09,-130.2 7.52,-263.3 -24.22,-390.4 -15.87,-63.6 -37.9,-125.6 -64.84,-185.2 -27.34,-59.6 -60.12,-116.5 -97.55,-170.2 37.07,53.9 69.44,111.1 96.35,170.7 26.49,59.8 48.07,121.8 63.46,185.3 30.81,127.1 38.43,259.7 21.55,389.2 -16.43,129.5 -57.41,255.7 -119.56,370.5 -62.71,114.3 -144.9,218.3 -244.39,302.7 -99.2,84.7 -214.04,150.7 -336.89,194.1 -122.84,43.5 -253.66,64.3 -383.91,60.8 -130.28,-3.1 -259.82,-31.2 -379.85,-81.7 -60.05,-25.2 -117.75,-55.9 -172.29,-91.5 -54.53,-35.6 -106.01,-75.9 -152.94,-121.1 -94.2,-89.9 -171.55,-197.4 -226.94,-315.3 -55.5,-117.8 -89.12,-245.9 -98.73,-375.8 -9.88,-130 5.16,-261.7 43.23,-386.3 19.03,-62.3 43.9,-122.8 73.92,-180.6 30.09,-57.8 65.03,-113.2 105.21,-164.5 80.2,-102.9 179.38,-190.8 291.32,-257.9 111.86,-67.1 236.23,-113.3 364.85,-136 128.6,-22.7 261.46,-21.4 389.71,3.9 128.31,25.1 251.74,74.5 362.68,144"
         style="fill:#1b1a2e;fill-opacity:1;fill-rule:nonzero;stroke:none"
         id="path288" /></g></g></svg>
